<svg width="12" height="11" viewBox="0 0 12 11" fill="none" xmlns="http://www.w3.org/2000/svg">
<path d="M1.74984 10.3333C1.43873 10.3333 1.1805 10.2307 0.97517 10.0253C0.769393 9.81955 0.666504 9.56111 0.666504 9.25V2.1C0.666504 1.98888 0.680282 1.88599 0.707837 1.79133C0.735837 1.69711 0.777615 1.61111 0.833171 1.53333L1.6665 0.549995C1.74428 0.472217 1.83317 0.416661 1.93317 0.383328C2.03317 0.349995 2.13873 0.333328 2.24984 0.333328H9.74984C9.86095 0.333328 9.9665 0.344439 10.0665 0.366662C10.1665 0.388884 10.2554 0.449995 10.3332 0.549995L11.1332 1.53333C11.2109 1.61111 11.2638 1.69711 11.2918 1.79133C11.3194 1.88599 11.3332 1.98888 11.3332 2.1V9.25C11.3332 9.56111 11.2305 9.81955 11.0252 10.0253C10.8194 10.2307 10.5609 10.3333 10.2498 10.3333H1.74984ZM1.59984 1.66666H10.3998L9.83317 0.999995H2.1665L1.59984 1.66666ZM1.74984 9.66666H10.2498C10.3609 9.66666 10.4581 9.62488 10.5412 9.54133C10.6247 9.45822 10.6665 9.36111 10.6665 9.25V2.33333H1.33317V9.25C1.33317 9.36111 1.37495 9.45822 1.4585 9.54133C1.54162 9.62488 1.63873 9.66666 1.74984 9.66666ZM5.99984 8.46666L8.19984 6.25L7.73317 5.78333L6.33317 7.18333V4.04999H5.6665V7.18333L4.2665 5.78333L3.79984 6.25L5.99984 8.46666Z" fill="#4D5760"/>
</svg>
