<svg width="16" height="16" viewBox="0 0 16 16" fill="none" xmlns="http://www.w3.org/2000/svg">
<mask id="mask0_10_60165" style="mask-type:alpha" maskUnits="userSpaceOnUse" x="0" y="0" width="16" height="16">
<rect width="16" height="16" fill="#C4C4C4"/>
</mask>
<g mask="url(#mask0_10_60165)">
<path d="M3.74984 14C3.43873 14 3.1805 13.8973 2.97517 13.692C2.76939 13.4862 2.6665 13.2278 2.6665 12.9167V4.41666C2.6665 4.10555 2.76939 3.84733 2.97517 3.642C3.1805 3.43622 3.43873 3.33333 3.74984 3.33333H4.9165V1.85H5.63317V3.33333H10.4165V1.85H11.0832V3.33333H12.2498C12.5609 3.33333 12.8194 3.43622 13.0252 3.642C13.2305 3.84733 13.3332 4.10555 13.3332 4.41666V12.9167C13.3332 13.2278 13.2305 13.4862 13.0252 13.692C12.8194 13.8973 12.5609 14 12.2498 14H3.74984ZM3.74984 13.3333H12.2498C12.3609 13.3333 12.4581 13.2916 12.5412 13.208C12.6247 13.1249 12.6665 13.0278 12.6665 12.9167V7.08333H3.33317V12.9167C3.33317 13.0278 3.37495 13.1249 3.4585 13.208C3.54162 13.2916 3.63873 13.3333 3.74984 13.3333ZM3.33317 6.41666H12.6665V4.41666C12.6665 4.30555 12.6247 4.20844 12.5412 4.12533C12.4581 4.04178 12.3609 4 12.2498 4H3.74984C3.63873 4 3.54162 4.04178 3.4585 4.12533C3.37495 4.20844 3.33317 4.30555 3.33317 4.41666V6.41666Z" fill="#91989E"/>
</g>
</svg>
