<svg width="16" height="16" viewBox="0 0 16 16" fill="none" xmlns="http://www.w3.org/2000/svg">
<mask id="mask0_10_64279" style="mask-type:alpha" maskUnits="userSpaceOnUse" x="0" y="0" width="16" height="16">
<rect width="16" height="16" fill="#C4C4C4"/>
</mask>
<g mask="url(#mask0_10_64279)">
<path d="M8.56667 14C8.47778 14 8.39178 13.9833 8.30867 13.95C8.22511 13.9167 8.15 13.8667 8.08333 13.8L2.21667 7.93333C2.15 7.86667 2.09733 7.79156 2.05867 7.708C2.01956 7.62489 2 7.53333 2 7.43333V2.66667C2 2.48889 2.06667 2.33333 2.2 2.2C2.33333 2.06667 2.48889 2 2.66667 2H7.43333C7.52222 2 7.60844 2.01667 7.692 2.05C7.77511 2.08333 7.85 2.13333 7.91667 2.2L13.7833 8.06667C13.9167 8.2 13.9862 8.36378 13.992 8.558C13.9973 8.75267 13.9333 8.91111 13.8 9.03333L9.03333 13.8C8.97778 13.8667 8.90844 13.9167 8.82533 13.95C8.74178 13.9833 8.65556 14 8.56667 14ZM8.55 13.3333L13.3333 8.56667L7.43333 2.66667H2.66667V7.43333L8.55 13.3333ZM4.33333 5C4.52222 5 4.68067 4.93622 4.80867 4.80867C4.93622 4.68067 5 4.52222 5 4.33333C5 4.14444 4.93622 3.986 4.80867 3.858C4.68067 3.73044 4.52222 3.66667 4.33333 3.66667C4.14444 3.66667 3.986 3.73044 3.858 3.858C3.73044 3.986 3.66667 4.14444 3.66667 4.33333C3.66667 4.52222 3.73044 4.68067 3.858 4.80867C3.986 4.93622 4.14444 5 4.33333 5Z" fill="#91989E"/>
</g>
</svg>
