<svg width="36" height="16" viewBox="0 0 36 16" fill="none" xmlns="http://www.w3.org/2000/svg">
    <path d="M6.54415 2.05521C6.12439 2.59366 5.45277 3.01836 4.78116 2.95768C4.6972 2.22964 5.02602 1.45609 5.4108 0.978311C5.83056 0.424693 6.56513 0.0303352 7.15979 0C7.22975 0.758381 6.95691 1.50159 6.54415 2.05521ZM7.1528 3.10178C6.18036 3.04111 5.34783 3.7009 4.8861 3.7009C4.41736 3.7009 3.71077 3.13211 2.94121 3.14728C1.94078 3.16245 1.01032 3.77674 0.499608 4.75505C-0.549791 6.71167 0.226764 9.60868 1.24118 11.2013C1.7379 11.99 2.33256 12.8546 3.11611 12.8242C3.85769 12.7939 4.15152 12.3009 5.047 12.3009C5.94949 12.3009 6.20834 12.8242 6.99189 12.8091C7.80343 12.7939 8.31413 12.0203 8.81085 11.2316C9.37752 10.3367 9.60839 9.46459 9.62238 9.41909C9.60839 9.40392 8.05528 8.7593 8.04129 6.81784C8.0273 5.19491 9.26559 4.42136 9.32156 4.37586C8.62196 3.25345 7.53058 3.13211 7.1528 3.10178ZM12.7706 0.902473V12.7256H14.4636V8.68346H16.8073C18.948 8.68346 20.4522 7.09086 20.4522 4.78538C20.4522 2.4799 18.976 0.902473 16.8632 0.902473H12.7706ZM14.4636 2.44957H16.4155C17.8847 2.44957 18.7242 3.29896 18.7242 4.79297C18.7242 6.28698 17.8847 7.14395 16.4085 7.14395H14.4636V2.44957ZM23.5444 12.8166C24.6078 12.8166 25.5942 12.2327 26.042 11.3075H26.077V12.7256H27.6441V6.84059C27.6441 5.13424 26.3848 4.03459 24.4469 4.03459C22.6489 4.03459 21.3197 5.14941 21.2707 6.68133H22.7958C22.9218 5.95329 23.5444 5.47551 24.3979 5.47551C25.4333 5.47551 26.014 5.99879 26.014 6.96194V7.61414L23.9012 7.75065C21.9353 7.87958 20.8719 8.75171 20.8719 10.2685C20.8719 11.8004 21.9703 12.8166 23.5444 12.8166ZM23.9992 11.4136C23.0967 11.4136 22.523 10.9434 22.523 10.223C22.523 9.47976 23.0757 9.04748 24.1321 8.97923L26.014 8.8503V9.51768C26.014 10.6249 25.1465 11.4136 23.9992 11.4136ZM29.7359 15.9412C31.3869 15.9412 32.1635 15.2586 32.8421 13.1882L35.8154 4.14834H34.0944L32.1005 11.133H32.0655L30.0717 4.14834H28.3017L31.17 12.756L31.0161 13.2792C30.7573 14.1666 30.3375 14.5078 29.5889 14.5078C29.456 14.5078 29.1972 14.4927 29.0922 14.4775V15.8957C29.1902 15.926 29.6099 15.9412 29.7359 15.9412Z" fill="black"/>
</svg>
