<svg width="24" height="24" viewBox="0 0 24 24" fill="none" xmlns="http://www.w3.org/2000/svg">
<path fill-rule="evenodd" clip-rule="evenodd" d="M23.6712 7.40384C23.6712 7.1211 23.6712 6.83836 23.6712 6.55562C23.6712 6.3189 23.6679 6.0789 23.6614 5.84219C23.6482 5.32274 23.6153 4.8 23.5233 4.28712C23.4312 3.76767 23.2767 3.2811 23.0367 2.80767C22.8 2.34411 22.491 1.91671 22.1227 1.54849C21.7545 1.18027 21.3271 0.871233 20.8636 0.634521C20.3901 0.394521 19.9068 0.24 19.3874 0.147945C18.8745 0.0558904 18.3518 0.0263014 17.8323 0.00986301C17.5923 0.00657534 17.3523 0.00328767 17.1156 0C16.8329 0 16.5501 0 16.2674 0H7.40384C7.1211 0 6.83836 0 6.55562 0C6.3189 0 6.0789 0.00328767 5.84219 0.00986301C5.32274 0.0230137 4.8 0.0558904 4.28712 0.147945C3.76767 0.243288 3.2811 0.394521 2.81096 0.637808C2.34411 0.874521 1.92 1.18356 1.55178 1.55178C1.18356 1.92 0.871233 2.34411 0.634521 2.81096C0.394521 3.28438 0.24 3.76767 0.147945 4.29041C0.0558904 4.80329 0.0263014 5.32603 0.00986301 5.84548C0.00657534 6.08219 0.00328767 6.3189 0 6.55562C0 6.83836 0 7.1211 0 7.40384V16.2641C0 16.5469 0 16.8296 0 17.1123C0 17.349 0.00328767 17.589 0.00986301 17.8258C0.0230137 18.3452 0.0558904 18.8679 0.147945 19.3808C0.24 19.9003 0.394521 20.3868 0.634521 20.8603C0.871233 21.3238 1.18027 21.7512 1.54849 22.1195C1.91671 22.4877 2.34411 22.7967 2.80767 23.0334C3.2811 23.2734 3.76438 23.4279 4.28384 23.52C4.79671 23.6121 5.31945 23.6416 5.8389 23.6581C6.07562 23.6647 6.31562 23.6679 6.55233 23.6679C6.83507 23.6712 7.11781 23.6679 7.40055 23.6679H16.2608C16.5436 23.6679 16.8263 23.6679 17.109 23.6679C17.3458 23.6679 17.5858 23.6647 17.8225 23.6581C18.3419 23.6449 18.8647 23.6121 19.3775 23.52C19.897 23.4279 20.3836 23.2734 20.8537 23.0334C21.3173 22.7967 21.7447 22.4877 22.1129 22.1195C22.4811 21.7512 22.7901 21.3271 23.0268 20.8603C23.2668 20.3868 23.4214 19.9036 23.5134 19.3808C23.6055 18.8679 23.6351 18.3452 23.6515 17.8258C23.6581 17.589 23.6614 17.349 23.6614 17.1123C23.6647 16.8296 23.6614 16.5469 23.6614 16.2641L23.6712 7.40384Z" fill="url(#paint0_linear_4_35626)"/>
<path fill-rule="evenodd" clip-rule="evenodd" d="M16.7347 3.61642C16.6788 3.62299 16.1692 3.71176 16.1067 3.72491L9.07113 5.14519H9.06784C8.88373 5.18464 8.73907 5.25039 8.63058 5.34245C8.49578 5.45423 8.42346 5.61532 8.39387 5.79943C8.38729 5.83888 8.37743 5.91779 8.37743 6.03614C8.37743 6.03614 8.37743 13.223 8.37743 14.8405C8.37743 15.0477 8.36099 15.2449 8.22291 15.4159C8.08483 15.5868 7.91058 15.6361 7.71003 15.6789C7.55551 15.7085 7.40428 15.7414 7.24976 15.7709C6.66784 15.8893 6.28976 15.9682 5.94784 16.0997C5.61907 16.2279 5.37578 16.389 5.17852 16.5929C4.79058 16.9972 4.63277 17.5496 4.68866 18.0657C4.73469 18.5063 4.93195 18.9271 5.27387 19.2361C5.504 19.4466 5.79003 19.6077 6.12866 19.6734C6.48044 19.7424 6.85195 19.7194 7.3977 19.6077C7.68702 19.5485 7.95989 19.4564 8.21962 19.3052C8.47606 19.154 8.69633 18.9534 8.86729 18.7068C9.03825 18.4603 9.15003 18.1874 9.2125 17.8948C9.27496 17.5956 9.2914 17.3227 9.2914 17.0235V9.38957C9.2914 8.9819 9.40647 8.8734 9.73852 8.79121C9.73852 8.79121 15.5873 7.61094 15.8602 7.55834C16.2415 7.48601 16.4191 7.5945 16.4191 7.99231V13.2066C16.4191 13.4137 16.4158 13.6208 16.2777 13.7918C16.1396 13.9627 15.9654 14.012 15.7648 14.0548C15.6103 14.0844 15.4591 14.1172 15.3046 14.1468C14.7226 14.2652 14.3446 14.3441 14.0026 14.4756C13.6739 14.6038 13.4306 14.7649 13.2333 14.9687C12.8454 15.3731 12.6744 15.9255 12.7303 16.4416C12.7763 16.8822 12.9867 17.303 13.3287 17.612C13.5588 17.8224 13.8448 17.977 14.1835 18.046C14.5352 18.115 14.9067 18.092 15.4525 17.9803C15.7418 17.9211 16.0147 17.8356 16.2744 17.6811C16.5309 17.5298 16.7511 17.3293 16.9221 17.0827C17.093 16.8361 17.2048 16.5633 17.2673 16.2707C17.3298 15.9715 17.333 15.6986 17.333 15.3994V4.23779C17.3298 3.8334 17.1161 3.58354 16.7347 3.61642Z" fill="white"/>
<defs>
<linearGradient id="paint0_linear_4_35626" x1="11.8356" y1="23.5795" x2="11.8356" y2="0.510181" gradientUnits="userSpaceOnUse">
<stop stop-color="#FA233B"/>
<stop offset="1" stop-color="#FB5C74"/>
</linearGradient>
</defs>
</svg>
