<svg width="32" height="32" viewBox="0 0 32 32" fill="none" xmlns="http://www.w3.org/2000/svg">
    <mask id="path-1-inside-1_1185_1639" fill="white">
        <path d="M20.602 19.9586C19.7553 20.71 18.698 21.645 16.7808 21.645H15.6344C14.2471 21.645 12.9853 21.1407 12.0821 20.2267C11.1998 19.3335 10.7141 18.1112 10.7141 16.7843V15.2157C10.7141 13.8888 11.1998 12.6665 12.0821 11.7734C12.9853 10.8593 14.2471 10.3558 15.6344 10.3558H16.7808C18.7003 10.3558 19.7553 11.29 20.602 12.0414C21.4811 12.816 22.2395 13.493 24.262 13.493C24.5704 13.4929 24.8784 13.4683 25.183 13.4194L25.176 13.4016C25.0549 13.1008 24.9128 12.8088 24.7508 12.5278L23.3991 10.1862C22.7895 9.13059 21.9128 8.25402 20.8572 7.6446C19.8015 7.03517 18.604 6.71437 17.385 6.71442H14.6809C13.4619 6.71437 12.2644 7.03517 11.2087 7.6446C10.153 8.25402 9.27637 9.13059 8.66682 10.1862L7.31514 12.5278C6.70579 13.5836 6.38501 14.7811 6.38501 16C6.38501 17.219 6.70579 18.4165 7.31514 19.4722L8.66682 21.8138C9.27637 22.8694 10.153 23.746 11.2087 24.3554C12.2644 24.9649 13.4619 25.2857 14.6809 25.2856H17.385C18.604 25.2857 19.8015 24.9649 20.8572 24.3554C21.9128 23.746 22.7895 22.8694 23.3991 21.8138L24.7508 19.4761C24.9128 19.1951 25.0549 18.9031 25.176 18.6023L25.183 18.5853C24.8786 18.5347 24.5706 18.5088 24.262 18.5078C22.2395 18.5078 21.4811 19.1809 20.602 19.9594"/>
    </mask>
    <path d="M20.602 19.9586C19.7553 20.71 18.698 21.645 16.7808 21.645H15.6344C14.2471 21.645 12.9853 21.1407 12.0821 20.2267C11.1998 19.3335 10.7141 18.1112 10.7141 16.7843V15.2157C10.7141 13.8888 11.1998 12.6665 12.0821 11.7734C12.9853 10.8593 14.2471 10.3558 15.6344 10.3558H16.7808C18.7003 10.3558 19.7553 11.29 20.602 12.0414C21.4811 12.816 22.2395 13.493 24.262 13.493C24.5704 13.4929 24.8784 13.4683 25.183 13.4194L25.176 13.4016C25.0549 13.1008 24.9128 12.8088 24.7508 12.5278L23.3991 10.1862C22.7895 9.13059 21.9128 8.25402 20.8572 7.6446C19.8015 7.03517 18.604 6.71437 17.385 6.71442H14.6809C13.4619 6.71437 12.2644 7.03517 11.2087 7.6446C10.153 8.25402 9.27637 9.13059 8.66682 10.1862L7.31514 12.5278C6.70579 13.5836 6.38501 14.7811 6.38501 16C6.38501 17.219 6.70579 18.4165 7.31514 19.4722L8.66682 21.8138C9.27637 22.8694 10.153 23.746 11.2087 24.3554C12.2644 24.9649 13.4619 25.2857 14.6809 25.2856H17.385C18.604 25.2857 19.8015 24.9649 20.8572 24.3554C21.9128 23.746 22.7895 22.8694 23.3991 21.8138L24.7508 19.4761C24.9128 19.1951 25.0549 18.9031 25.176 18.6023L25.183 18.5853C24.8786 18.5347 24.5706 18.5088 24.262 18.5078C22.2395 18.5078 21.4811 19.1809 20.602 19.9594" fill="#006BFF"/>
    <path d="M12.0821 20.2267L11.3707 20.9294L11.3708 20.9295L12.0821 20.2267ZM12.0821 11.7734L11.3708 11.0705L11.3707 11.0706L12.0821 11.7734ZM20.602 12.0414L19.9382 12.7893L19.9409 12.7917L20.602 12.0414ZM24.262 13.493V14.493H24.2622L24.262 13.493ZM25.183 13.4194L25.3415 14.4068L26.5662 14.2101L26.1142 13.055L25.183 13.4194ZM25.176 13.4016L26.1073 13.0372L26.1036 13.028L25.176 13.4016ZM24.7508 12.5278L25.617 12.0283L25.6168 12.0279L24.7508 12.5278ZM23.3991 10.1862L24.2651 9.68627L24.2651 9.68615L23.3991 10.1862ZM17.385 6.71442V7.71442H17.3851L17.385 6.71442ZM14.6809 6.71442L14.6808 7.71442H14.6809V6.71442ZM8.66682 10.1862L7.80083 9.68615L7.80076 9.68627L8.66682 10.1862ZM7.31514 12.5278L6.44907 12.0279L6.44905 12.028L7.31514 12.5278ZM6.38501 16H7.38501H6.38501ZM7.31514 19.4722L6.44905 19.9721L6.44907 19.9721L7.31514 19.4722ZM8.66682 21.8138L7.80076 22.3138L7.80083 22.3139L8.66682 21.8138ZM14.6809 25.2856V24.2856H14.6808L14.6809 25.2856ZM17.385 25.2856L17.3851 24.2856H17.385V25.2856ZM23.3991 21.8138L22.5334 21.3133L22.5331 21.3138L23.3991 21.8138ZM24.7508 19.4761L25.6165 19.9766L25.617 19.9756L24.7508 19.4761ZM25.176 18.6023L24.2504 18.2237L24.2484 18.2288L25.176 18.6023ZM25.183 18.5853L26.1085 18.9639L26.583 17.8041L25.3469 17.5988L25.183 18.5853ZM24.262 18.5078L24.2652 17.5078H24.262V18.5078ZM19.9382 19.2107C19.1124 19.9436 18.3 20.645 16.7808 20.645V22.645C19.0959 22.645 20.3983 21.4764 21.2657 20.7066L19.9382 19.2107ZM16.7808 20.645H15.6344V22.645H16.7808V20.645ZM15.6344 20.645C14.4912 20.645 13.493 20.2318 12.7934 19.5238L11.3708 20.9295C12.4775 22.0496 14.003 22.645 15.6344 22.645V20.645ZM12.7935 19.5239C12.1075 18.8295 11.7141 17.8648 11.7141 16.7843H9.71411C9.71411 18.3576 10.2921 19.8376 11.3707 20.9294L12.7935 19.5239ZM11.7141 16.7843V15.2157H9.71411V16.7843H11.7141ZM11.7141 15.2157C11.7141 14.1353 12.1075 13.1706 12.7935 12.4761L11.3707 11.0706C10.2921 12.1624 9.71411 13.6424 9.71411 15.2157H11.7141ZM12.7934 12.4762C13.4928 11.7685 14.4908 11.3558 15.6344 11.3558V9.35584C14.0034 9.35584 12.4778 9.9502 11.3708 11.0705L12.7934 12.4762ZM15.6344 11.3558H16.7808V9.35584H15.6344V11.3558ZM16.7808 11.3558C18.3024 11.3558 19.1124 12.0565 19.9382 12.7893L21.2657 11.2934C20.3982 10.5236 19.0982 9.35584 16.7808 9.35584V11.3558ZM19.9409 12.7917C20.3673 13.1674 20.8743 13.6238 21.5692 13.9586C22.2833 14.3026 23.1329 14.493 24.262 14.493V12.493C23.3686 12.493 22.8277 12.3449 22.4373 12.1568C22.0275 11.9594 21.7158 11.69 21.263 11.2911L19.9409 12.7917ZM24.2622 14.493C24.6237 14.4929 24.9846 14.4641 25.3415 14.4068L25.0244 12.4321C24.7722 12.4726 24.5172 12.4929 24.2617 12.493L24.2622 14.493ZM26.1142 13.055L26.1073 13.0372L24.2448 13.766L24.2517 13.7838L26.1142 13.055ZM26.1036 13.028C25.965 12.6838 25.8024 12.3498 25.617 12.0283L23.8845 13.0274C24.0231 13.2678 24.1447 13.5177 24.2484 13.7751L26.1036 13.028ZM25.6168 12.0279L24.2651 9.68627L22.533 10.6861L23.8847 13.0278L25.6168 12.0279ZM24.2651 9.68615C23.5677 8.47853 22.5648 7.47573 21.3571 6.77855L20.3572 8.51065C21.2609 9.03232 22.0113 9.78266 22.5331 10.6863L24.2651 9.68615ZM21.3571 6.77855C20.1494 6.08136 18.7795 5.71436 17.385 5.71442L17.3851 7.71442C18.4285 7.71437 19.4535 7.98898 20.3572 8.51065L21.3571 6.77855ZM17.385 5.71442H14.6809V7.71442H17.385V5.71442ZM14.6809 5.71442C13.2864 5.71436 11.9165 6.08136 10.7088 6.77855L11.7087 8.51065C12.6123 7.98898 13.6374 7.71437 14.6808 7.71442L14.6809 5.71442ZM10.7088 6.77855C9.50107 7.47573 8.49816 8.47853 7.80083 9.68615L9.53282 10.6863C10.0546 9.78266 10.805 9.03232 11.7087 8.51065L10.7088 6.77855ZM7.80076 9.68627L6.44907 12.0279L8.1812 13.0278L9.53289 10.6861L7.80076 9.68627ZM6.44905 12.028C5.75198 13.2357 5.38501 14.6056 5.38501 16H7.38501C7.38501 14.9565 7.65961 13.9315 8.18123 13.0277L6.44905 12.028ZM5.38501 16C5.38501 17.3945 5.75198 18.7644 6.44905 19.9721L8.18123 18.9723C7.65961 18.0686 7.38501 17.0435 7.38501 16H5.38501ZM6.44907 19.9721L7.80076 22.3138L9.53289 21.3139L8.1812 18.9723L6.44907 19.9721ZM7.80083 22.3139C8.49816 23.5215 9.50107 24.5243 10.7088 25.2215L11.7087 23.4894C10.805 22.9677 10.0546 22.2174 9.53282 21.3138L7.80083 22.3139ZM10.7088 25.2215C11.9165 25.9187 13.2864 26.2857 14.6809 26.2856L14.6808 24.2856C13.6374 24.2857 12.6123 24.011 11.7087 23.4894L10.7088 25.2215ZM14.6809 26.2856H17.385V24.2856H14.6809V26.2856ZM17.385 26.2856C18.7795 26.2857 20.1494 25.9187 21.3571 25.2215L20.3572 23.4894C19.4535 24.011 18.4285 24.2857 17.3851 24.2856L17.385 26.2856ZM21.3571 25.2215C22.5648 24.5243 23.5677 23.5215 24.2651 22.3139L22.5331 21.3138C22.0113 22.2174 21.2609 22.9677 20.3572 23.4894L21.3571 25.2215ZM24.2648 22.3144L25.6165 19.9766L23.885 18.9755L22.5334 21.3133L24.2648 22.3144ZM25.617 19.9756C25.8024 19.6541 25.965 19.3201 26.1036 18.9759L24.2484 18.2288C24.1447 18.4862 24.0231 18.7361 23.8845 18.9765L25.617 19.9756ZM26.1016 18.9809L26.1085 18.9639L24.2574 18.2066L24.2505 18.2237L26.1016 18.9809ZM25.3469 17.5988C24.9893 17.5394 24.6276 17.509 24.2652 17.5078L24.2588 19.5078C24.5135 19.5086 24.7678 19.53 25.0191 19.5717L25.3469 17.5988ZM24.262 17.5078C23.1338 17.5078 22.2843 17.6969 21.5698 18.0405C20.874 18.3751 20.367 18.8318 19.939 19.2107L21.2649 20.7081C21.7161 20.3086 22.0279 20.0394 22.4366 19.8429C22.8267 19.6553 23.3677 19.5078 24.262 19.5078V17.5078Z" fill="#006BFF" mask="url(#path-1-inside-1_1185_1639)"/>
    <path d="M16.7808 11.7773H15.6344C13.5228 11.7773 12.1355 13.2854 12.1355 15.2157V16.7843C12.1355 18.7146 13.5228 20.2228 15.6344 20.2228H16.7808C19.8575 20.2228 19.6159 17.0856 24.262 17.0856C24.7022 17.0851 25.1414 17.1256 25.5741 17.2065C25.7151 16.4083 25.7151 15.5917 25.5741 14.7936C25.1414 14.8741 24.7021 14.9145 24.262 14.9144C19.6143 14.9144 19.8575 11.7773 16.7808 11.7773" fill="#006BFF"/>
    <path d="M28.2434 18.3529C27.4522 17.7734 26.5398 17.3811 25.5749 17.2057C25.5749 17.2142 25.5749 17.2212 25.5749 17.2289C25.4918 17.6914 25.3621 18.1443 25.1876 18.5806C25.9847 18.704 26.7409 19.0155 27.3937 19.4892C27.3937 19.4954 27.3898 19.5031 27.3875 19.5101C26.5473 22.2307 24.7591 24.5596 22.3478 26.0739C19.9365 27.5882 17.0621 28.1873 14.2466 27.7625C11.4311 27.3376 8.86143 25.917 7.00432 23.7586C5.14721 21.6002 4.12589 18.8473 4.12589 16C4.12589 13.1526 5.14721 10.3997 7.00432 8.24138C8.86143 6.08301 11.4311 4.66237 14.2466 4.23752C17.0621 3.81267 19.9365 4.4118 22.3478 5.92607C24.7591 7.44034 26.5473 9.7693 27.3875 12.4899C27.3875 12.4968 27.3914 12.5046 27.3937 12.5108C26.741 12.9846 25.9847 13.2958 25.1876 13.4186C25.3619 13.8555 25.4916 14.3089 25.5749 14.7719C25.5745 14.7791 25.5745 14.7863 25.5749 14.7935C26.5397 14.6184 27.4522 14.2264 28.2434 13.6471C29.0041 13.084 28.8569 12.448 28.7415 12.0716C27.801 9.02126 25.7975 6.40956 23.0949 4.71105C20.3923 3.01254 17.1701 2.33994 14.0137 2.81548C10.8573 3.29102 7.97625 4.88314 5.89406 7.30252C3.81188 9.7219 2.66675 12.808 2.66675 16C2.66675 19.192 3.81188 22.2781 5.89406 24.6975C7.97625 27.1168 10.8573 28.709 14.0137 29.1845C17.1701 29.66 20.3923 28.9874 23.0949 27.2889C25.7975 25.5904 27.801 22.9787 28.7415 19.9284C28.8569 19.5519 29.0041 18.916 28.2434 18.3529Z" fill="#006BFF"/>
    <path d="M25.183 13.4186C24.8786 13.4692 24.5706 13.4951 24.262 13.4961C22.2395 13.4961 21.4811 12.823 20.6027 12.0445C19.7553 11.2931 18.7003 10.3582 16.7808 10.3582H15.6344C14.2463 10.3582 12.9853 10.8624 12.0821 11.7765C11.1998 12.6696 10.7141 13.8919 10.7141 15.2188V16.7874C10.7141 18.1143 11.1998 19.3366 12.0821 20.2297C12.9853 21.1438 14.2463 21.6473 15.6344 21.6473H16.7808C18.7003 21.6473 19.7553 20.7131 20.6027 19.9617C21.4811 19.1871 22.2395 18.5101 24.262 18.5101C24.5704 18.5102 24.8784 18.5348 25.183 18.5837C25.3578 18.1475 25.4876 17.6946 25.5703 17.232C25.5707 17.2243 25.5707 17.2165 25.5703 17.2088C25.1375 17.1285 24.6983 17.0884 24.2581 17.0887C19.6105 17.0887 19.8537 20.2266 16.777 20.2266H15.6305C13.519 20.2266 12.1316 18.7177 12.1316 16.7874V15.2157C12.1316 13.2854 13.519 11.7772 15.6305 11.7772H16.777C19.8537 11.7772 19.612 14.9136 24.2581 14.9136C24.6983 14.9144 25.1376 14.8742 25.5703 14.7936C25.5703 14.7866 25.5703 14.7796 25.5703 14.7719C25.487 14.3089 25.3573 13.8555 25.183 13.4186Z" fill="#0AE8F0"/>
    <path d="M25.183 13.4186C24.8786 13.4692 24.5706 13.4951 24.262 13.4961C22.2395 13.4961 21.4811 12.823 20.6027 12.0445C19.7553 11.2931 18.7003 10.3582 16.7808 10.3582H15.6344C14.2463 10.3582 12.9853 10.8624 12.0821 11.7765C11.1998 12.6696 10.7141 13.8919 10.7141 15.2188V16.7874C10.7141 18.1143 11.1998 19.3366 12.0821 20.2297C12.9853 21.1438 14.2463 21.6473 15.6344 21.6473H16.7808C18.7003 21.6473 19.7553 20.7131 20.6027 19.9617C21.4811 19.1871 22.2395 18.5101 24.262 18.5101C24.5704 18.5102 24.8784 18.5348 25.183 18.5837C25.3578 18.1475 25.4876 17.6946 25.5703 17.232C25.5707 17.2243 25.5707 17.2165 25.5703 17.2088C25.1375 17.1285 24.6983 17.0884 24.2581 17.0887C19.6105 17.0887 19.8537 20.2266 16.777 20.2266H15.6305C13.519 20.2266 12.1316 18.7177 12.1316 16.7874V15.2157C12.1316 13.2854 13.519 11.7772 15.6305 11.7772H16.777C19.8537 11.7772 19.612 14.9136 24.2581 14.9136C24.6983 14.9144 25.1376 14.8742 25.5703 14.7936C25.5703 14.7866 25.5703 14.7796 25.5703 14.7719C25.487 14.3089 25.3573 13.8555 25.183 13.4186Z" fill="#0AE8F0"/>
</svg>
