<svg width="40" height="40" viewBox="0 0 40 40" fill="none" xmlns="http://www.w3.org/2000/svg">
<rect width="40" height="40" rx="20" fill="#06051B"/>
<mask id="mask0_1239_16095" style="mask-type:alpha" maskUnits="userSpaceOnUse" x="10" y="10" width="20" height="20">
<rect x="10" y="10" width="20" height="20" fill="#C4C4C4"/>
</mask>
<g mask="url(#mask0_1239_16095)">
<path d="M20 23.9374C20.875 23.9374 21.6111 23.6388 22.2083 23.0416C22.8056 22.4444 23.1042 21.7083 23.1042 20.8333C23.1042 19.9583 22.8056 19.2221 22.2083 18.6249C21.6111 18.0277 20.875 17.7291 20 17.7291C19.125 17.7291 18.3889 18.0277 17.7917 18.6249C17.1944 19.2221 16.8958 19.9583 16.8958 20.8333C16.8958 21.7083 17.1944 22.4444 17.7917 23.0416C18.3889 23.6388 19.125 23.9374 20 23.9374ZM20 23.1041C19.3472 23.1041 18.8056 22.8888 18.375 22.4583C17.9444 22.0277 17.7292 21.486 17.7292 20.8333C17.7292 20.1805 17.9444 19.6388 18.375 19.2083C18.8056 18.7777 19.3472 18.5624 20 18.5624C20.6528 18.5624 21.1944 18.7777 21.625 19.2083C22.0556 19.6388 22.2708 20.1805 22.2708 20.8333C22.2708 21.486 22.0556 22.0277 21.625 22.4583C21.1944 22.8888 20.6528 23.1041 20 23.1041ZM13.8542 26.6666C13.4653 26.6666 13.1425 26.5383 12.8858 26.2816C12.6286 26.0244 12.5 25.7013 12.5 25.3124V16.3541C12.5 15.9652 12.6286 15.6424 12.8858 15.3858C13.1425 15.1285 13.4653 14.9999 13.8542 14.9999H16.3125L17.8542 13.3333H22.1458L23.6875 14.9999H26.1458C26.5347 14.9999 26.8578 15.1285 27.115 15.3858C27.3717 15.6424 27.5 15.9652 27.5 16.3541V25.3124C27.5 25.7013 27.3717 26.0244 27.115 26.2816C26.8578 26.5383 26.5347 26.6666 26.1458 26.6666H13.8542ZM26.1458 25.8333C26.2986 25.8333 26.4236 25.7846 26.5208 25.6874C26.6181 25.5902 26.6667 25.4652 26.6667 25.3124V16.3541C26.6667 16.2013 26.6181 16.0763 26.5208 15.9791C26.4236 15.8819 26.2986 15.8333 26.1458 15.8333H23.3333L21.7917 14.1666H18.2083L16.6667 15.8333H13.8542C13.7014 15.8333 13.5764 15.8819 13.4792 15.9791C13.3819 16.0763 13.3333 16.2013 13.3333 16.3541V25.3124C13.3333 25.4652 13.3819 25.5902 13.4792 25.6874C13.5764 25.7846 13.7014 25.8333 13.8542 25.8333H26.1458Z" fill="white"/>
</g>
</svg>
