<svg width="20" height="20" viewBox="0 0 20 20" fill="none" xmlns="http://www.w3.org/2000/svg">
    <mask id="mask0_1_9029" style="mask-type:alpha"  x="0" y="0" width="20" height="20">
        <rect width="20" height="20" fill="#C4C4C4"/>
    </mask>
    <g mask="url(#mask0_1_9029)">
        <path d="M10 13.9375C10.875 13.9375 11.6111 13.6389 12.2083 13.0417C12.8056 12.4444 13.1042 11.7083 13.1042 10.8333C13.1042 9.95833 12.8056 9.22222 12.2083 8.625C11.6111 8.02777 10.875 7.72916 10 7.72916C9.125 7.72916 8.38889 8.02777 7.79167 8.625C7.19444 9.22222 6.89583 9.95833 6.89583 10.8333C6.89583 11.7083 7.19444 12.4444 7.79167 13.0417C8.38889 13.6389 9.125 13.9375 10 13.9375ZM10 13.1042C9.34722 13.1042 8.80556 12.8889 8.375 12.4583C7.94444 12.0278 7.72917 11.4861 7.72917 10.8333C7.72917 10.1806 7.94444 9.63888 8.375 9.20833C8.80556 8.77777 9.34722 8.56249 10 8.56249C10.6528 8.56249 11.1944 8.77777 11.625 9.20833C12.0556 9.63888 12.2708 10.1806 12.2708 10.8333C12.2708 11.4861 12.0556 12.0278 11.625 12.4583C11.1944 12.8889 10.6528 13.1042 10 13.1042ZM3.85417 16.6667C3.46528 16.6667 3.1425 16.5383 2.88583 16.2817C2.62861 16.0244 2.5 15.7014 2.5 15.3125V6.35416C2.5 5.96527 2.62861 5.64249 2.88583 5.38583C3.1425 5.12861 3.46528 4.99999 3.85417 4.99999H6.3125L7.85417 3.33333H12.1458L13.6875 4.99999H16.1458C16.5347 4.99999 16.8578 5.12861 17.115 5.38583C17.3717 5.64249 17.5 5.96527 17.5 6.35416V15.3125C17.5 15.7014 17.3717 16.0244 17.115 16.2817C16.8578 16.5383 16.5347 16.6667 16.1458 16.6667H3.85417ZM16.1458 15.8333C16.2986 15.8333 16.4236 15.7847 16.5208 15.6875C16.6181 15.5903 16.6667 15.4653 16.6667 15.3125V6.35416C16.6667 6.20138 16.6181 6.07638 16.5208 5.97916C16.4236 5.88194 16.2986 5.83333 16.1458 5.83333H13.3333L11.7917 4.16666H8.20833L6.66667 5.83333H3.85417C3.70139 5.83333 3.57639 5.88194 3.47917 5.97916C3.38194 6.07638 3.33333 6.20138 3.33333 6.35416V15.3125C3.33333 15.4653 3.38194 15.5903 3.47917 15.6875C3.57639 15.7847 3.70139 15.8333 3.85417 15.8333H16.1458Z" fill="#4D5760"/>
    </g>
</svg>
