<svg width="20" height="20" viewBox="0 0 20 20" fill="none" xmlns="http://www.w3.org/2000/svg">
<mask id="mask0_175_11731" style="mask-type:alpha" maskUnits="userSpaceOnUse" x="0" y="0" width="20" height="20">
<rect width="20" height="20" fill="#C4C4C4"/>
</mask>
<g mask="url(#mask0_175_11731)">
<path d="M3.85417 15.8333C3.46528 15.8333 3.1425 15.705 2.88583 15.4483C2.62861 15.1911 2.5 14.8681 2.5 14.4792V5.52083C2.5 5.13195 2.62861 4.80917 2.88583 4.5525C3.1425 4.29528 3.46528 4.16667 3.85417 4.16667H16.1458C16.5347 4.16667 16.8578 4.29528 17.115 4.5525C17.3717 4.80917 17.5 5.13195 17.5 5.52083V14.4792C17.5 14.8681 17.3717 15.1911 17.115 15.4483C16.8578 15.705 16.5347 15.8333 16.1458 15.8333H3.85417ZM3.33333 7.33333H16.6667V5.52083C16.6667 5.38195 16.6144 5.26056 16.51 5.15667C16.4061 5.05222 16.2847 5 16.1458 5H3.85417C3.71528 5 3.59389 5.05222 3.49 5.15667C3.38556 5.26056 3.33333 5.38195 3.33333 5.52083V7.33333ZM3.33333 9.33333V14.4792C3.33333 14.6181 3.38556 14.7394 3.49 14.8433C3.59389 14.9478 3.71528 15 3.85417 15H16.1458C16.2847 15 16.4061 14.9478 16.51 14.8433C16.6144 14.7394 16.6667 14.6181 16.6667 14.4792V9.33333H3.33333Z" fill="#4D5760"/>
</g>
</svg>
