<svg width="56" height="56" viewBox="0 0 56 56" fill="none" xmlns="http://www.w3.org/2000/svg">
    <rect width="56" height="56" rx="28" fill="#FFEEE7"/>
    <mask id="mask0_12_75876" style="mask-type:alpha" maskUnits="userSpaceOnUse" x="16" y="16" width="24" height="24">
        <rect x="16" y="16" width="24" height="24" fill="#D9D9D9"/>
    </mask>
    <g mask="url(#mask0_12_75876)">
        <path d="M29.5 28.425C28.9333 28.425 28.4583 28.2333 28.075 27.85C27.6916 27.4667 27.5 26.9917 27.5 26.425C27.5 25.8583 27.6916 25.3833 28.075 25C28.4583 24.6167 28.9333 24.425 29.5 24.425C30.0666 24.425 30.5416 24.6167 30.925 25C31.3083 25.3833 31.5 25.8583 31.5 26.425C31.5 26.9917 31.3083 27.4667 30.925 27.85C30.5416 28.2333 30.0666 28.425 29.5 28.425ZM23.3 31.625C22.8666 31.625 22.4916 31.4667 22.175 31.15C21.8583 30.8333 21.7 30.45 21.7 30V22.85C21.7 22.4 21.8583 22.0167 22.175 21.7C22.4916 21.3833 22.8666 21.225 23.3 21.225H35.7C36.1333 21.225 36.5083 21.3833 36.825 21.7C37.1416 22.0167 37.2999 22.4 37.2999 22.85V30C37.2999 30.45 37.1416 30.8333 36.825 31.15C36.5083 31.4667 36.1333 31.625 35.7 31.625H23.3ZM24.3 30.625H34.7C34.7 30.175 34.8583 29.7917 35.1749 29.475C35.4916 29.1583 35.8666 29 36.2999 29V23.85C35.8499 23.85 35.471 23.6917 35.163 23.375C34.8543 23.0583 34.7 22.675 34.7 22.225H24.3C24.3 22.675 24.1416 23.0583 23.825 23.375C23.5083 23.6917 23.1333 23.85 22.7 23.85V29C23.15 29 23.5293 29.1583 23.838 29.475C24.146 29.7917 24.3 30.175 24.3 30.625ZM34.35 34.625H20.3C19.8666 34.625 19.4916 34.4667 19.175 34.15C18.8583 33.8333 18.7 33.45 18.7 33V24.2H19.7V33C19.7 33.15 19.7626 33.2917 19.888 33.425C20.0126 33.5583 20.15 33.625 20.3 33.625H34.35V34.625ZM23.3 30.625H22.7C22.7 30.625 22.7 30.5627 22.7 30.438C22.7 30.3127 22.7 30.1667 22.7 30V22.85C22.7 22.6833 22.7 22.5373 22.7 22.412C22.7 22.2873 22.7 22.225 22.7 22.225H23.3C23.1333 22.225 22.9916 22.2873 22.875 22.412C22.7583 22.5373 22.7 22.6833 22.7 22.85V30C22.7 30.1667 22.7583 30.3127 22.875 30.438C22.9916 30.5627 23.1333 30.625 23.3 30.625Z" fill="#FF5403"/>
    </g>
</svg>

