<svg width="12" height="15" viewBox="0 0 12 15" fill="none" xmlns="http://www.w3.org/2000/svg">
<path d="M3.91667 11.6874C3.52778 11.6874 3.205 11.5591 2.94833 11.3024C2.69111 11.0452 2.5625 10.7221 2.5625 10.3333V1.35409C2.5625 0.979085 2.69111 0.662974 2.94833 0.405752C3.205 0.149085 3.52778 0.020752 3.91667 0.020752H10.3958C10.7708 0.020752 11.0869 0.149085 11.3442 0.405752C11.6008 0.662974 11.7292 0.979085 11.7292 1.35409V10.3333C11.7292 10.7221 11.6008 11.0452 11.3442 11.3024C11.0869 11.5591 10.7708 11.6874 10.3958 11.6874H3.91667ZM3.91667 10.8541H10.3958C10.5208 10.8541 10.6356 10.7985 10.74 10.6874C10.8439 10.5763 10.8958 10.4583 10.8958 10.3333V1.35409C10.8958 1.22909 10.8439 1.11436 10.74 1.00992C10.6356 0.90603 10.5208 0.854085 10.3958 0.854085H3.91667C3.79167 0.854085 3.67361 0.90603 3.5625 1.00992C3.45139 1.11436 3.39583 1.22909 3.39583 1.35409V10.3333C3.39583 10.4583 3.45139 10.5763 3.5625 10.6874C3.67361 10.7985 3.79167 10.8541 3.91667 10.8541ZM1.41667 14.1874C1.02778 14.1874 0.705 14.0591 0.448333 13.8024C0.191111 13.5452 0.0625 13.2221 0.0625 12.8333V3.35409H0.895833V12.8333C0.895833 12.9583 0.951389 13.0763 1.0625 13.1874C1.17361 13.2985 1.29167 13.3541 1.41667 13.3541H8.39583V14.1874H1.41667Z" fill="#131316"/>
</svg>
