<svg width="20" height="14" viewBox="0 0 20 14" fill="none" xmlns="http://www.w3.org/2000/svg">
<path d="M2.18717 13.3542C1.79829 13.3542 1.47523 13.2258 1.21801 12.9692C0.961341 12.7119 0.833008 12.3889 0.833008 12V1.99999C0.833008 1.61111 0.961341 1.28833 1.21801 1.03166C1.47523 0.774439 1.79829 0.645828 2.18717 0.645828H17.8122C18.2011 0.645828 18.5241 0.774439 18.7813 1.03166C19.038 1.28833 19.1663 1.61111 19.1663 1.99999V12C19.1663 12.3889 19.038 12.7119 18.7813 12.9692C18.5241 13.2258 18.2011 13.3542 17.8122 13.3542H2.18717ZM12.3122 12.5208H17.8122C17.9511 12.5208 18.0725 12.4653 18.1763 12.3542C18.2808 12.243 18.333 12.125 18.333 12V1.99999C18.333 1.87499 18.2808 1.75694 18.1763 1.64583C18.0725 1.53472 17.9511 1.47916 17.8122 1.47916H2.18717C2.04829 1.47916 1.9269 1.53472 1.82301 1.64583C1.71856 1.75694 1.66634 1.87499 1.66634 1.99999V12C1.66634 12.125 1.71856 12.243 1.82301 12.3542C1.9269 12.4653 2.04829 12.5208 2.18717 12.5208H2.68717C3.27051 11.7569 3.97884 11.1494 4.81217 10.6983C5.64551 10.2467 6.54134 10.0208 7.49967 10.0208C8.45801 10.0208 9.35384 10.2467 10.1872 10.6983C11.0205 11.1494 11.7288 11.7569 12.3122 12.5208ZM7.49967 8.85416C8.08301 8.85416 8.57606 8.65277 8.97884 8.24999C9.38162 7.84722 9.58301 7.35416 9.58301 6.77083C9.58301 6.20138 9.38162 5.71166 8.97884 5.30166C8.57606 4.89222 8.08301 4.6875 7.49967 4.6875C6.91634 4.6875 6.42329 4.89222 6.02051 5.30166C5.61773 5.71166 5.41634 6.20138 5.41634 6.77083C5.41634 7.35416 5.61773 7.84722 6.02051 8.24999C6.42329 8.65277 6.91634 8.85416 7.49967 8.85416ZM11.833 6.33333H17.333V2.47916H11.833V6.33333ZM14.583 5.41666L12.5413 3.95833V3.20833L14.583 4.64583L16.6247 3.20833V3.95833L14.583 5.41666ZM3.79134 12.5208H11.208C10.7219 11.9931 10.1594 11.5833 9.52051 11.2917C8.88162 11 8.20801 10.8542 7.49967 10.8542C6.79134 10.8542 6.11773 11 5.47884 11.2917C4.83995 11.5833 4.27745 11.9931 3.79134 12.5208ZM7.49967 8.02083C7.15245 8.02083 6.85745 7.89916 6.61467 7.65583C6.37134 7.41305 6.24967 7.11805 6.24967 6.77083C6.24967 6.4375 6.37134 6.14583 6.61467 5.89583C6.85745 5.64583 7.15245 5.52083 7.49967 5.52083C7.8469 5.52083 8.1419 5.64583 8.38467 5.89583C8.62801 6.14583 8.74967 6.4375 8.74967 6.77083C8.74967 7.11805 8.62801 7.41305 8.38467 7.65583C8.1419 7.89916 7.8469 8.02083 7.49967 8.02083Z" fill="#4D5760"/>
</svg>
