<svg width="24" height="24" viewBox="0 0 24 24" fill="none" xmlns="http://www.w3.org/2000/svg">
    <path d="M12 22C17.5228 22 22 17.5228 22 12C22 6.47715 17.5228 2 12 2C6.47715 2 2 6.47715 2 12C2 17.5228 6.47715 22 12 22Z" fill="#8C9EFF"/>
    <path d="M17.4562 7.90773C17.4562 7.90773 15.8952 6.68429 14.0483 6.54366L13.8843 6.87648C15.553 7.28429 16.3171 7.87023 17.1187 8.58741C15.7405 7.88429 14.3765 7.22335 12.0046 7.22335C9.63272 7.22335 8.26865 7.88429 6.89053 8.58741C7.69209 7.87023 8.60147 7.21866 10.1249 6.87648L9.96084 6.54366C8.0249 6.72648 6.55303 7.90773 6.55303 7.90773C6.55303 7.90773 4.80928 10.439 4.50928 15.4077C6.26709 17.4374 8.93896 17.4515 8.93896 17.4515L9.49678 16.7062C8.5499 16.378 7.47647 15.7874 6.55303 14.7234C7.65459 15.5577 9.32334 16.4296 12.0093 16.4296C14.6952 16.4296 16.3593 15.5624 17.4655 14.7234C16.5421 15.7874 15.4687 16.378 14.5218 16.7062L15.0796 17.4515C15.0796 17.4515 17.7515 17.4374 19.5093 15.4077C19.1999 10.439 17.4562 7.90773 17.4562 7.90773ZM9.78271 14.0437C9.12178 14.0437 8.5874 13.4343 8.5874 12.6796C8.5874 11.9249 9.12178 11.3155 9.78271 11.3155C10.4437 11.3155 10.978 11.9249 10.978 12.6796C10.978 13.4343 10.4437 14.0437 9.78271 14.0437ZM14.2171 14.0437C13.5562 14.0437 13.0218 13.4343 13.0218 12.6796C13.0218 11.9249 13.5562 11.3155 14.2171 11.3155C14.878 11.3155 15.4124 11.9249 15.4124 12.6796C15.4124 13.4343 14.8733 14.0437 14.2171 14.0437Z" fill="white"/>
</svg>
