<svg width="24" height="24" viewBox="0 0 24 24" fill="none" xmlns="http://www.w3.org/2000/svg">
    <mask id="mask0_360_7246" style="mask-type:alpha" x="0" y="0" width="24" height="24">
        <rect width="24" height="24" fill="#C4C4C4"/>
    </mask>
    <g mask="url(#mask0_360_7246)">
        <path d="M9.00039 19.225C8.66706 19.225 8.37939 19.1043 8.13739 18.863C7.89606 18.621 7.77539 18.3333 7.77539 18C7.77539 17.6667 7.89606 17.379 8.13739 17.137C8.37939 16.8957 8.66706 16.775 9.00039 16.775C9.33372 16.775 9.62139 16.8957 9.86339 17.137C10.1047 17.379 10.2254 17.6667 10.2254 18C10.2254 18.3333 10.1047 18.621 9.86339 18.863C9.62139 19.1043 9.33372 19.225 9.00039 19.225ZM9.00039 13.225C8.66706 13.225 8.37939 13.1043 8.13739 12.863C7.89606 12.621 7.77539 12.3333 7.77539 12C7.77539 11.6667 7.89606 11.379 8.13739 11.137C8.37939 10.8957 8.66706 10.775 9.00039 10.775C9.33372 10.775 9.62139 10.8957 9.86339 11.137C10.1047 11.379 10.2254 11.6667 10.2254 12C10.2254 12.3333 10.1047 12.621 9.86339 12.863C9.62139 13.1043 9.33372 13.225 9.00039 13.225ZM9.00039 7.22499C8.66706 7.22499 8.37939 7.10399 8.13739 6.86199C7.89606 6.62066 7.77539 6.33333 7.77539 5.99999C7.77539 5.66666 7.89606 5.37899 8.13739 5.13699C8.37939 4.89566 8.66706 4.77499 9.00039 4.77499C9.33372 4.77499 9.62139 4.89566 9.86339 5.13699C10.1047 5.37899 10.2254 5.66666 10.2254 5.99999C10.2254 6.33333 10.1047 6.62066 9.86339 6.86199C9.62139 7.10399 9.33372 7.22499 9.00039 7.22499ZM15.0004 7.22499C14.6671 7.22499 14.3794 7.10399 14.1374 6.86199C13.8961 6.62066 13.7754 6.33333 13.7754 5.99999C13.7754 5.66666 13.8961 5.37899 14.1374 5.13699C14.3794 4.89566 14.6671 4.77499 15.0004 4.77499C15.3337 4.77499 15.6214 4.89566 15.8634 5.13699C16.1047 5.37899 16.2254 5.66666 16.2254 5.99999C16.2254 6.33333 16.1047 6.62066 15.8634 6.86199C15.6214 7.10399 15.3337 7.22499 15.0004 7.22499ZM15.0004 13.225C14.6671 13.225 14.3794 13.1043 14.1374 12.863C13.8961 12.621 13.7754 12.3333 13.7754 12C13.7754 11.6667 13.8961 11.379 14.1374 11.137C14.3794 10.8957 14.6671 10.775 15.0004 10.775C15.3337 10.775 15.6214 10.8957 15.8634 11.137C16.1047 11.379 16.2254 11.6667 16.2254 12C16.2254 12.3333 16.1047 12.621 15.8634 12.863C15.6214 13.1043 15.3337 13.225 15.0004 13.225ZM15.0004 19.225C14.6671 19.225 14.3794 19.1043 14.1374 18.863C13.8961 18.621 13.7754 18.3333 13.7754 18C13.7754 17.6667 13.8961 17.379 14.1374 17.137C14.3794 16.8957 14.6671 16.775 15.0004 16.775C15.3337 16.775 15.6214 16.8957 15.8634 17.137C16.1047 17.379 16.2254 17.6667 16.2254 18C16.2254 18.3333 16.1047 18.621 15.8634 18.863C15.6214 19.1043 15.3337 19.225 15.0004 19.225Z" fill="#131316"/>
    </g>
</svg>
