<svg width="21" height="20" viewBox="0 0 21 20" fill="none" xmlns="http://www.w3.org/2000/svg">
<mask id="mask0_9_18466" style="mask-type:alpha" maskUnits="userSpaceOnUse" x="0" y="0" width="21" height="20">
<rect x="0.166992" width="20" height="20" fill="#C4C4C4"/>
</mask>
<g mask="url(#mask0_9_18466)">
<path d="M4.58358 15.8333H5.47941L14.1461 7.16668L13.7086 6.70834L13.2502 6.27084L4.58358 14.9375V15.8333ZM3.75024 16.6667V14.5833L14.4586 3.89584C14.6114 3.72918 14.8058 3.64584 15.0419 3.64584C15.278 3.64584 15.4794 3.72918 15.6461 3.89584L16.5211 4.79168C16.6877 4.95834 16.7711 5.1564 16.7711 5.38584C16.7711 5.61473 16.6877 5.81251 16.5211 5.97918L5.83358 16.6667H3.75024ZM14.1461 7.16668L13.7086 6.70834L13.2502 6.27084L14.1461 7.16668Z" fill="#4D5760"/>
</g>
</svg>
