<svg width="20" height="20" viewBox="0 0 20 20" fill="none" xmlns="http://www.w3.org/2000/svg">
<mask id="mask0_175_11685" style="mask-type:alpha" maskUnits="userSpaceOnUse" x="0" y="0" width="20" height="20">
<rect width="20" height="20" fill="#C4C4C4"/>
</mask>
<g mask="url(#mask0_175_11685)">
<path d="M10 17.5C8.97222 17.5 8 17.3022 7.08333 16.9067C6.16667 16.5106 5.37167 15.9756 4.69833 15.3017C4.02444 14.6283 3.48944 13.8333 3.09333 12.9167C2.69778 12 2.5 11.0278 2.5 10C2.5 8.95833 2.69778 7.9825 3.09333 7.0725C3.48944 6.16306 4.02444 5.37139 4.69833 4.6975C5.37167 4.02417 6.16667 3.48944 7.08333 3.09333C8 2.69778 8.97222 2.5 10 2.5C11.0417 2.5 12.0175 2.69778 12.9275 3.09333C13.8369 3.48944 14.6286 4.02417 15.3025 4.6975C15.9758 5.37139 16.5106 6.16306 16.9067 7.0725C17.3022 7.9825 17.5 8.95833 17.5 10C17.5 11.0278 17.3022 12 16.9067 12.9167C16.5106 13.8333 15.9758 14.6283 15.3025 15.3017C14.6286 15.9756 13.8369 16.5106 12.9275 16.9067C12.0175 17.3022 11.0417 17.5 10 17.5ZM12.8333 7.20833H16.0417C15.5556 6.15278 14.8853 5.30556 14.0308 4.66667C13.1769 4.02778 12.1875 3.61806 11.0625 3.4375C11.4514 3.95139 11.8022 4.53833 12.115 5.19833C12.4272 5.85778 12.6667 6.52778 12.8333 7.20833ZM8.02083 7.20833H11.9792C11.7569 6.43056 11.4861 5.72556 11.1667 5.09333C10.8472 4.46167 10.4583 3.875 10 3.33333C9.54167 3.875 9.15278 4.46167 8.83333 5.09333C8.51389 5.72556 8.24306 6.43056 8.02083 7.20833ZM3.625 11.9583H6.97917C6.92361 11.6111 6.88194 11.2778 6.85417 10.9583C6.82639 10.6389 6.8125 10.3194 6.8125 10C6.8125 9.68056 6.82639 9.36111 6.85417 9.04167C6.88194 8.72222 6.92361 8.38889 6.97917 8.04167H3.625C3.52778 8.33333 3.455 8.64917 3.40667 8.98917C3.35778 9.32972 3.33333 9.66667 3.33333 10C3.33333 10.3333 3.35778 10.67 3.40667 11.01C3.455 11.3506 3.52778 11.6667 3.625 11.9583ZM8.9375 16.5417C8.54861 16.0833 8.19444 15.5172 7.875 14.8433C7.55556 14.17 7.31944 13.4861 7.16667 12.7917H3.95833C4.44444 13.8194 5.125 14.6667 6 15.3333C6.875 16 7.85417 16.4028 8.9375 16.5417ZM3.95833 7.20833H7.16667C7.33333 6.52778 7.57306 5.85778 7.88583 5.19833C8.19806 4.53833 8.54861 3.95139 8.9375 3.4375C7.79861 3.61806 6.80556 4.03111 5.95833 4.67667C5.11111 5.32278 4.44444 6.16667 3.95833 7.20833ZM10 16.6667C10.4861 16.0417 10.8889 15.4272 11.2083 14.8233C11.5278 14.2189 11.7847 13.5417 11.9792 12.7917H8.02083C8.24306 13.5833 8.50694 14.2811 8.8125 14.885C9.11806 15.4894 9.51389 16.0833 10 16.6667ZM7.8125 11.9583H12.1875C12.2431 11.6111 12.2847 11.2811 12.3125 10.9683C12.3403 10.6561 12.3542 10.3333 12.3542 10C12.3542 9.66667 12.3403 9.34361 12.3125 9.03083C12.2847 8.71861 12.2431 8.38889 12.1875 8.04167H7.8125C7.75694 8.38889 7.71528 8.71861 7.6875 9.03083C7.65972 9.34361 7.64583 9.66667 7.64583 10C7.64583 10.3333 7.65972 10.6561 7.6875 10.9683C7.71528 11.2811 7.75694 11.6111 7.8125 11.9583ZM11.0625 16.5417C12.1458 16.4028 13.125 16 14 15.3333C14.875 14.6667 15.5556 13.8194 16.0417 12.7917H12.8333C12.625 13.5 12.3611 14.1908 12.0417 14.8642C11.7222 15.5381 11.3958 16.0972 11.0625 16.5417ZM13.0208 11.9583H16.375C16.4722 11.6667 16.5453 11.3506 16.5942 11.01C16.6425 10.67 16.6667 10.3333 16.6667 10C16.6667 9.66667 16.6425 9.32972 16.5942 8.98917C16.5453 8.64917 16.4722 8.33333 16.375 8.04167H13.0208C13.0764 8.38889 13.1181 8.72222 13.1458 9.04167C13.1736 9.36111 13.1875 9.68056 13.1875 10C13.1875 10.3194 13.1736 10.6389 13.1458 10.9583C13.1181 11.2778 13.0764 11.6111 13.0208 11.9583Z" fill="#4D5760"/>
</g>
</svg>
