<svg width="20" height="20" viewBox="0 0 20 20" fill="none" xmlns="http://www.w3.org/2000/svg">
    <path d="M17.5099 10.3283C17.5099 9.69833 17.4582 9.23916 17.3474 8.7625H10.1582V11.6042H14.3782C14.2932 12.3108 13.8332 13.3742 12.8124 14.0892L12.7982 14.1842L15.0715 15.945L15.229 15.9617C16.6757 14.625 17.5099 12.66 17.5099 10.3283Z" fill="#4285F4"/>
    <path d="M10.1581 17.8158C12.2256 17.8158 13.9614 17.135 15.2297 15.9608L12.8131 14.0892C12.1664 14.5392 11.2981 14.855 10.1581 14.855C8.13307 14.855 6.41391 13.5192 5.80141 11.6717L5.71141 11.68L3.34807 13.5092L3.31641 13.595C3.95304 14.8639 4.93012 15.9307 6.13836 16.6761C7.34661 17.4216 8.73839 17.8162 10.1581 17.8158Z" fill="#34A853"/>
    <path d="M5.80167 11.6725C5.63422 11.1851 5.54779 10.6736 5.54583 10.1583C5.54583 9.63083 5.64 9.12 5.7925 8.64333L5.78833 8.5425L3.395 6.68333L3.31667 6.72083C2.78047 7.78744 2.50082 8.96454 2.5 10.1583C2.5 11.3917 2.7975 12.5583 3.31667 13.5958L5.80167 11.6725Z" fill="#FBBC05"/>
    <path d="M10.1581 5.46083C11.5956 5.46083 12.5664 6.0825 13.1189 6.60167L15.2806 4.49083C13.9531 3.25833 12.2247 2.5 10.1581 2.5C8.73848 2.4996 7.34676 2.89408 6.13852 3.63933C4.93028 4.38458 3.95316 5.45123 3.31641 6.72L5.79307 8.64333C6.41391 6.79667 8.13307 5.46083 10.1581 5.46083Z" fill="#EB4335"/>
</svg>
