<svg width="14" height="14" viewBox="0 0 14 14" fill="none" xmlns="http://www.w3.org/2000/svg">
<path d="M3.72884 13.6667H1.68717C1.29829 13.6667 0.975508 13.5383 0.718841 13.2817C0.461619 13.0244 0.333008 12.7014 0.333008 12.3125V6.99999C0.333008 6.06944 0.506619 5.20138 0.853841 4.39583C1.20106 3.59027 1.6769 2.88555 2.28134 2.28166C2.88523 1.67722 3.58995 1.20138 4.39551 0.854162C5.20106 0.506939 6.06912 0.333328 6.99967 0.333328C7.93023 0.333328 8.79829 0.506939 9.60384 0.854162C10.4094 1.20138 11.1144 1.67722 11.7188 2.28166C12.3227 2.88555 12.7983 3.59027 13.1455 4.39583C13.4927 5.20138 13.6663 6.06944 13.6663 6.99999V12.3125C13.6663 12.7014 13.538 13.0244 13.2813 13.2817C13.0241 13.5383 12.7011 13.6667 12.3122 13.6667H10.2705V8.54166H12.833V6.99999C12.833 5.37499 12.2669 3.99638 11.1347 2.86416C10.003 1.73249 8.62467 1.16666 6.99967 1.16666C5.37467 1.16666 3.99634 1.73249 2.86467 2.86416C1.73245 3.99638 1.16634 5.37499 1.16634 6.99999V8.54166H3.72884V13.6667ZM2.89551 9.375H1.16634V12.3125C1.16634 12.4514 1.21856 12.5728 1.32301 12.6767C1.4269 12.7811 1.54829 12.8333 1.68717 12.8333H2.89551V9.375ZM11.1038 9.375V12.8333H12.3122C12.4511 12.8333 12.5725 12.7811 12.6763 12.6767C12.7808 12.5728 12.833 12.4514 12.833 12.3125V9.375H11.1038ZM11.1038 9.375H12.833C12.833 9.375 12.7808 9.375 12.6763 9.375C12.5725 9.375 12.4511 9.375 12.3122 9.375H11.1038ZM2.89551 9.375H1.68717C1.54829 9.375 1.4269 9.375 1.32301 9.375C1.21856 9.375 1.16634 9.375 1.16634 9.375H2.89551Z" fill="#4D5760"/>
</svg>
