<svg width="20" height="20" viewBox="0 0 20 20" fill="none" xmlns="http://www.w3.org/2000/svg">
    <path d="M2.54147 2.80071C1.23174 4.16112 1.4998 5.60626 1.4998 9.99654C1.4998 13.6424 0.863688 17.2972 4.19285 18.1577C5.23244 18.425 14.4435 18.425 15.4817 18.1563C16.8679 17.7986 17.9956 16.6743 18.1498 14.7139C18.1713 14.4403 18.1713 5.55765 18.1491 5.27849C17.9852 3.19029 16.6998 1.98682 15.006 1.74307C14.6179 1.68682 14.5401 1.67015 12.5484 1.66668C5.48383 1.67015 3.93522 1.35557 2.54147 2.80071Z" fill="url(#paint0_linear_108_3635)"/>
    <path d="M9.83203 3.84648C7.3105 3.84648 4.91606 3.62218 4.00148 5.9694C3.6237 6.93885 3.67856 8.19787 3.67856 10.0007C3.67856 11.5826 3.62787 13.0694 4.00148 14.0312C4.91398 16.3798 7.32787 16.1548 9.83064 16.1548C12.2452 16.1548 14.7348 16.4062 15.6605 14.0312C16.039 13.052 15.9834 11.8118 15.9834 10.0007C15.9834 7.59649 16.1161 6.0444 14.9501 4.87912C13.7695 3.69857 12.173 3.84648 9.82925 3.84648H9.83203ZM9.28064 4.95551C14.5404 4.94718 15.2098 4.36246 14.8404 12.4854C14.7091 15.3583 12.5216 15.043 9.83273 15.043C4.92995 15.043 4.78898 14.9027 4.78898 9.99787C4.78898 5.03607 5.17787 4.95829 9.28064 4.95412V4.95551ZM13.1168 5.97704C12.7091 5.97704 12.3786 6.3076 12.3786 6.71523C12.3786 7.12287 12.7091 7.45343 13.1168 7.45343C13.5244 7.45343 13.8549 7.12287 13.8549 6.71523C13.8549 6.3076 13.5244 5.97704 13.1168 5.97704ZM9.83203 6.84023C8.08689 6.84023 6.67231 8.25551 6.67231 10.0007C6.67231 11.7458 8.08689 13.1604 9.83203 13.1604C11.5772 13.1604 12.9911 11.7458 12.9911 10.0007C12.9911 8.25551 11.5772 6.84023 9.83203 6.84023ZM9.83203 7.94926C12.5438 7.94926 12.5473 12.052 9.83203 12.052C7.12092 12.052 7.11675 7.94926 9.83203 7.94926Z" fill="white"/>
    <defs>
        <linearGradient id="paint0_linear_108_3635" x1="2.57342" y1="17.2688" x2="18.0633" y2="3.8625" gradientUnits="userSpaceOnUse">
            <stop stop-color="#FFDD55"/>
            <stop offset="0.5" stop-color="#FF543E"/>
            <stop offset="1" stop-color="#C837AB"/>
        </linearGradient>
    </defs>
</svg>
