<svg width="20" height="20" viewBox="0 0 20 20" fill="none" xmlns="http://www.w3.org/2000/svg">
<mask id="mask0_10_72846" style="mask-type:alpha" maskUnits="userSpaceOnUse" x="0" y="0" width="20" height="20">
<rect width="20" height="20" fill="#C4C4C4"/>
</mask>
<g mask="url(#mask0_10_72846)">
<path d="M4.99935 6.02083C4.72157 6.02083 4.48213 5.92 4.28102 5.71833C4.07935 5.51722 3.97852 5.27778 3.97852 5C3.97852 4.72222 4.07935 4.4825 4.28102 4.28083C4.48213 4.07972 4.72157 3.97916 4.99935 3.97916C5.27713 3.97916 5.51685 4.07972 5.71852 4.28083C5.91963 4.4825 6.02018 4.72222 6.02018 5C6.02018 5.27778 5.91963 5.51722 5.71852 5.71833C5.51685 5.92 5.27713 6.02083 4.99935 6.02083ZM9.99935 16.0208C9.72157 16.0208 9.48185 15.9203 9.28018 15.7192C9.07907 15.5175 8.97852 15.2778 8.97852 15C8.97852 14.7222 9.07907 14.4825 9.28018 14.2808C9.48185 14.0797 9.72157 13.9792 9.99935 13.9792C10.2771 13.9792 10.5168 14.0797 10.7185 14.2808C10.9196 14.4825 11.0202 14.7222 11.0202 15C11.0202 15.2778 10.9196 15.5175 10.7185 15.7192C10.5168 15.9203 10.2771 16.0208 9.99935 16.0208ZM4.99935 16.0208C4.72157 16.0208 4.48213 15.9203 4.28102 15.7192C4.07935 15.5175 3.97852 15.2778 3.97852 15C3.97852 14.7222 4.07935 14.4825 4.28102 14.2808C4.48213 14.0797 4.72157 13.9792 4.99935 13.9792C5.27713 13.9792 5.51685 14.0797 5.71852 14.2808C5.91963 14.4825 6.02018 14.7222 6.02018 15C6.02018 15.2778 5.91963 15.5175 5.71852 15.7192C5.51685 15.9203 5.27713 16.0208 4.99935 16.0208ZM4.99935 11.0208C4.72157 11.0208 4.48213 10.9203 4.28102 10.7192C4.07935 10.5175 3.97852 10.2778 3.97852 10C3.97852 9.72222 4.07935 9.4825 4.28102 9.28083C4.48213 9.07972 4.72157 8.97916 4.99935 8.97916C5.27713 8.97916 5.51685 9.07972 5.71852 9.28083C5.91963 9.4825 6.02018 9.72222 6.02018 10C6.02018 10.2778 5.91963 10.5175 5.71852 10.7192C5.51685 10.9203 5.27713 11.0208 4.99935 11.0208ZM9.99935 11.0208C9.72157 11.0208 9.48185 10.9203 9.28018 10.7192C9.07907 10.5175 8.97852 10.2778 8.97852 10C8.97852 9.72222 9.07907 9.4825 9.28018 9.28083C9.48185 9.07972 9.72157 8.97916 9.99935 8.97916C10.2771 8.97916 10.5168 9.07972 10.7185 9.28083C10.9196 9.4825 11.0202 9.72222 11.0202 10C11.0202 10.2778 10.9196 10.5175 10.7185 10.7192C10.5168 10.9203 10.2771 11.0208 9.99935 11.0208ZM14.9993 6.02083C14.7216 6.02083 14.4821 5.92 14.281 5.71833C14.0793 5.51722 13.9785 5.27778 13.9785 5C13.9785 4.72222 14.0793 4.4825 14.281 4.28083C14.4821 4.07972 14.7216 3.97916 14.9993 3.97916C15.2771 3.97916 15.5168 4.07972 15.7185 4.28083C15.9196 4.4825 16.0202 4.72222 16.0202 5C16.0202 5.27778 15.9196 5.51722 15.7185 5.71833C15.5168 5.92 15.2771 6.02083 14.9993 6.02083ZM9.99935 6.02083C9.72157 6.02083 9.48185 5.92 9.28018 5.71833C9.07907 5.51722 8.97852 5.27778 8.97852 5C8.97852 4.72222 9.07907 4.4825 9.28018 4.28083C9.48185 4.07972 9.72157 3.97916 9.99935 3.97916C10.2771 3.97916 10.5168 4.07972 10.7185 4.28083C10.9196 4.4825 11.0202 4.72222 11.0202 5C11.0202 5.27778 10.9196 5.51722 10.7185 5.71833C10.5168 5.92 10.2771 6.02083 9.99935 6.02083ZM14.9993 11.0208C14.7216 11.0208 14.4821 10.9203 14.281 10.7192C14.0793 10.5175 13.9785 10.2778 13.9785 10C13.9785 9.72222 14.0793 9.4825 14.281 9.28083C14.4821 9.07972 14.7216 8.97916 14.9993 8.97916C15.2771 8.97916 15.5168 9.07972 15.7185 9.28083C15.9196 9.4825 16.0202 9.72222 16.0202 10C16.0202 10.2778 15.9196 10.5175 15.7185 10.7192C15.5168 10.9203 15.2771 11.0208 14.9993 11.0208ZM14.9993 16.0208C14.7216 16.0208 14.4821 15.9203 14.281 15.7192C14.0793 15.5175 13.9785 15.2778 13.9785 15C13.9785 14.7222 14.0793 14.4825 14.281 14.2808C14.4821 14.0797 14.7216 13.9792 14.9993 13.9792C15.2771 13.9792 15.5168 14.0797 15.7185 14.2808C15.9196 14.4825 16.0202 14.7222 16.0202 15C16.0202 15.2778 15.9196 15.5175 15.7185 15.7192C15.5168 15.9203 15.2771 16.0208 14.9993 16.0208Z" fill="#4D5760"/>
</g>
</svg>
