<svg width="20" height="20" viewBox="0 0 20 20" fill="none" xmlns="http://www.w3.org/2000/svg">
<mask id="mask0_175_11758" style="mask-type:alpha" maskUnits="userSpaceOnUse" x="0" y="0" width="20" height="20">
<rect width="20" height="20" fill="#C4C4C4"/>
</mask>
<g mask="url(#mask0_175_11758)">
<path d="M15 18.3333V15.8333H12.5V15H15V12.5H15.8334V15H18.3334V15.8333H15.8334V18.3333H15ZM2.68752 16.25V11.25H1.66669V10.4167L2.62502 6.25H14.0417L15 10.4167V11.25H13.9792V13.9792H13.1459V11.25H9.35419V16.25H2.68752ZM3.52085 15.4167H8.52085V11.25H3.52085V15.4167ZM2.62502 4.58333V3.75H14.0417V4.58333H2.62502ZM2.50002 10.4167H14.1667L13.375 7.08333H3.29169L2.50002 10.4167Z" fill="#4D5760"/>
</g>
</svg>
