<svg width="20" height="20" viewBox="0 0 20 20" fill="none" xmlns="http://www.w3.org/2000/svg">
<mask id="mask0_10_72872" style="mask-type:alpha" maskUnits="userSpaceOnUse" x="0" y="0" width="20" height="20">
<rect width="20" height="20" fill="#D9D9D9"/>
</mask>
<g mask="url(#mask0_10_72872)">
<path d="M10.0007 17.625C9.61176 17.625 9.27843 17.4967 9.00065 17.24C8.72287 16.9828 8.55621 16.6667 8.50065 16.2917H11.5007C11.4451 16.6667 11.2784 16.9828 11.0007 17.24C10.7229 17.4967 10.3895 17.625 10.0007 17.625ZM7.08398 14.8125V13.9792H12.9173V14.8125H7.08398ZM7.12565 12.5C6.34787 11.9861 5.72982 11.3333 5.27148 10.5417C4.81315 9.75 4.58398 8.875 4.58398 7.91667C4.58398 6.40278 5.10843 5.12139 6.15732 4.0725C7.20565 3.02417 8.48676 2.5 10.0007 2.5C11.5145 2.5 12.7959 3.02417 13.8448 4.0725C14.8932 5.12139 15.4173 6.40278 15.4173 7.91667C15.4173 8.875 15.1882 9.75 14.7298 10.5417C14.2715 11.3333 13.6534 11.9861 12.8757 12.5H7.12565ZM7.37565 11.6667H12.6257C13.2507 11.2222 13.7334 10.6736 14.074 10.0208C14.414 9.36805 14.584 8.66667 14.584 7.91667C14.584 6.63889 14.1395 5.55556 13.2507 4.66667C12.3618 3.77778 11.2784 3.33333 10.0007 3.33333C8.72287 3.33333 7.63954 3.77778 6.75065 4.66667C5.86176 5.55556 5.41732 6.63889 5.41732 7.91667C5.41732 8.66667 5.5876 9.36805 5.92815 10.0208C6.26815 10.6736 6.75065 11.2222 7.37565 11.6667Z" fill="#4D5760"/>
</g>
</svg>
