<svg width="12" height="16" viewBox="0 0 12 16" fill="none" xmlns="http://www.w3.org/2000/svg">
    <path d="M6.00008 0.5C6.93064 0.5 7.71897 0.822778 8.36508 1.46833C9.01064 2.11444 9.33341 2.90278 9.33341 3.83333V5.5H10.4792C10.8542 5.5 11.1737 5.63194 11.4376 5.89583C11.7015 6.15972 11.8334 6.47917 11.8334 6.85417V14.1458C11.8334 14.5208 11.7015 14.8403 11.4376 15.1042C11.1737 15.3681 10.8542 15.5 10.4792 15.5H1.52091C1.14591 15.5 0.82647 15.3681 0.562581 15.1042C0.298692 14.8403 0.166748 14.5208 0.166748 14.1458V6.85417C0.166748 6.47917 0.298692 6.15972 0.562581 5.89583C0.82647 5.63194 1.14591 5.5 1.52091 5.5H2.66675V3.83333C2.66675 2.90278 2.9898 2.11444 3.63591 1.46833C4.28147 0.822778 5.06953 0.5 6.00008 0.5ZM6.00008 1.33333C5.30564 1.33333 4.71536 1.57639 4.22925 2.0625C3.74314 2.54861 3.50008 3.13889 3.50008 3.83333V5.5H8.50008V3.83333C8.50008 3.13889 8.25703 2.54861 7.77091 2.0625C7.2848 1.57639 6.69453 1.33333 6.00008 1.33333ZM1.52091 14.6667H10.4792C10.632 14.6667 10.757 14.6181 10.8542 14.5208C10.9515 14.4236 11.0001 14.2986 11.0001 14.1458V6.85417C11.0001 6.70139 10.9515 6.57639 10.8542 6.47917C10.757 6.38194 10.632 6.33333 10.4792 6.33333H1.52091C1.36814 6.33333 1.24314 6.38194 1.14591 6.47917C1.04869 6.57639 1.00008 6.70139 1.00008 6.85417V14.1458C1.00008 14.2986 1.04869 14.4236 1.14591 14.5208C1.24314 14.6181 1.36814 14.6667 1.52091 14.6667ZM6.00008 9.25C5.65286 9.25 5.35786 9.37167 5.11508 9.615C4.87175 9.85778 4.75008 10.1528 4.75008 10.5C4.75008 10.8472 4.87175 11.1422 5.11508 11.385C5.35786 11.6283 5.65286 11.75 6.00008 11.75C6.3473 11.75 6.6423 11.6283 6.88508 11.385C7.12841 11.1422 7.25008 10.8472 7.25008 10.5C7.25008 10.1528 7.12841 9.85778 6.88508 9.615C6.6423 9.37167 6.3473 9.25 6.00008 9.25Z" fill="#4D5760"/>
</svg>

