<svg width="20" height="20" viewBox="0 0 20 20" fill="none" xmlns="http://www.w3.org/2000/svg">
<mask id="mask0_175_11750" style="mask-type:alpha" maskUnits="userSpaceOnUse" x="0" y="0" width="20" height="20">
<rect width="20" height="20" fill="#C4C4C4"/>
</mask>
<g mask="url(#mask0_175_11750)">
<path d="M12.3958 15C11.9097 15 11.4964 14.8264 11.1558 14.4792C10.8158 14.1319 10.6458 13.7153 10.6458 13.2292C10.6458 12.7431 10.8158 12.3297 11.1558 11.9892C11.4964 11.6492 11.9097 11.4792 12.3958 11.4792C12.8819 11.4792 13.2986 11.6492 13.6458 11.9892C13.993 12.3297 14.1666 12.7431 14.1666 13.2292C14.1666 13.7153 13.993 14.1319 13.6458 14.4792C13.2986 14.8264 12.8819 15 12.3958 15ZM4.68748 17.5C4.29859 17.5 3.97581 17.3717 3.71915 17.115C3.46192 16.8578 3.33331 16.5347 3.33331 16.1458V5.52083C3.33331 5.13194 3.46192 4.80917 3.71915 4.5525C3.97581 4.29528 4.29859 4.16667 4.68748 4.16667H6.14581V2.3125H7.04165V4.16667H13.0208V2.3125H13.8541V4.16667H15.3125C15.7014 4.16667 16.0244 4.29528 16.2816 4.5525C16.5383 4.80917 16.6666 5.13194 16.6666 5.52083V16.1458C16.6666 16.5347 16.5383 16.8578 16.2816 17.115C16.0244 17.3717 15.7014 17.5 15.3125 17.5H4.68748ZM4.68748 16.6667H15.3125C15.4514 16.6667 15.5728 16.6144 15.6766 16.51C15.7811 16.4061 15.8333 16.2847 15.8333 16.1458V8.85417H4.16665V16.1458C4.16665 16.2847 4.21887 16.4061 4.32331 16.51C4.4272 16.6144 4.54859 16.6667 4.68748 16.6667ZM4.16665 8.02083H15.8333V5.52083C15.8333 5.38194 15.7811 5.26056 15.6766 5.15667C15.5728 5.05222 15.4514 5 15.3125 5H4.68748C4.54859 5 4.4272 5.05222 4.32331 5.15667C4.21887 5.26056 4.16665 5.38194 4.16665 5.52083V8.02083Z" fill="#4D5760"/>
</g>
</svg>
