<svg width="36" height="24" viewBox="0 0 36 24" fill="none" xmlns="http://www.w3.org/2000/svg">
    <path d="M20.7235 11.5385C20.7235 16.1144 17.0141 19.8231 12.4384 19.8231C7.86278 19.8231 4.15381 16.1142 4.15381 11.5385C4.15381 6.96315 7.86282 3.25391 12.4384 3.25391C17.014 3.25391 20.7235 6.96334 20.7235 11.5385Z" fill="#D9222A"/>
    <path d="M23.5611 3.25366C21.4205 3.25366 19.4699 4.06578 17.9995 5.39829C17.7 5.67009 17.4204 5.96308 17.163 6.27503H18.8369C19.066 6.55366 19.277 6.84674 19.4685 7.15251H16.5315C16.3548 7.43506 16.1954 7.728 16.0542 8.0298H19.9455C20.0791 8.31526 20.1962 8.60811 20.2963 8.90691H15.7034C15.607 9.19463 15.5266 9.48752 15.4626 9.7842H20.5368C20.6609 10.3607 20.7235 10.9487 20.7234 11.5384C20.7234 12.4585 20.5732 13.3436 20.2962 14.1702H15.7033C15.8032 14.4691 15.9203 14.762 16.0539 15.0474H19.9454C19.8041 15.3493 19.6446 15.6423 19.4679 15.925H16.5313C16.7227 16.2305 16.9338 16.5234 17.163 16.8017H18.8364C18.5794 17.1143 18.2997 17.4076 17.9997 17.6792C19.47 19.0115 21.4205 19.8233 23.5612 19.8233C28.1369 19.8233 31.8463 16.1143 31.8463 11.5386C31.8463 6.96346 28.1369 3.25403 23.5612 3.25403" fill="#EE9F2D"/>
    <path d="M30.7416 16.1566C30.7416 16.009 30.8612 15.8889 31.0091 15.8889C31.157 15.8889 31.2766 16.009 31.2766 16.1566C31.2766 16.3043 31.157 16.4244 31.0091 16.4244C30.8612 16.4244 30.7416 16.3043 30.7416 16.1566ZM31.0091 16.3601C31.1215 16.36 31.2125 16.269 31.2126 16.1566C31.2126 16.0444 31.1216 15.9535 31.0094 15.9534H31.0091C30.897 15.9532 30.806 16.044 30.8059 16.156V16.1567C30.8058 16.269 30.8967 16.36 31.0089 16.3601C31.009 16.3601 31.0091 16.3601 31.0091 16.3601ZM30.973 16.2742H30.9182V16.039H31.0174C31.0382 16.039 31.0593 16.039 31.0776 16.0508C31.0967 16.0636 31.1074 16.0864 31.1074 16.1098C31.1074 16.1362 31.0918 16.1608 31.0666 16.1704L31.1099 16.2742H31.0492L31.0133 16.1811H30.9731L30.973 16.2742ZM30.973 16.1409H31.0034C31.0147 16.1409 31.0267 16.1418 31.0369 16.1362C31.0459 16.1305 31.0505 16.1197 31.0505 16.1093C31.0503 16.0996 31.0454 16.0907 31.0372 16.0854C31.0277 16.0794 31.0125 16.0807 31.0022 16.0807H30.973V16.1409ZM10.5038 12.4456C10.4093 12.4347 10.3678 12.4318 10.303 12.4318C9.79319 12.4318 9.53509 12.6065 9.53509 12.9518C9.53509 13.1646 9.66105 13.3 9.85757 13.3C10.224 13.3 10.488 12.9512 10.5038 12.4456ZM11.1578 13.9685H10.4126L10.4297 13.6143C10.2024 13.8942 9.89916 14.0273 9.487 14.0273C8.99948 14.0273 8.66528 13.6465 8.66528 13.0936C8.66528 12.2618 9.24663 11.7764 10.2445 11.7764C10.3464 11.7764 10.4772 11.7856 10.611 11.8027C10.6389 11.69 10.6462 11.6417 10.6462 11.5811C10.6462 11.3546 10.4895 11.2702 10.0693 11.2702C9.62934 11.2652 9.26643 11.375 9.1174 11.424C9.12682 11.3673 9.24202 10.6551 9.24202 10.6551C9.69026 10.5238 9.98583 10.4743 10.3186 10.4743C11.0908 10.4743 11.4999 10.8211 11.4991 11.4764C11.5006 11.652 11.4716 11.8687 11.4262 12.1535C11.3482 12.649 11.1807 13.7099 11.1578 13.9685ZM8.28899 13.9685H7.38959L7.90476 10.7379L6.75437 13.9685H6.1415L6.06571 10.7564L5.52419 13.9685H4.68225L5.3855 9.76596H6.67877L6.75723 12.1183L7.5461 9.76596H8.98457L8.28899 13.9685ZM24.6722 12.4456C24.5782 12.4347 24.5365 12.4318 24.4718 12.4318C23.9622 12.4318 23.7041 12.6065 23.7041 12.9518C23.7041 13.1646 23.8299 13.3 24.0264 13.3C24.3928 13.3 24.657 12.9512 24.6722 12.4456ZM25.3269 13.9685H24.5817L24.5985 13.6143C24.3712 13.8942 24.0678 14.0273 23.656 14.0273C23.1684 14.0273 22.8345 13.6465 22.8345 13.0936C22.8345 12.2618 23.4154 11.7764 24.4135 11.7764C24.5154 11.7764 24.646 11.7856 24.7797 11.8027C24.8076 11.69 24.8149 11.6417 24.8149 11.5811C24.8149 11.3546 24.6584 11.2702 24.2382 11.2702C23.7982 11.2652 23.4357 11.375 23.2861 11.424C23.2955 11.3673 23.4111 10.6551 23.4111 10.6551C23.8593 10.5238 24.1547 10.4743 24.4871 10.4743C25.2597 10.4743 25.6688 10.8211 25.668 11.4764C25.6695 11.652 25.6405 11.8687 25.5951 12.1535C25.5174 12.649 25.3496 13.7099 25.3269 13.9685ZM15.155 13.9166C14.9089 13.9941 14.717 14.0273 14.5089 14.0273C14.0491 14.0273 13.7981 13.7631 13.7981 13.2765C13.7916 13.1255 13.8643 12.7282 13.9214 12.3656C13.9733 12.0463 14.3114 10.0335 14.3114 10.0335H15.2054L15.101 10.5508H15.6409L15.519 11.3721H14.977C14.8732 12.0221 14.7253 12.8317 14.7236 12.939C14.7236 13.1152 14.8176 13.1921 15.0315 13.1921C15.134 13.1921 15.2134 13.1816 15.274 13.1598L15.155 13.9166ZM17.8962 13.8889C17.5891 13.9828 17.2927 14.0282 16.9787 14.0274C15.9779 14.0264 15.4562 13.5037 15.4562 12.5028C15.4562 11.3345 16.1199 10.4745 17.0208 10.4745C17.7579 10.4745 18.2287 10.956 18.2287 11.7112C18.2287 11.9618 18.1964 12.2064 18.1185 12.5518H16.3381C16.2779 13.0475 16.5952 13.2541 17.1152 13.2541C17.4353 13.2541 17.7239 13.1882 18.0448 13.0389L17.8962 13.8889ZM17.3937 11.8628C17.3986 11.7916 17.4885 11.2528 16.9777 11.2528C16.6929 11.2528 16.4892 11.4699 16.4063 11.8628H17.3937ZM11.6974 11.6312C11.6974 12.0635 11.907 12.3616 12.3824 12.5855C12.7466 12.7567 12.8029 12.8075 12.8029 12.9626C12.8029 13.1757 12.6424 13.2718 12.2864 13.2718C12.0181 13.2718 11.7685 13.2299 11.4807 13.137C11.4807 13.137 11.3624 13.8903 11.357 13.9263C11.5614 13.9709 11.7437 14.0122 12.2929 14.0274C13.242 14.0274 13.6803 13.666 13.6803 12.8851C13.6803 12.4155 13.4968 12.1399 13.0462 11.9327C12.6691 11.7597 12.6259 11.721 12.6259 11.5614C12.6259 11.3766 12.7753 11.2824 13.066 11.2824C13.2426 11.2824 13.4837 11.3012 13.7122 11.3337L13.8403 10.541C13.6074 10.5041 13.2543 10.4745 13.0487 10.4745C12.0425 10.4745 11.6943 11.0001 11.6974 11.6312ZM22.2707 10.5643C22.5205 10.5643 22.7534 10.6299 23.0744 10.7914L23.2215 9.87931C23.0898 9.82757 22.6259 9.52393 22.233 9.52393C21.6311 9.52393 21.1223 9.82259 20.7644 10.3155C20.2425 10.1426 20.0279 10.492 19.7649 10.8401L19.5312 10.8945C19.5489 10.7799 19.5648 10.666 19.5594 10.5508H18.7335C18.6206 11.6086 18.4206 12.6798 18.264 13.7389L18.2232 13.9686H19.123C19.2732 12.9928 19.3555 12.368 19.4056 11.9451L19.7444 11.7566C19.795 11.5684 19.9534 11.5047 20.2713 11.5124C20.2286 11.7436 20.2072 11.9782 20.2075 12.2132C20.2075 13.3313 20.8107 14.0274 21.779 14.0274C22.0284 14.0274 22.2424 13.9946 22.5738 13.9048L22.7321 12.9466C22.4341 13.0935 22.1894 13.1625 21.9679 13.1625C21.445 13.1625 21.1286 12.7765 21.1286 12.1386C21.1286 11.2132 21.5992 10.5643 22.2707 10.5643Z" fill="black"/>
    <path d="M8.54809 13.7188H7.6485L8.16409 10.4886L7.01366 13.7188H6.4006L6.32482 10.507L5.7833 13.7188H4.94141L5.64465 9.51685H6.93792L6.97429 12.1182L7.84678 9.51685H9.24371L8.54809 13.7188Z" fill="white"/>
    <path d="M29.8855 9.76611L29.6861 10.9804C29.4402 10.6567 29.1759 10.4225 28.8271 10.4225C28.3733 10.4225 27.9602 10.7665 27.6898 11.2729C27.3132 11.1948 26.9238 11.0623 26.9238 11.0623L26.9236 11.0653C26.9539 10.7822 26.9661 10.6096 26.9634 10.5509H26.1372C26.0247 11.6086 25.8247 12.6799 25.6684 13.739L25.6272 13.9687H26.5268C26.6484 13.1796 26.7414 12.5245 26.8099 12.0048C27.1172 11.7271 27.2711 11.4848 27.5816 11.5009C27.4441 11.8335 27.3636 12.2165 27.3636 12.6094C27.3636 13.4639 27.7958 14.0275 28.4497 14.0275C28.7793 14.0275 29.0322 13.9139 29.2789 13.6504L29.2368 13.9681H30.0876L30.7727 9.76616L29.8855 9.76611ZM28.7607 13.1788C28.4545 13.1788 28.3 12.9523 28.3 12.5051C28.3 11.8333 28.5894 11.357 28.9974 11.357C29.3064 11.357 29.4738 11.5926 29.4738 12.0267C29.4738 12.7042 29.1798 13.1788 28.7607 13.1788Z" fill="black"/>
    <path d="M10.7626 12.1967C10.6684 12.1858 10.6266 12.1829 10.562 12.1829C10.0522 12.1829 9.7943 12.3577 9.7943 12.7029C9.7943 12.9153 9.92025 13.0512 10.1164 13.0512C10.4832 13.0511 10.7472 12.7023 10.7626 12.1967ZM11.417 13.719H10.6718L10.6887 13.3653C10.4616 13.6448 10.1579 13.7784 9.74621 13.7784C9.2585 13.7784 8.92444 13.3977 8.92444 12.8448C8.92444 12.0125 9.50561 11.5275 10.5037 11.5275C10.6056 11.5275 10.7364 11.5367 10.8701 11.5538C10.8979 11.4412 10.9053 11.3929 10.9053 11.3319C10.9053 11.1053 10.7487 11.0213 10.3285 11.0213C9.88836 11.0164 9.52564 11.1262 9.37642 11.1746C9.38584 11.1181 9.50104 10.4068 9.50104 10.4068C9.9491 10.2748 10.245 10.2254 10.5773 10.2254C11.3498 10.2254 11.7591 10.5724 11.7583 11.2271C11.7597 11.4035 11.7305 11.62 11.6852 11.9044C11.6074 12.3994 11.4397 13.4609 11.417 13.719ZM23.4807 9.63017L23.3334 10.5425C23.0126 10.3811 22.7795 10.3154 22.53 10.3154C21.8584 10.3154 21.3877 10.9642 21.3877 11.8895C21.3877 12.5274 21.7042 12.9133 22.2269 12.9133C22.4485 12.9133 22.6929 12.8444 22.991 12.6975L22.8331 13.6552C22.5015 13.7455 22.2877 13.7784 22.0381 13.7784C21.0699 13.7784 20.4665 13.0822 20.4665 11.9642C20.4665 10.4619 21.3 9.41187 22.4921 9.41187C22.8847 9.41191 23.3488 9.57843 23.4807 9.63017ZM24.9319 12.1967C24.8377 12.1858 24.7961 12.1829 24.7313 12.1829C24.2217 12.1829 23.9636 12.3577 23.9636 12.7029C23.9636 12.9153 24.0895 13.0512 24.2859 13.0512C24.6522 13.0511 24.9165 12.7023 24.9319 12.1967ZM25.5863 13.719H24.8409L24.858 13.3653C24.6307 13.6448 24.3272 13.7784 23.9155 13.7784C23.428 13.7784 23.0938 13.3977 23.0938 12.8448C23.0938 12.0125 23.6751 11.5275 24.6728 11.5275C24.7749 11.5275 24.9055 11.5367 25.0393 11.5538C25.067 11.4412 25.0745 11.3929 25.0745 11.3319C25.0745 11.1053 24.9179 11.0213 24.4978 11.0213C24.0578 11.0164 23.6949 11.1262 23.5457 11.1746C23.5551 11.1181 23.6705 10.4068 23.6705 10.4068C24.1186 10.2748 24.4143 10.2254 24.7466 10.2254C25.5192 10.2254 25.9283 10.5724 25.9273 11.2271C25.9289 11.4035 25.8998 11.62 25.8545 11.9044C25.7768 12.3994 25.6088 13.4609 25.5863 13.719ZM15.4144 13.6673C15.168 13.7448 14.9761 13.7784 14.7683 13.7784C14.3085 13.7784 14.0575 13.5141 14.0575 13.0276C14.0512 12.8763 14.1239 12.4793 14.181 12.1167C14.2327 11.797 14.5708 9.78437 14.5708 9.78437H15.4647L15.3604 10.3018H15.8192L15.6971 11.1228H15.2367C15.1328 11.7732 14.9845 12.5822 14.983 12.6897C14.983 12.8665 15.0772 12.9428 15.2909 12.9428C15.3934 12.9428 15.4727 12.9328 15.5334 12.9109L15.4144 13.6673ZM18.1555 13.64C17.8486 13.7338 17.5519 13.779 17.238 13.7784C16.2372 13.7775 15.7156 13.2548 15.7156 12.2538C15.7156 11.0852 16.3792 10.2254 17.2801 10.2254C18.0173 10.2254 18.488 10.7067 18.488 11.4623C18.488 11.7131 18.4557 11.9577 18.378 12.3028H16.5977C16.5374 12.7986 16.8547 13.0054 17.3747 13.0054C17.6946 13.0054 17.9834 12.9392 18.3042 12.7895L18.1555 13.64ZM17.6529 11.6133C17.6582 11.5423 17.7479 11.0032 17.2369 11.0032C16.9523 11.0032 16.7486 11.221 16.6657 11.6133H17.6529ZM11.9566 11.3823C11.9566 11.8146 12.1662 12.1123 12.6416 12.3365C13.0058 12.5077 13.0621 12.5586 13.0621 12.7137C13.0621 12.9267 12.9014 13.0228 12.5458 13.0228C12.2773 13.0228 12.0277 12.9809 11.7396 12.888C11.7396 12.888 11.6217 13.6413 11.6163 13.6773C11.8204 13.7219 12.0029 13.7627 12.5521 13.7784C13.5013 13.7784 13.9394 13.4171 13.9394 12.6363C13.9394 12.1665 13.7561 11.8909 13.3054 11.6838C12.9285 11.5103 12.8848 11.4723 12.8848 11.3125C12.8848 11.1279 13.0346 11.0328 13.3252 11.0328C13.5016 11.0328 13.7427 11.0523 13.9715 11.0848L14.0994 10.2919C13.8667 10.255 13.5137 10.2254 13.3081 10.2254C12.3017 10.2254 11.9537 10.7506 11.9566 11.3823ZM30.3466 13.719H29.4956L29.5379 13.4009C29.2911 13.6647 29.0383 13.7784 28.7086 13.7784C28.0548 13.7784 27.6227 13.2147 27.6227 12.3603C27.6227 11.2235 28.2929 10.2653 29.0861 10.2653C29.435 10.2653 29.699 10.4078 29.9448 10.7313L30.1444 9.51705H31.0315L30.3466 13.719ZM29.0198 12.9294C29.4387 12.9294 29.7329 12.4548 29.7329 11.7777C29.7329 11.3436 29.5654 11.1081 29.2564 11.1081C28.8485 11.1081 28.5587 11.5841 28.5587 12.2561C28.5587 12.7032 28.7137 12.9294 29.0198 12.9294ZM26.3963 10.3019C26.2837 11.3596 26.0837 12.431 25.9273 13.4894L25.8862 13.7191H26.7857C27.1075 11.6295 27.1853 11.2214 27.6898 11.2725C27.7702 10.8448 27.9197 10.4702 28.0313 10.2812C27.6545 10.2027 27.4442 10.4156 27.1688 10.82C27.1905 10.6452 27.2303 10.4754 27.2224 10.3019L26.3963 10.3019ZM18.9923 10.3019C18.8795 11.3596 18.6795 12.431 18.5231 13.4894L18.4821 13.7191H19.3821C19.7035 11.6295 19.7812 11.2214 20.2853 11.2725C20.3661 10.8448 20.5157 10.4702 20.6268 10.2812C20.2505 10.2027 20.0399 10.4156 19.7647 10.82C19.7865 10.6452 19.8258 10.4754 19.8184 10.3019L18.9923 10.3019ZM30.7417 13.4515C30.7415 13.3038 30.8611 13.184 31.0087 13.1838H31.0092C31.1568 13.1836 31.2766 13.3032 31.2767 13.4507V13.4515C31.2767 13.5992 31.157 13.7189 31.0092 13.719C30.8615 13.7189 30.7418 13.5992 30.7417 13.4515ZM31.0092 13.6548C31.1214 13.6549 31.2124 13.5639 31.2125 13.4517V13.4516C31.2126 13.3393 31.1216 13.2482 31.0094 13.2481H31.0092C30.8969 13.2482 30.8058 13.3392 30.8058 13.4516C30.8059 13.5638 30.8969 13.6548 31.0092 13.6548ZM30.9731 13.5684H30.9182V13.3339H31.0176C31.0382 13.3339 31.0595 13.3343 31.0774 13.3456C31.0967 13.3587 31.1076 13.381 31.1076 13.4044C31.1076 13.4309 31.092 13.4557 31.0666 13.4652L31.11 13.5684H31.0491L31.0132 13.4757H30.973L30.9731 13.5684ZM30.9731 13.4355H31.0032C31.0145 13.4355 31.0269 13.4364 31.0368 13.4309C31.0459 13.4252 31.0505 13.4143 31.0505 13.4038C31.0501 13.3941 31.0452 13.3851 31.0373 13.3797C31.0278 13.3743 31.0122 13.3758 31.002 13.3758H30.973L30.9731 13.4355Z" fill="white"/>
</svg>
