<svg width="14" height="14" viewBox="0 0 14 14" fill="none" xmlns="http://www.w3.org/2000/svg">
<path d="M3.24967 10.75H10.8747L8.52051 7.60417L6.33301 10.375L4.87467 8.60417L3.24967 10.75ZM1.68717 13.6667C1.29829 13.6667 0.975508 13.5383 0.718841 13.2817C0.461619 13.0244 0.333008 12.7014 0.333008 12.3125V1.6875C0.333008 1.29861 0.461619 0.975833 0.718841 0.719166C0.975508 0.461944 1.29829 0.333333 1.68717 0.333333H12.3122C12.7011 0.333333 13.0241 0.461944 13.2813 0.719166C13.538 0.975833 13.6663 1.29861 13.6663 1.6875V12.3125C13.6663 12.7014 13.538 13.0244 13.2813 13.2817C13.0241 13.5383 12.7011 13.6667 12.3122 13.6667H1.68717ZM1.68717 12.8333H12.3122C12.4511 12.8333 12.5725 12.7811 12.6763 12.6767C12.7808 12.5728 12.833 12.4514 12.833 12.3125V1.6875C12.833 1.54861 12.7808 1.42722 12.6763 1.32333C12.5725 1.21889 12.4511 1.16667 12.3122 1.16667H1.68717C1.54829 1.16667 1.4269 1.21889 1.32301 1.32333C1.21856 1.42722 1.16634 1.54861 1.16634 1.6875V12.3125C1.16634 12.4514 1.21856 12.5728 1.32301 12.6767C1.4269 12.7811 1.54829 12.8333 1.68717 12.8333Z" fill="#4D5760"/>
</svg>
