<svg width="20" height="20" viewBox="0 0 20 20" fill="none" xmlns="http://www.w3.org/2000/svg">
<mask id="mask0_10_72837" style="mask-type:alpha" maskUnits="userSpaceOnUse" x="0" y="0" width="20" height="20">
<rect width="20" height="20" fill="#C4C4C4"/>
</mask>
<g mask="url(#mask0_10_72837)">
<path d="M8.43815 17.5L8.14648 15.0833C7.8826 15.0139 7.59454 14.8925 7.28232 14.7192C6.96954 14.5453 6.70898 14.3611 6.50065 14.1667L4.27148 15.1042L2.70898 12.3958L4.64648 10.9375C4.61871 10.7986 4.59454 10.6492 4.57398 10.4892C4.55287 10.3297 4.54232 10.1736 4.54232 10.0208C4.54232 9.88194 4.55287 9.7325 4.57398 9.5725C4.59454 9.41306 4.61871 9.24306 4.64648 9.0625L2.70898 7.60417L4.27148 4.9375L6.47982 5.85417C6.72982 5.64583 6.99732 5.45833 7.28232 5.29167C7.56676 5.125 7.84787 5 8.12565 4.91667L8.43815 2.5H11.5632L11.8548 4.91667C12.1743 5.04167 12.4557 5.17361 12.699 5.3125C12.9418 5.45139 13.1951 5.63194 13.459 5.85417L15.7298 4.9375L17.2923 7.60417L15.2923 9.10417C15.3479 9.27083 15.3757 9.42722 15.3757 9.57333C15.3757 9.71889 15.3757 9.86111 15.3757 10C15.3757 10.125 15.3723 10.2606 15.3657 10.4067C15.3584 10.5522 15.334 10.7292 15.2923 10.9375L17.2507 12.3958L15.6882 15.1042L13.459 14.1458C13.1951 14.3681 12.9348 14.5556 12.6782 14.7083C12.4209 14.8611 12.1465 14.9861 11.8548 15.0833L11.5632 17.5H8.43815ZM9.97982 12.0833C10.5632 12.0833 11.0562 11.8819 11.459 11.4792C11.8618 11.0764 12.0632 10.5833 12.0632 10C12.0632 9.41667 11.8618 8.92361 11.459 8.52083C11.0562 8.11806 10.5632 7.91667 9.97982 7.91667C9.39648 7.91667 8.90343 8.11806 8.50065 8.52083C8.09787 8.92361 7.89648 9.41667 7.89648 10C7.89648 10.5833 8.09787 11.0764 8.50065 11.4792C8.90343 11.8819 9.39648 12.0833 9.97982 12.0833ZM9.97982 11.25C9.6326 11.25 9.3376 11.1283 9.09482 10.885C8.85148 10.6422 8.72982 10.3472 8.72982 10C8.72982 9.65278 8.85148 9.35778 9.09482 9.115C9.3376 8.87167 9.6326 8.75 9.97982 8.75C10.327 8.75 10.6223 8.87167 10.8657 9.115C11.1084 9.35778 11.2298 9.65278 11.2298 10C11.2298 10.3472 11.1084 10.6422 10.8657 10.885C10.6223 11.1283 10.327 11.25 9.97982 11.25ZM9.16732 16.6667H10.7923L11.1048 14.4167C11.5215 14.3056 11.9001 14.1528 12.2407 13.9583C12.5807 13.7639 12.9243 13.4931 13.2715 13.1458L15.334 14.0417L16.1673 12.625L14.3548 11.25C14.4243 11.0139 14.4695 10.795 14.4907 10.5933C14.5112 10.3922 14.5215 10.1944 14.5215 10C14.5215 9.79167 14.5112 9.59361 14.4907 9.40583C14.4695 9.21861 14.4243 9.00694 14.3548 8.77083L16.209 7.375L15.3757 5.95833L13.2507 6.85417C13.0007 6.57639 12.6709 6.31583 12.2615 6.0725C11.8515 5.82972 11.459 5.66667 11.084 5.58333L10.834 3.33333H9.16732L8.91732 5.58333C8.50065 5.66667 8.1151 5.80889 7.76065 6.01C7.40676 6.21167 7.05621 6.48611 6.70898 6.83333L4.62565 5.95833L3.79232 7.375L5.60482 8.72917C5.53537 8.90972 5.48676 9.11111 5.45898 9.33333C5.43121 9.55556 5.41732 9.78472 5.41732 10.0208C5.41732 10.2292 5.43121 10.4375 5.45898 10.6458C5.48676 10.8542 5.52843 11.0556 5.58398 11.25L3.79232 12.625L4.62565 14.0417L6.68815 13.1667C7.02148 13.5 7.36176 13.7639 7.70898 13.9583C8.05621 14.1528 8.45204 14.3056 8.89648 14.4167L9.16732 16.6667Z" fill="#4D5760"/>
</g>
</svg>
