<svg width="56" height="56" viewBox="0 0 56 56" fill="none" xmlns="http://www.w3.org/2000/svg">
    <rect width="56" height="56" rx="28" fill="#FFEEE7"/>
    <mask id="mask0_12_75862" style="mask-type:alpha" maskUnits="userSpaceOnUse" x="16" y="16" width="24" height="24">
        <rect x="16" y="16" width="24" height="24" fill="#D9D9D9"/>
    </mask>
    <g mask="url(#mask0_12_75862)">
        <path d="M34 37.5C33.3 37.5 32.7083 37.2583 32.225 36.775C31.7417 36.2917 31.5 35.7 31.5 35C31.5 34.8667 31.5127 34.729 31.538 34.587C31.5627 34.4457 31.6 34.3083 31.65 34.175L23.9 29.625C23.65 29.8917 23.3627 30.104 23.038 30.262C22.7127 30.4207 22.3667 30.5 22 30.5C21.3 30.5 20.7083 30.2583 20.225 29.775C19.7417 29.2917 19.5 28.7 19.5 28C19.5 27.3 19.7417 26.7083 20.225 26.225C20.7083 25.7417 21.3 25.5 22 25.5C22.3667 25.5 22.7127 25.5793 23.038 25.738C23.3627 25.896 23.65 26.1083 23.9 26.375L31.65 21.825C31.6 21.6917 31.5627 21.554 31.538 21.412C31.5127 21.2707 31.5 21.1333 31.5 21C31.5 20.3 31.7417 19.7083 32.225 19.225C32.7083 18.7417 33.3 18.5 34 18.5C34.7 18.5 35.2917 18.7417 35.775 19.225C36.2583 19.7083 36.5 20.3 36.5 21C36.5 21.7 36.2583 22.2917 35.775 22.775C35.2917 23.2583 34.7 23.5 34 23.5C33.6333 23.5 33.2873 23.4207 32.962 23.262C32.6373 23.104 32.35 22.8917 32.1 22.625L24.35 27.175C24.4 27.3083 24.4377 27.4457 24.463 27.587C24.4877 27.729 24.5 27.8667 24.5 28C24.5 28.1333 24.4877 28.2707 24.463 28.412C24.4377 28.554 24.4 28.6917 24.35 28.825L32.1 33.375C32.35 33.1083 32.6373 32.896 32.962 32.738C33.2873 32.5793 33.6333 32.5 34 32.5C34.7 32.5 35.2917 32.7417 35.775 33.225C36.2583 33.7083 36.5 34.3 36.5 35C36.5 35.7 36.2583 36.2917 35.775 36.775C35.2917 37.2583 34.7 37.5 34 37.5ZM34 22.5C34.4167 22.5 34.7707 22.354 35.062 22.062C35.354 21.7707 35.5 21.4167 35.5 21C35.5 20.5833 35.354 20.2293 35.062 19.938C34.7707 19.646 34.4167 19.5 34 19.5C33.5833 19.5 33.2293 19.646 32.938 19.938C32.646 20.2293 32.5 20.5833 32.5 21C32.5 21.4167 32.646 21.7707 32.938 22.062C33.2293 22.354 33.5833 22.5 34 22.5ZM22 29.5C22.4167 29.5 22.7707 29.354 23.062 29.062C23.354 28.7707 23.5 28.4167 23.5 28C23.5 27.5833 23.354 27.2293 23.062 26.938C22.7707 26.646 22.4167 26.5 22 26.5C21.5833 26.5 21.2293 26.646 20.938 26.938C20.646 27.2293 20.5 27.5833 20.5 28C20.5 28.4167 20.646 28.7707 20.938 29.062C21.2293 29.354 21.5833 29.5 22 29.5ZM34 36.5C34.4167 36.5 34.7707 36.354 35.062 36.062C35.354 35.7707 35.5 35.4167 35.5 35C35.5 34.5833 35.354 34.2293 35.062 33.938C34.7707 33.646 34.4167 33.5 34 33.5C33.5833 33.5 33.2293 33.646 32.938 33.938C32.646 34.2293 32.5 34.5833 32.5 35C32.5 35.4167 32.646 35.7707 32.938 36.062C33.2293 36.354 33.5833 36.5 34 36.5Z" fill="#FF5403"/>
    </g>
</svg>
