<svg width="20" height="20" viewBox="0 0 20 20" fill="none" xmlns="http://www.w3.org/2000/svg">
<mask id="mask0_175_11742" style="mask-type:alpha" maskUnits="userSpaceOnUse" x="0" y="0" width="20" height="20">
<rect width="20" height="20" fill="#C4C4C4"/>
</mask>
<g mask="url(#mask0_175_11742)">
<path d="M17.0833 9.08333V15.7292C17.0833 16.1181 16.955 16.4411 16.6983 16.6983C16.4411 16.955 16.125 17.0833 15.75 17.0833H4.27081C3.88192 17.0833 3.55887 16.955 3.30165 16.6983C3.04498 16.4411 2.91665 16.1181 2.91665 15.7292V9.04167C2.56942 8.79167 2.31248 8.45472 2.14581 8.03084C1.97915 7.6075 1.97915 7.15972 2.14581 6.6875L2.95831 4C3.06942 3.66667 3.24665 3.40278 3.48998 3.20833C3.73276 3.01389 4.0347 2.91667 4.39581 2.91667H15.5625C15.9375 2.91667 16.2466 3.00695 16.49 3.1875C16.7328 3.36806 16.9097 3.63195 17.0208 3.97917L17.875 6.6875C18.0278 7.15972 18.0244 7.61111 17.865 8.04167C17.705 8.47222 17.4444 8.81945 17.0833 9.08333ZM11.8333 8.75C12.375 8.75 12.7778 8.60056 13.0416 8.30167C13.3055 8.00333 13.4166 7.69445 13.375 7.375L12.8125 3.75H10.4166V7.25C10.4166 7.65278 10.5589 8.00333 10.8433 8.30167C11.1283 8.60056 11.4583 8.75 11.8333 8.75ZM8.08331 8.75C8.52776 8.75 8.88887 8.60056 9.16665 8.30167C9.44442 8.00333 9.58331 7.65278 9.58331 7.25V3.75H7.18748L6.64581 7.4375C6.60415 7.70139 6.71526 7.98611 6.97915 8.29167C7.24303 8.59722 7.61109 8.75 8.08331 8.75ZM4.37498 8.75C4.74998 8.75 5.06609 8.625 5.32331 8.375C5.57998 8.125 5.73609 7.8125 5.79165 7.4375L6.31248 3.75H4.39581C4.21526 3.75 4.07304 3.79167 3.96915 3.875C3.8647 3.95833 3.7847 4.07639 3.72915 4.22917L2.95831 6.85417C2.81942 7.29861 2.87859 7.72556 3.13581 8.135C3.39248 8.545 3.80554 8.75 4.37498 8.75ZM15.625 8.75C16.125 8.75 16.5244 8.55556 16.8233 8.16667C17.1216 7.77778 17.1944 7.34028 17.0416 6.85417L16.2291 4.20833C16.1736 4.04167 16.0939 3.92361 15.99 3.85417C15.8855 3.78472 15.743 3.75 15.5625 3.75H13.6875L14.2083 7.4375C14.2778 7.8125 14.4411 8.125 14.6983 8.375C14.955 8.625 15.2639 8.75 15.625 8.75ZM4.27081 16.25H15.75C15.8889 16.25 16.0069 16.2014 16.1041 16.1042C16.2014 16.0069 16.25 15.8819 16.25 15.7292V9.47917C16.1389 9.52083 16.0347 9.54861 15.9375 9.5625C15.8403 9.57639 15.7361 9.58333 15.625 9.58333C15.25 9.58333 14.92 9.51056 14.635 9.365C14.3505 9.21889 14.0833 8.98611 13.8333 8.66667C13.6111 8.93056 13.3403 9.14945 13.0208 9.32333C12.7014 9.49667 12.3125 9.58333 11.8541 9.58333C11.5208 9.58333 11.205 9.50695 10.9066 9.35417C10.6078 9.20139 10.3055 8.97222 9.99998 8.66667C9.7222 8.97222 9.41303 9.20139 9.07248 9.35417C8.73248 9.50695 8.4097 9.58333 8.10415 9.58333C7.75692 9.58333 7.41665 9.51722 7.08331 9.385C6.74998 9.25333 6.45831 9.01389 6.20831 8.66667C5.80553 9.06945 5.45137 9.32278 5.14581 9.42667C4.84026 9.53111 4.58331 9.58333 4.37498 9.58333C4.27776 9.58333 4.1772 9.57639 4.07331 9.5625C3.96887 9.54861 3.86109 9.52083 3.74998 9.47917V15.7292C3.74998 15.8819 3.79859 16.0069 3.89581 16.1042C3.99304 16.2014 4.11804 16.25 4.27081 16.25ZM15.75 16.25H4.27081C4.2847 16.25 4.30554 16.25 4.33331 16.25C4.36109 16.25 4.37498 16.25 4.37498 16.25C4.45831 16.25 4.76748 16.25 5.30248 16.25C5.83692 16.25 6.13887 16.25 6.20831 16.25C6.23609 16.25 6.34387 16.25 6.53165 16.25C6.71887 16.25 6.91998 16.25 7.13498 16.25C7.35053 16.25 7.55553 16.25 7.74998 16.25C7.94442 16.25 8.06248 16.25 8.10415 16.25C8.14581 16.25 8.26387 16.25 8.45831 16.25C8.65276 16.25 8.85748 16.25 9.07248 16.25C9.28803 16.25 9.4897 16.25 9.67748 16.25C9.8647 16.25 9.9722 16.25 9.99998 16.25C10.0555 16.25 10.3578 16.25 10.9066 16.25C11.455 16.25 11.7708 16.25 11.8541 16.25C11.8958 16.25 12.0175 16.25 12.2191 16.25C12.4203 16.25 12.6355 16.25 12.865 16.25C13.0939 16.25 13.3055 16.25 13.5 16.25C13.6944 16.25 13.8055 16.25 13.8333 16.25C13.8889 16.25 14.1805 16.25 14.7083 16.25C15.2361 16.25 15.5416 16.25 15.625 16.25C15.6389 16.25 15.6561 16.25 15.6766 16.25C15.6978 16.25 15.7222 16.25 15.75 16.25Z" fill="#4D5760"/>
</g>
</svg>
