<svg width="24" height="24" viewBox="0 0 24 24" fill="none" xmlns="http://www.w3.org/2000/svg">
<path d="M12 24C18.6274 24 24 18.6274 24 12C24 5.37258 18.6274 0 12 0C5.37258 0 0 5.37258 0 12C0 18.6274 5.37258 24 12 24Z" fill="#FF6A22"/>
<path d="M3.57372 14.7242C3.56795 14.7631 3.54014 14.7909 3.50399 14.7909C3.46784 14.7909 3.44003 14.7631 3.43447 14.7233L3.30762 13.774L3.43447 12.8088C3.43981 12.7686 3.46762 12.7408 3.50399 12.7408C3.53992 12.7408 3.56773 12.7686 3.57372 12.8088L3.72474 13.775L3.57372 14.7242ZM4.21995 15.3009C4.21396 15.3421 4.18401 15.371 4.14701 15.371C4.11107 15.371 4.07962 15.3421 4.0747 15.3009L3.904 13.7737L4.0747 12.2124C4.07984 12.1722 4.11107 12.1422 4.14701 12.1422C4.18401 12.1422 4.21396 12.1715 4.21995 12.2124L4.41418 13.7737L4.21995 15.3009ZM4.9173 15.5595C4.91238 15.6091 4.87516 15.6444 4.83045 15.6444C4.78425 15.6444 4.74767 15.6091 4.74318 15.5595L4.58125 13.775L4.74318 11.9228C4.74724 11.8725 4.78425 11.8366 4.83045 11.8366C4.87516 11.8366 4.91217 11.8725 4.9173 11.9228L5.10105 13.775L4.9173 15.5595ZM5.6215 15.6162C5.61636 15.6731 5.57187 15.7161 5.51903 15.7161C5.46491 15.7161 5.42063 15.6731 5.41614 15.6162L5.26319 13.775L5.41614 11.8719C5.42063 11.8145 5.46491 11.7715 5.51903 11.7715C5.57187 11.7715 5.61636 11.8145 5.6215 11.8719L5.79498 13.775L5.6215 15.6162ZM6.32954 15.6309C6.32591 15.697 6.27435 15.746 6.21339 15.746C6.1505 15.746 6.10066 15.697 6.09638 15.6309L5.95178 13.7748L6.09638 12.0092C6.10087 11.9435 6.1505 11.8945 6.21339 11.8945C6.27542 11.8945 6.32591 11.9435 6.32954 12.0083L6.4934 13.7748L6.32954 15.6309ZM7.04443 15.632V15.6309C7.04016 15.7041 6.98219 15.7618 6.91245 15.7618C6.8425 15.7618 6.78453 15.7039 6.78047 15.632L6.64549 13.7759L6.78047 10.9033C6.78453 10.8301 6.8425 10.7724 6.91245 10.7724C6.9824 10.7724 7.04037 10.8303 7.04443 10.9022L7.19738 13.7759L7.04443 15.632ZM7.75398 15.6309V15.6299C7.7497 15.7107 7.68574 15.7751 7.60659 15.7751C7.52894 15.7751 7.46477 15.7107 7.46092 15.6299L7.33343 13.7857L7.46092 10.256C7.46477 10.1751 7.52894 10.1112 7.60659 10.1112C7.68574 10.1112 7.7497 10.1751 7.75398 10.256L7.89751 13.7857L7.75398 15.6309ZM8.49005 15.6025V15.6014C8.48684 15.6915 8.41603 15.7614 8.32897 15.7614C8.24191 15.7614 8.1711 15.6915 8.1679 15.6025L8.0496 13.7772C8.0496 13.7772 8.1679 9.95329 8.1679 9.95222C8.17132 9.86323 8.24191 9.792 8.32897 9.792C8.41603 9.792 8.48705 9.86323 8.49005 9.95222L8.62374 13.7772L8.49005 15.6025ZM9.22184 15.5903C9.21842 15.6883 9.14162 15.765 9.046 15.765C8.95017 15.765 8.87338 15.6883 8.86995 15.5911L8.75958 13.7767L8.86995 9.82409C8.87338 9.72569 8.95017 9.64911 9.046 9.64911C9.14162 9.64911 9.21863 9.72569 9.22184 9.82409L9.34441 13.7767L9.22184 15.5903ZM9.95833 15.5742V15.5732C9.95491 15.6791 9.87213 15.7631 9.7671 15.7631C9.66357 15.7631 9.57907 15.6791 9.57714 15.5742L9.47575 13.7772L9.57608 9.92548C9.57907 9.8181 9.66335 9.7351 9.7671 9.7351C9.87213 9.7351 9.95491 9.8181 9.95833 9.92548L10.0721 13.7772L9.95833 15.5742ZM10.7008 15.5635V15.562C10.6991 15.6773 10.608 15.7661 10.4955 15.7661C10.3821 15.7661 10.2923 15.6773 10.2888 15.5635L10.1973 13.777L10.289 10.0662C10.2925 9.95115 10.3823 9.86109 10.4957 9.86109C10.6082 9.86109 10.6993 9.95115 10.701 10.0662L10.8048 13.778L10.7008 15.5635ZM11.4583 15.3751L11.4491 15.5501C11.448 15.611 11.4223 15.6662 11.3832 15.706C11.343 15.7452 11.2878 15.7702 11.2294 15.7702C11.1614 15.7702 11.1015 15.739 11.0604 15.6898C11.03 15.654 11.0112 15.6078 11.0091 15.5593C11.0084 15.5571 11.0084 15.5543 11.0084 15.5514C11.0084 15.5514 10.9239 13.7789 10.9239 13.7759L11.0074 9.40289L11.0084 9.36097C11.0091 9.28439 11.0497 9.21615 11.1105 9.177C11.1445 9.15433 11.1847 9.14107 11.2296 9.14107C11.2737 9.14107 11.3154 9.15476 11.3503 9.17893C11.4095 9.2185 11.4482 9.28503 11.4493 9.36118L11.5421 13.778L11.4583 15.3751ZM12.1944 15.5272V15.525C12.1929 15.6542 12.087 15.7595 11.959 15.7595C11.8307 15.7595 11.725 15.6542 11.7237 15.5261L11.6752 14.664L11.6275 13.7789L11.7237 8.98598V8.96181C11.724 8.88908 11.7582 8.82405 11.811 8.7802C11.8514 8.74704 11.9034 8.72693 11.959 8.72693C12.0033 8.72693 12.0444 8.73913 12.0795 8.75966C12.1464 8.80159 12.1933 8.87582 12.1954 8.96074L12.2996 13.7787L12.1944 15.5272ZM18.5546 15.7642C18.5546 15.7642 12.6329 15.7642 12.6267 15.7642C12.4987 15.7511 12.3976 15.6493 12.3954 15.5182V8.73207C12.3976 8.60714 12.4406 8.54276 12.6014 8.48094C13.0166 8.32007 13.4868 8.2251 13.97 8.2251C15.9412 8.2251 17.5565 9.73724 17.7278 11.6635C17.9815 11.5576 18.2617 11.4973 18.5546 11.4973C19.7349 11.4973 20.692 12.4548 20.692 13.636C20.692 14.817 19.7349 15.7642 18.5546 15.7642Z" fill="#F1F2F2"/>
</svg>
