<svg width="56" height="56" viewBox="0 0 56 56" fill="none" xmlns="http://www.w3.org/2000/svg">
    <rect width="56" height="56" rx="28" fill="#FFEEE7"/>
    <mask id="mask0_12_75869" style="mask-type:alpha" maskUnits="userSpaceOnUse" x="16" y="16" width="24" height="24">
        <rect x="16" y="16" width="24" height="24" fill="#D9D9D9"/>
    </mask>
    <g mask="url(#mask0_12_75869)">
        <path d="M33.925 28.5V27.5H37.15V28.5H33.925ZM35 34.95L32.425 33.025L33.05 32.225L35.625 34.175L35 34.95ZM32.975 23.7L32.35 22.9L34.925 20.95L35.55 21.75L32.975 23.7ZM21.5 33.95V30.15H20.45C20.0166 30.15 19.6416 29.9917 19.325 29.675C19.0083 29.3583 18.85 28.9833 18.85 28.55V27.45C18.85 27.0167 19.0083 26.6417 19.325 26.325C19.6416 26.0083 20.0166 25.85 20.45 25.85H24.2L28.15 23.5V32.5L24.2 30.15H22.5V33.95H21.5ZM29.925 30.9V25.1C30.2583 25.4167 30.5293 25.829 30.738 26.337C30.946 26.8457 31.05 27.4 31.05 28C31.05 28.6 30.946 29.154 30.738 29.662C30.5293 30.1707 30.2583 30.5833 29.925 30.9ZM20.45 26.85C20.3 26.85 20.1626 26.9123 20.038 27.037C19.9126 27.1623 19.85 27.3 19.85 27.45V28.55C19.85 28.7 19.9126 28.8373 20.038 28.962C20.1626 29.0873 20.3 29.15 20.45 29.15H24.475L27.15 30.725V25.275L24.475 26.85H20.45Z" fill="#FF5403"/>
    </g>
</svg>
