<svg width="82" height="82" viewBox="0 0 82 82" fill="none" xmlns="http://www.w3.org/2000/svg">
    <rect width="82" height="82" rx="41" fill="#059964" fill-opacity="0.2"/>
    <mask id="mask0_12_83944" style="mask-type:alpha" maskUnits="userSpaceOnUse" x="20" y="20" width="42" height="42">
        <rect x="20.5" y="20.5" width="41" height="41" fill="#C4C4C4"/>
    </mask>
    <g mask="url(#mask0_12_83944)">
        <path d="M41.0002 55.8625C38.9502 55.8625 37.0215 55.4707 35.2141 54.6871C33.4055 53.9047 31.8321 52.8444 30.4939 51.5062C29.1558 50.168 28.0949 48.5946 27.3113 46.7861C26.5289 44.9787 26.1377 43.05 26.1377 41C26.1377 38.95 26.5289 37.0207 27.3113 35.2121C28.0949 33.4047 29.1558 31.8319 30.4939 30.4937C31.8321 29.1555 33.4055 28.0946 35.2141 27.3111C37.0215 26.5287 38.9502 26.1375 41.0002 26.1375C43.0502 26.1375 44.9795 26.5287 46.788 27.3111C48.5954 28.0946 50.1683 29.1555 51.5064 30.4937C52.8446 31.8319 53.9055 33.4047 54.6891 35.2121C55.4715 37.0207 55.8627 38.95 55.8627 41C55.8627 43.05 55.4715 44.9787 54.6891 46.7861C53.9055 48.5946 52.8446 50.168 51.5064 51.5062C50.1683 52.8444 48.5954 53.9047 46.788 54.6871C44.9795 55.4707 43.0502 55.8625 41.0002 55.8625ZM38.5231 47.3208L49.1148 36.7291L48.2606 35.875L38.5231 45.6125L33.6544 40.7437L32.8002 41.5979L38.5231 47.3208Z" fill="#059964"/>
    </g>
</svg>
