<svg width="22" height="24" viewBox="0 0 22 24" fill="none" xmlns="http://www.w3.org/2000/svg">
    <path d="M7.16869 12.4441C5.2577 12.4441 3.71384 13.988 3.74208 15.8801C3.76091 17.0945 4.42929 18.1489 5.41302 18.7372C5.07884 18.2242 4.88115 17.617 4.87173 16.9627C4.84349 15.0705 6.38735 13.5267 8.29835 13.5267C8.6749 13.5267 9.03733 13.5879 9.37622 13.6961V9.90708C9.02321 9.85531 8.66078 9.82706 8.29835 9.82706C8.27952 9.82706 8.2654 9.82706 8.24657 9.82706V12.6135C7.90767 12.5053 7.54524 12.4441 7.16869 12.4441Z" fill="#F00044"/>
    <path d="M15.4301 1.08224H15.4019H14.4229C14.7053 2.49902 15.5007 3.73222 16.6116 4.57005C15.882 3.60514 15.4395 2.40017 15.4301 1.08224Z" fill="#F00044"/>
    <path d="M21.1907 6.8482C20.8188 6.8482 20.4611 6.81054 20.1081 6.74464V9.46052C18.8278 9.46052 17.5852 9.21105 16.4179 8.71212C15.6648 8.39205 14.9635 7.98256 14.3186 7.48833L14.3375 15.8619C14.328 17.7446 13.5844 19.5097 12.2382 20.8418C11.1415 21.9244 9.75295 22.6163 8.24675 22.8375C7.89373 22.8893 7.5313 22.9175 7.16887 22.9175C5.55911 22.9175 4.02467 22.395 2.77734 21.4301C2.91855 21.5996 3.06917 21.7643 3.23391 21.9244C4.58949 23.2611 6.38753 24.0001 8.30323 24.0001C8.66566 24.0001 9.02809 23.9718 9.38111 23.9201C10.8873 23.6988 12.2758 23.0069 13.3725 21.9244C14.7187 20.5923 15.4624 18.8272 15.4718 16.9445L15.4012 8.57092C16.0414 9.06514 16.7427 9.47935 17.5005 9.79471C18.6725 10.2889 19.9151 10.5431 21.1907 10.5431" fill="#F00044"/>
    <path d="M3.21953 11.9131C4.56099 10.5811 6.3449 9.84211 8.24649 9.82799V8.82542C7.89347 8.77365 7.53104 8.74541 7.16861 8.74541C5.2482 8.74541 3.44546 9.48439 2.08988 10.8306C0.75783 12.1532 -0.00468522 13.9606 2.16632e-05 15.8387C2.16632e-05 17.7309 0.748417 19.5053 2.09929 20.8468C2.31581 21.0586 2.53703 21.2563 2.77238 21.4352C1.70862 20.169 1.12967 18.5875 1.12497 16.9213C1.12967 15.0432 1.88748 13.2358 3.21953 11.9131Z" fill="#08FFF9"/>
    <path d="M20.1077 6.74504V5.73777H20.0983C18.7898 5.73777 17.5849 5.30474 16.6152 4.57047C17.4578 5.68129 18.691 6.47204 20.1077 6.74504Z" fill="#08FFF9"/>
    <path d="M8.10542 20.2961C8.55257 20.3196 8.9809 20.2584 9.37628 20.1313C10.7413 19.6842 11.725 18.4133 11.725 16.9165L11.7297 11.3154V1.08258H14.4221C14.3514 0.729567 14.3138 0.371844 14.3091 0H10.6001V10.2281L10.5954 15.8293C10.5954 17.326 9.61162 18.5969 8.24663 19.0441C7.85125 19.1759 7.42292 19.237 6.97577 19.2088C6.40624 19.1759 5.87436 19.0064 5.41309 18.7334C5.99203 19.6277 6.98048 20.2349 8.10542 20.2961Z" fill="#08FFF9"/>
    <path d="M8.24672 22.8384C9.75292 22.6171 11.1414 21.9252 12.2382 20.8426C13.5843 19.5106 14.328 17.7455 14.3374 15.8628L14.3186 7.48922C14.9587 7.98344 15.6601 8.39764 16.4179 8.71301C17.5899 9.20723 18.8325 9.4614 20.1081 9.4614V6.74553C18.6913 6.47253 17.4581 5.68177 16.6156 4.57095C15.5047 3.73312 14.7046 2.49992 14.4269 1.08315H11.7298V11.3112L11.7251 16.9124C11.7251 18.4092 10.7414 19.68 9.37637 20.1272C8.98099 20.259 8.55266 20.3202 8.10551 20.2919C6.97586 20.2308 5.99212 19.6236 5.41317 18.734C4.42943 18.1503 3.76105 17.0913 3.74223 15.8769C3.71398 13.9847 5.25784 12.4409 7.16884 12.4409C7.54539 12.4409 7.90782 12.502 8.24672 12.6103V9.82383C6.34513 9.83795 4.56122 10.5769 3.21976 11.909C1.88771 13.2316 1.1252 15.0391 1.1299 16.9124C1.1299 18.5786 1.70885 20.1602 2.77731 21.4263C4.02935 22.3912 5.55908 22.9137 7.16884 22.9137C7.53127 22.9184 7.8937 22.8901 8.24672 22.8384Z" fill="black"/>
</svg>
