<svg width="21" height="20" viewBox="0 0 21 20" fill="none" xmlns="http://www.w3.org/2000/svg">
<mask id="mask0_9_18470" style="mask-type:alpha" maskUnits="userSpaceOnUse" x="0" y="0" width="21" height="20">
<rect x="0.666992" width="20" height="20" fill="#C4C4C4"/>
</mask>
<g mask="url(#mask0_9_18470)">
<path d="M2.83374 15.5208V14.1458C2.83374 13.7569 2.93457 13.4236 3.13624 13.1458C3.33735 12.868 3.60457 12.6458 3.93791 12.4792C4.66013 12.1319 5.37902 11.8578 6.09457 11.6567C6.80957 11.455 7.66707 11.3542 8.66707 11.3542C9.66707 11.3542 10.5249 11.455 11.2404 11.6567C11.9554 11.8578 12.674 12.1319 13.3962 12.4792C13.7296 12.6458 13.9971 12.868 14.1987 13.1458C14.3999 13.4236 14.5004 13.7569 14.5004 14.1458V15.5208H2.83374ZM15.0421 11.625C15.4449 11.7083 15.8374 11.8264 16.2196 11.9792C16.6012 12.1319 16.9796 12.2986 17.3546 12.4792C17.7157 12.6597 17.9971 12.8922 18.1987 13.1767C18.3999 13.4617 18.5004 13.7708 18.5004 14.1042V15.5208H16.1671V14.1042C16.1671 13.618 16.0699 13.1597 15.8754 12.7292C15.681 12.2986 15.4032 11.9305 15.0421 11.625ZM8.66707 9.47916C7.97263 9.47916 7.38235 9.2361 6.89624 8.74999C6.41013 8.26388 6.16707 7.6736 6.16707 6.97916C6.16707 6.2986 6.41013 5.71166 6.89624 5.21832C7.38235 4.72555 7.97263 4.47916 8.66707 4.47916C9.34763 4.47916 9.93457 4.72555 10.4279 5.21832C10.9207 5.71166 11.1671 6.2986 11.1671 6.97916C11.1671 7.6736 10.9207 8.26388 10.4279 8.74999C9.93457 9.2361 9.34763 9.47916 8.66707 9.47916ZM14.7296 6.97916C14.7296 7.6736 14.4832 8.26388 13.9904 8.74999C13.4971 9.2361 12.9101 9.47916 12.2296 9.47916C12.1879 9.47916 12.1393 9.47582 12.0837 9.46916C12.0282 9.46193 11.9865 9.45832 11.9587 9.45832C12.2365 9.1111 12.4518 8.72555 12.6046 8.30166C12.7574 7.87832 12.8337 7.43749 12.8337 6.97916C12.8337 6.53471 12.7537 6.10416 12.5937 5.68749C12.4343 5.27082 12.2226 4.88193 11.9587 4.52082C12.0004 4.50693 12.0421 4.49638 12.0837 4.48916C12.1254 4.48249 12.174 4.47916 12.2296 4.47916C12.9101 4.47916 13.4971 4.72555 13.9904 5.21832C14.4832 5.71166 14.7296 6.2986 14.7296 6.97916ZM3.66707 14.6875H13.6671V14.1458C13.6671 13.9514 13.6185 13.7814 13.5212 13.6358C13.424 13.4897 13.2504 13.3472 13.0004 13.2083C12.3754 12.875 11.7193 12.6217 11.0321 12.4483C10.3443 12.2744 9.55596 12.1875 8.66707 12.1875C7.77818 12.1875 6.99013 12.2744 6.30291 12.4483C5.61513 12.6217 4.95874 12.875 4.33374 13.2083C4.08374 13.3472 3.91013 13.4897 3.81291 13.6358C3.71568 13.7814 3.66707 13.9514 3.66707 14.1458V14.6875ZM8.66707 8.64582C9.12541 8.64582 9.51791 8.48249 9.84457 8.15582C10.1707 7.82971 10.3337 7.43749 10.3337 6.97916C10.3337 6.52082 10.1707 6.1286 9.84457 5.80249C9.51791 5.47582 9.12541 5.31249 8.66707 5.31249C8.20874 5.31249 7.81652 5.47582 7.49041 5.80249C7.16374 6.1286 7.00041 6.52082 7.00041 6.97916C7.00041 7.43749 7.16374 7.82971 7.49041 8.15582C7.81652 8.48249 8.20874 8.64582 8.66707 8.64582Z" fill="#4D5760"/>
</g>
</svg>
