<svg width="24" height="24" viewBox="0 0 24 24" fill="none" xmlns="http://www.w3.org/2000/svg">
    <g clip-path="url(#clip0_455_998)">
        <path d="M7.74057 22C17.0288 22 22.1091 14.3047 22.1091 7.6314C22.1091 7.41285 22.1091 7.19527 22.0944 6.97865C23.0827 6.26374 23.9359 5.37865 24.6138 4.36468C23.6922 4.77307 22.7144 5.04084 21.7134 5.1592C22.7673 4.52827 23.5567 3.53516 23.9335 2.366C22.9423 2.95419 21.8577 3.36878 20.7268 3.59179C19.772 2.57642 18.4384 1.99997 17.0447 1.99997C14.2717 1.99997 11.99 4.28175 11.99 7.05465C11.99 7.43934 12.0339 7.82283 12.1208 8.19752C8.06252 7.99411 4.27613 6.07452 1.71311 2.92131C0.380313 5.21568 1.06993 8.18905 3.27657 9.66252C2.47302 9.63872 1.68672 9.42191 0.984554 9.03044V9.09443C0.985227 11.4892 2.68863 13.5706 5.03598 14.0448C4.29257 14.2475 3.51238 14.2771 2.75579 14.1314C3.4157 16.1835 5.31866 17.5979 7.47376 17.6384C5.68589 19.0435 3.47608 19.8067 1.20214 19.8044C0.800335 19.8037 0.398917 19.7793 0 19.7316C2.30918 21.2134 4.9968 21.9997 7.74057 21.996" fill="#1DA1F2"/>
    </g>
    <defs>
        <clipPath id="clip0_455_998">
            <rect width="24" height="24" fill="white"/>
        </clipPath>
    </defs>
</svg>
