<svg width="18" height="16" viewBox="0 0 18 16" fill="none" xmlns="http://www.w3.org/2000/svg">
    <path d="M11.8743 8.54167L11.2077 7.87501C11.3327 7.15278 11.128 6.52417 10.5935 5.98917C10.0585 5.45473 9.4299 5.25001 8.70768 5.37501L8.04102 4.70834C8.17991 4.65278 8.32574 4.61112 8.47852 4.58334C8.63129 4.55556 8.80491 4.54167 8.99935 4.54167C9.84657 4.54167 10.5655 4.83667 11.156 5.42667C11.746 6.01723 12.041 6.73612 12.041 7.58334C12.041 7.77778 12.0271 7.95473 11.9993 8.11417C11.9716 8.27417 11.9299 8.41667 11.8743 8.54167ZM14.4993 11.1042L13.8744 10.5417C14.4021 10.1389 14.871 9.69778 15.281 9.21834C15.6905 8.73945 16.041 8.19445 16.3327 7.58334C15.6382 6.18056 14.6416 5.06584 13.3427 4.23917C12.0443 3.41306 10.5966 3.00001 8.99935 3.00001C8.59657 3.00001 8.20074 3.02778 7.81185 3.08334C7.42296 3.13889 7.04102 3.22223 6.66602 3.33334L6.02018 2.68751C6.50629 2.50695 6.99935 2.37501 7.49935 2.29167C7.99935 2.20834 8.49935 2.16667 8.99935 2.16667C10.8049 2.16667 12.4577 2.66306 13.9577 3.65584C15.4577 4.64917 16.5618 5.95834 17.2702 7.58334C16.9646 8.25001 16.586 8.87834 16.1343 9.46834C15.6832 10.0589 15.1382 10.6042 14.4993 11.1042ZM15.4368 15.625L12.1868 12.375C11.8257 12.5417 11.371 12.6875 10.8227 12.8125C10.2738 12.9375 9.66602 13 8.99935 13C7.1799 13 5.52713 12.5033 4.04102 11.51C2.5549 10.5172 1.45074 9.20834 0.728516 7.58334C1.04796 6.84723 1.47518 6.15612 2.01018 5.51001C2.54463 4.86445 3.11046 4.32639 3.70768 3.89584L1.37435 1.56251L1.97852 0.979172L16.0202 15.0208L15.4368 15.625ZM4.29102 4.47917C3.81879 4.82639 3.33268 5.27778 2.83268 5.83334C2.33268 6.38889 1.94379 6.97223 1.66602 7.58334C2.36046 8.98612 3.35685 10.1006 4.65518 10.9267C5.95407 11.7533 7.40213 12.1667 8.99935 12.1667C9.48546 12.1667 9.97157 12.1214 10.4577 12.0308C10.9438 11.9408 11.3118 11.8472 11.5618 11.75L10.1868 10.375C10.0618 10.4445 9.88129 10.5033 9.64518 10.5517C9.40907 10.6006 9.19379 10.625 8.99935 10.625C8.15213 10.625 7.43352 10.3297 6.84352 9.73917C6.25296 9.14917 5.95768 8.43056 5.95768 7.58334C5.95768 7.40278 5.98213 7.19778 6.03102 6.96834C6.07935 6.73945 6.13824 6.54862 6.20768 6.39584L4.29102 4.47917Z" fill="#91989E"/>
</svg>
