<svg width="16" height="14" viewBox="0 0 16 14" fill="none" xmlns="http://www.w3.org/2000/svg">
<path d="M0 3.81996L0.646 4.67096C0.646 4.67096 1.986 3.61396 2.432 4.13996C2.884 4.67096 4.595 11.047 5.161 12.226C5.655 13.259 7.026 14.622 8.524 13.65C10.036 12.672 15.027 8.40996 15.921 3.36696C16.813 -1.66704 9.905 -0.613039 9.181 3.77496C11.003 2.68096 11.985 4.22296 11.051 5.96596C10.115 7.71596 9.256 8.85696 8.811 8.85696C8.374 8.85696 8.028 7.68296 7.516 5.64496C6.991 3.53396 6.991 -0.272039 4.795 0.159961C2.719 0.569961 0 3.81996 0 3.81996Z" fill="#007AFF"/>
</svg>
