<svg width="36" height="28" viewBox="0 0 36 28" fill="none" xmlns="http://www.w3.org/2000/svg">
    <g clip-path="url(#clip0_11_73077)">
        <path d="M17.5712 11.736C17.5518 13.2643 18.9332 14.1172 19.9738 14.6243C21.043 15.1446 21.4021 15.4782 21.3981 15.9434C21.3899 16.6555 20.5452 16.9698 19.7545 16.982C18.3752 17.0034 17.5733 16.6096 16.9356 16.3117L16.4388 18.6368C17.0785 18.9316 18.2629 19.1887 19.4913 19.2C22.3744 19.2 24.2608 17.7767 24.271 15.57C24.2822 12.7695 20.3972 12.6144 20.4238 11.3626C20.4329 10.9831 20.7951 10.5781 21.5888 10.475C21.9816 10.423 23.0661 10.3832 24.2955 10.9494L24.778 8.69986C24.1169 8.45909 23.2671 8.22852 22.2091 8.22852C19.4954 8.22852 17.5865 9.67111 17.5712 11.736ZM29.4149 8.42237C28.8885 8.42237 28.4447 8.72945 28.2468 9.20079L24.1282 19.0347H27.0093L27.5826 17.4503H31.1034L31.436 19.0347H33.9753L31.7594 8.42237H29.4149ZM29.8179 11.2892L30.6494 15.2742H28.3723L29.8179 11.2892ZM14.078 8.42237L11.807 19.0347H14.5524L16.8224 8.42237H14.078ZM10.0165 8.42237L7.15887 15.6455L6.00296 9.5038C5.86728 8.81821 5.33166 8.42237 4.73687 8.42237H0.065294L0 8.73047C0.959005 8.93859 2.0486 9.27425 2.70868 9.63336C3.11269 9.85271 3.22797 10.0445 3.3606 10.5658L5.54999 19.0347H8.45149L12.8996 8.42237H10.0165Z" fill="#1B2073"/>
        <path d="M0 0H34.9586V3.65714H0V0Z" fill="#1B2073"/>
        <path d="M0 23.7715H34.9586V27.4286H0V23.7715Z" fill="#F7B802"/>
    </g>
    <defs>
        <clipPath id="clip0_11_73077">
            <rect width="36" height="27.4286" fill="white"/>
        </clipPath>
    </defs>
</svg>
