<svg width="21" height="20" viewBox="0 0 21 20" fill="none" xmlns="http://www.w3.org/2000/svg">
<mask id="mask0_9_18474" style="mask-type:alpha" maskUnits="userSpaceOnUse" x="0" y="0" width="21" height="20">
<rect x="0.5" width="20" height="20" fill="#C4C4C4"/>
</mask>
<g mask="url(#mask0_9_18474)">
<path d="M13.8333 11.25C14.1944 11.25 14.493 11.132 14.7291 10.8958C14.9652 10.6597 15.0833 10.3611 15.0833 10C15.0833 9.6389 14.9652 9.34029 14.7291 9.10418C14.493 8.86807 14.1944 8.75001 13.8333 8.75001C13.4721 8.75001 13.1735 8.86807 12.9374 9.10418C12.7013 9.34029 12.5833 9.6389 12.5833 10C12.5833 10.3611 12.7013 10.6597 12.9374 10.8958C13.1735 11.132 13.4721 11.25 13.8333 11.25ZM4.66659 14.1667V15.3125V4.68751V5.83334C4.66659 5.83334 4.66659 6.03112 4.66659 6.42668C4.66659 6.82279 4.66659 7.35418 4.66659 8.02084V11.9792C4.66659 12.6458 4.66659 13.1772 4.66659 13.5733C4.66659 13.9689 4.66659 14.1667 4.66659 14.1667ZM5.18742 16.6667C4.79853 16.6667 4.47575 16.5383 4.21909 16.2817C3.96186 16.0245 3.83325 15.7014 3.83325 15.3125V4.68751C3.83325 4.29862 3.96186 3.97584 4.21909 3.71918C4.47575 3.46195 4.79853 3.33334 5.18742 3.33334H15.8124C16.2013 3.33334 16.5244 3.46195 16.7816 3.71918C17.0383 3.97584 17.1666 4.29862 17.1666 4.68751V7.12501H16.3333V4.68751C16.3333 4.53473 16.2846 4.40973 16.1874 4.31251C16.0902 4.21529 15.9652 4.16668 15.8124 4.16668H5.18742C5.03464 4.16668 4.90964 4.21529 4.81242 4.31251C4.7152 4.40973 4.66659 4.53473 4.66659 4.68751V15.3125C4.66659 15.4653 4.7152 15.5903 4.81242 15.6875C4.90964 15.7847 5.03464 15.8333 5.18742 15.8333H15.8124C15.9652 15.8333 16.0902 15.7847 16.1874 15.6875C16.2846 15.5903 16.3333 15.4653 16.3333 15.3125V12.875H17.1666V15.3125C17.1666 15.7014 17.0383 16.0245 16.7816 16.2817C16.5244 16.5383 16.2013 16.6667 15.8124 16.6667H5.18742ZM11.8541 13.3333C11.4652 13.3333 11.1424 13.2047 10.8858 12.9475C10.6285 12.6908 10.4999 12.3681 10.4999 11.9792V8.02084C10.4999 7.63195 10.6285 7.3089 10.8858 7.05168C11.1424 6.79501 11.4652 6.66668 11.8541 6.66668H16.6458C17.0346 6.66668 17.3577 6.79501 17.6149 7.05168C17.8716 7.3089 17.9999 7.63195 17.9999 8.02084V11.9792C17.9999 12.3681 17.8716 12.6908 17.6149 12.9475C17.3577 13.2047 17.0346 13.3333 16.6458 13.3333H11.8541ZM16.6458 12.5C16.7985 12.5 16.9235 12.4514 17.0208 12.3542C17.118 12.257 17.1666 12.132 17.1666 11.9792V8.02084C17.1666 7.86807 17.118 7.74307 17.0208 7.64584C16.9235 7.54862 16.7985 7.50001 16.6458 7.50001H11.8541C11.7013 7.50001 11.5763 7.54862 11.4791 7.64584C11.3819 7.74307 11.3333 7.86807 11.3333 8.02084V11.9792C11.3333 12.132 11.3819 12.257 11.4791 12.3542C11.5763 12.4514 11.7013 12.5 11.8541 12.5H16.6458Z" fill="#4D5760"/>
</g>
</svg>
