<svg width="20" height="20" viewBox="0 0 20 20" fill="none" xmlns="http://www.w3.org/2000/svg">
    <path d="M4.53999 -3.05176e-05C4.09999 0.0199694 3.51999 0.0599694 3.25999 0.119969C2.85999 0.199969 2.48 0.319969 2.18 0.479969C1.8 0.659968 1.48 0.899968 1.2 1.17997C0.899998 1.47997 0.659999 1.79997 0.479999 2.17997C0.319999 2.47996 0.2 2.85996 0.12 3.25996C0.0599999 3.51996 0.02 4.09996 0.02 4.53996C0 4.71996 0 4.95996 0 5.07996V14.92V15.46C0.02 15.9 0.0599999 16.48 0.12 16.74C0.2 17.14 0.319999 17.52 0.479999 17.82C0.659999 18.2 0.899998 18.52 1.18 18.8C1.48 19.1 1.8 19.34 2.18 19.52C2.48 19.68 2.85999 19.8 3.25999 19.88C3.51999 19.94 4.09999 19.98 4.53999 19.98C4.71999 20 4.95999 20 5.07999 20H14.92H15.46C15.9 19.98 16.48 19.94 16.74 19.88C17.14 19.8 17.52 19.68 17.82 19.52C18.2 19.34 18.52 19.1 18.8 18.82C19.1 18.52 19.34 18.2 19.52 17.82C19.68 17.52 19.8 17.14 19.88 16.74C19.94 16.48 19.98 15.9 19.98 15.46C20 15.28 20 15.04 20 14.92V4.53996C19.98 4.09996 19.94 3.51996 19.88 3.25996C19.8 2.85996 19.68 2.47996 19.52 2.17997C19.34 1.79997 19.1 1.47997 18.82 1.19997C18.52 0.899968 18.2 0.659968 17.82 0.479969C17.52 0.319969 17.14 0.199969 16.74 0.119969C16.48 0.0599694 15.9 0.0199694 15.46 0.0199694C15.28 -3.05199e-05 15.04 -3.05176e-05 14.92 -3.05176e-05H4.53999Z" fill="url(#paint0_linear_312_1641)"/>
    <path fill-rule="evenodd" clip-rule="evenodd" d="M13.4471 11.3385C13.269 11.2494 12.3932 10.8186 12.2299 10.7592C12.0666 10.6998 11.9479 10.67 11.8292 10.8483C11.7104 11.0266 11.369 11.4277 11.2651 11.5466C11.1612 11.6654 11.0573 11.6803 10.8792 11.5911C10.701 11.502 10.1271 11.3139 9.44667 10.7072C8.91714 10.2351 8.5596 9.65187 8.45569 9.47359C8.35179 9.29531 8.44464 9.19894 8.53382 9.11015C8.61393 9.03043 8.71194 8.90218 8.801 8.7982C8.89007 8.69422 8.91975 8.61992 8.97913 8.50109C9.0385 8.38226 9.00882 8.27824 8.96429 8.1891C8.91975 8.09996 8.5635 7.22348 8.41507 6.86691C8.2705 6.51969 8.12362 6.56668 8.01429 6.56121C7.9105 6.55606 7.79163 6.55496 7.67288 6.55496C7.55409 6.55496 7.36116 6.59953 7.19784 6.77777C7.03456 6.95606 6.57441 7.38691 6.57441 8.2634C6.57441 9.13988 7.21269 9.98667 7.30175 10.1055C7.39085 10.2244 8.55788 12.0231 10.3448 12.7944C10.7698 12.9779 11.1016 13.0875 11.3603 13.1696C11.787 13.3051 12.1754 13.286 12.4823 13.2401C12.8245 13.189 13.5362 12.8093 13.6847 12.3933C13.8331 11.9774 13.8331 11.6208 13.7885 11.5466C13.744 11.4723 13.6253 11.4277 13.4471 11.3385ZM10.1969 15.775H10.1945C9.1312 15.7746 8.08835 15.489 7.17859 14.9493L6.96222 14.8209L4.71953 15.409L5.31816 13.2232L5.17722 12.9991C4.5841 12.0559 4.27086 10.9659 4.27129 9.8466C4.27258 6.58055 6.93077 3.92337 10.1992 3.92337C11.7819 3.92399 13.2697 4.54098 14.3884 5.66063C15.5072 6.78027 16.1229 8.26859 16.1224 9.85136C16.121 13.1176 13.4629 15.775 10.1969 15.775ZM15.2399 4.80981C13.8939 3.4627 12.1039 2.72048 10.1968 2.7197C6.26734 2.7197 3.06918 5.9166 3.06762 9.84613C3.06711 11.1022 3.39535 12.3284 4.01922 13.4091L3.00781 17.1022L6.7871 16.1112C7.82839 16.679 9.00077 16.9782 10.194 16.9787H10.1969C14.126 16.9787 17.3244 13.7814 17.326 9.85183C17.3268 7.9475 16.5859 6.15692 15.2399 4.80981Z" fill="white"/>
    <defs>
        <linearGradient id="paint0_linear_312_1641" x1="9.99998" y1="20" x2="9.99998" y2="7.62932e-06" gradientUnits="userSpaceOnUse">
            <stop stop-color="#25CF43"/>
            <stop offset="1" stop-color="#61FD7D"/>
        </linearGradient>
    </defs>
</svg>
