<svg width="14" height="14" viewBox="0 0 14 14" fill="none" xmlns="http://www.w3.org/2000/svg">
    <path d="M6.9987 0.333313C3.3187 0.333313 0.332031 3.31998 0.332031 6.99998C0.332031 10.68 3.3187 13.6666 6.9987 13.6666C10.6787 13.6666 13.6654 10.68 13.6654 6.99998C13.6654 3.31998 10.6787 0.333313 6.9987 0.333313ZM1.66536 6.99998C1.66536 6.59331 1.7187 6.19331 1.80536 5.81331L4.99203 8.99998V9.66665C4.99203 10.4 5.59203 11 6.32537 11V12.2866C3.70536 11.9533 1.66536 9.71331 1.66536 6.99998ZM10.9254 10.6C10.752 10.06 10.2587 9.66665 9.6587 9.66665H8.99203V7.66665C8.99203 7.29998 8.69203 6.99998 8.32537 6.99998H4.32536V5.66665H5.6587C6.02537 5.66665 6.32537 5.36665 6.32537 4.99998V3.66665H7.6587C8.39203 3.66665 8.99203 3.06665 8.99203 2.33331V2.05998C10.9454 2.84665 12.332 4.76665 12.332 6.99998C12.332 8.38665 11.792 9.65331 10.9254 10.6Z" fill="#B8BABB"/>
</svg>
