<svg width="24" height="24" viewBox="0 0 24 24" fill="none" xmlns="http://www.w3.org/2000/svg">
    <g clip-path="url(#clip0_455_1662)">
        <path d="M23.5055 6.2388C23.2288 5.21067 22.4182 4.40025 21.3903 4.1234C19.5122 3.60942 11.9998 3.60942 11.9998 3.60942C11.9998 3.60942 4.48753 3.60942 2.60943 4.1038C1.60125 4.38047 0.770871 5.21085 0.4942 6.2388C0 8.11673 0 12.0114 0 12.0114C0 12.0114 0 15.9256 0.4942 17.7839C0.771054 18.8119 1.58148 19.6225 2.60961 19.8993C4.50731 20.4133 12 20.4133 12 20.4133C12 20.4133 19.5122 20.4133 21.3903 19.9189C22.4184 19.6423 23.2288 18.8316 23.5057 17.8037C23.9999 15.9256 23.9999 12.0311 23.9999 12.0311C23.9999 12.0311 24.0197 8.11673 23.5055 6.2388Z" fill="#FF0000"/>
        <path d="M9.60791 15.6095L15.8549 12.0114L9.60791 8.41342V15.6095Z" fill="white"/>
    </g>
    <defs>
        <clipPath id="clip0_455_1662">
            <rect width="24" height="24" fill="white"/>
        </clipPath>
    </defs>
</svg>
