<svg width="20" height="20" viewBox="0 0 20 20" fill="none" xmlns="http://www.w3.org/2000/svg">
<path d="M2.54171 2.80069C1.23199 4.16111 1.50004 5.60625 1.50004 9.99653C1.50004 13.6424 0.863932 17.2972 4.1931 18.1576C5.23268 18.425 14.4438 18.425 15.482 18.1562C16.8681 17.7986 17.9959 16.6743 18.15 14.7139C18.1716 14.4403 18.1716 5.55764 18.1493 5.27847C17.9855 3.19028 16.7 1.9868 15.0063 1.74305C14.6181 1.6868 14.5403 1.67014 12.5487 1.66666C5.48407 1.67014 3.93546 1.35555 2.54171 2.80069Z" fill="url(#paint0_linear_9_19425)"/>
<path d="M9.83203 3.84645C7.3105 3.84645 4.91606 3.62215 4.00148 5.96937C3.6237 6.93882 3.67856 8.19784 3.67856 10.0006C3.67856 11.5826 3.62787 13.0694 4.00148 14.0312C4.91398 16.3798 7.32787 16.1548 9.83064 16.1548C12.2452 16.1548 14.7348 16.4062 15.6605 14.0312C16.039 13.052 15.9834 11.8117 15.9834 10.0006C15.9834 7.59645 16.1161 6.04437 14.9501 4.87909C13.7695 3.69854 12.173 3.84645 9.82925 3.84645H9.83203ZM9.28064 4.95548C14.5404 4.94715 15.2098 4.36243 14.8404 12.4853C14.7091 15.3583 12.5216 15.043 9.83273 15.043C4.92995 15.043 4.78898 14.9027 4.78898 9.99784C4.78898 5.03604 5.17787 4.95826 9.28064 4.95409V4.95548ZM13.1168 5.97701C12.7091 5.97701 12.3786 6.30757 12.3786 6.7152C12.3786 7.12284 12.7091 7.4534 13.1168 7.4534C13.5244 7.4534 13.8549 7.12284 13.8549 6.7152C13.8549 6.30757 13.5244 5.97701 13.1168 5.97701ZM9.83203 6.8402C8.08689 6.8402 6.67231 8.25548 6.67231 10.0006C6.67231 11.7458 8.08689 13.1603 9.83203 13.1603C11.5772 13.1603 12.9911 11.7458 12.9911 10.0006C12.9911 8.25548 11.5772 6.8402 9.83203 6.8402ZM9.83203 7.94923C12.5438 7.94923 12.5473 12.052 9.83203 12.052C7.12092 12.052 7.11675 7.94923 9.83203 7.94923Z" fill="white"/>
<defs>
<linearGradient id="paint0_linear_9_19425" x1="2.57367" y1="17.2688" x2="18.0636" y2="3.86248" gradientUnits="userSpaceOnUse">
<stop stop-color="#FFDD55"/>
<stop offset="0.5" stop-color="#FF543E"/>
<stop offset="1" stop-color="#C837AB"/>
</linearGradient>
</defs>
</svg>
