<svg width="20" height="20" viewBox="0 0 20 20" fill="none" xmlns="http://www.w3.org/2000/svg">
<path fill-rule="evenodd" clip-rule="evenodd" d="M18.3334 3.75002C18.3334 2.60018 17.3999 1.66669 16.2501 1.66669H3.75008C2.60024 1.66669 1.66675 2.60018 1.66675 3.75002V16.25C1.66675 17.3999 2.60024 18.3334 3.75008 18.3334H16.2501C17.3999 18.3334 18.3334 17.3999 18.3334 16.25V3.75002Z" fill="#2867B2"/>
<path d="M6.44425 7.48126H3.65259V15.8785H6.44425V7.48126Z" fill="white"/>
<path d="M5.06891 3.43262C4.1138 3.43262 3.48975 4.06055 3.48975 4.88356C3.48975 5.68929 4.09482 6.33454 5.03197 6.33454H5.05C6.0234 6.33454 6.6293 5.68929 6.6293 4.88356C6.61123 4.06055 6.02347 3.43262 5.06891 3.43262Z" fill="white"/>
<path d="M13.3047 7.28595C11.8239 7.28595 11.1607 8.10031 10.7892 8.67231V7.48341H7.99829C8.0353 8.27107 7.99829 15.8806 7.99829 15.8806H10.7892V11.191C10.7892 10.94 10.8072 10.689 10.8812 10.5096C11.0827 10.0083 11.5422 9.48907 12.3133 9.48907C13.3228 9.48907 13.7272 10.2594 13.7272 11.3877V15.8806H16.5183V11.0651C16.5183 8.48582 15.1412 7.28595 13.3047 7.28595Z" fill="white"/>
</svg>
