<svg width="20" height="20" viewBox="0 0 20 20" fill="none" xmlns="http://www.w3.org/2000/svg">
<g clip-path="url(#clip0_9_19437)">
<path d="M6.45048 18.3333C14.1907 18.3333 18.4243 11.9206 18.4243 6.35948C18.4243 6.17736 18.4243 5.99604 18.412 5.81553C19.2356 5.21977 19.9465 4.4822 20.5115 3.63722C19.7435 3.97754 18.9287 4.20068 18.0945 4.29931C18.9728 3.77355 19.6305 2.94595 19.9446 1.97166C19.1186 2.46181 18.2147 2.8073 17.2724 2.99315C16.4767 2.147 15.3653 1.66663 14.2039 1.66663C11.8931 1.66663 9.99164 3.56811 9.99164 5.87886C9.99164 6.19944 10.0283 6.51901 10.1007 6.83125C6.71877 6.66175 3.56344 5.06209 1.42759 2.43441C0.316927 4.34639 0.891611 6.8242 2.73048 8.05208C2.06085 8.03225 1.4056 7.85158 0.820462 7.52535V7.57868C0.821022 9.57431 2.24052 11.3089 4.19665 11.704C3.57714 11.8729 2.92698 11.8976 2.29649 11.7762C2.84642 13.4862 4.43222 14.6649 6.22814 14.6987C4.73825 15.8695 2.89673 16.5056 1.00178 16.5037C0.666946 16.503 0.332431 16.4828 0 16.4429C1.92432 17.6778 4.164 18.3331 6.45048 18.33" fill="#1DA1F2"/>
</g>
<defs>
<clipPath id="clip0_9_19437">
<rect width="20" height="20" fill="white"/>
</clipPath>
</defs>
</svg>
