<svg width="220" height="200" viewBox="0 0 220 200" fill="none" xmlns="http://www.w3.org/2000/svg">
<g clip-path="url(#clip0_9_33085)">
<path fill-rule="evenodd" clip-rule="evenodd" d="M36.3952 179.339C36.3952 179.339 45.8088 166.659 51.9242 158.429C55.1443 154.091 60.2286 151.537 65.6291 151.544L131.998 151.628L131.963 179.459L36.3952 179.339Z" fill="#FFEEE7"/>
<path fill-rule="evenodd" clip-rule="evenodd" d="M188.183 179.53L169.026 151.674L94.0708 151.58L94.0357 179.411L188.183 179.53Z" fill="#FFEEE7"/>
<path d="M55.9113 74.144C57.8097 74.2489 56.8974 76.0997 55.9088 76.1497L29.2844 76.1161C28.2397 76.0563 27.7927 74.1891 29.2869 74.1105L55.9113 74.144Z" fill="#FFEEE7"/>
<path d="M215.255 74.3279C217.253 74.4548 216.232 76.2762 215.253 76.3335L178.067 76.2867C177.021 76.2195 176.586 74.3743 178.07 74.281L215.255 74.3279Z" fill="#FFEEE7"/>
<path d="M165.005 74.2893C166.02 74.3937 166.308 76.1477 165.002 76.2836L71.2913 76.1656C70.2035 76.0611 69.9881 74.2728 71.2938 74.1713L165.005 74.2893Z" fill="#FFEEE7"/>
<path d="M81.2734 75.3919C84.2929 80.7991 93.5237 80.6599 96.5946 80.9926C110.541 82.5233 107.937 93.1581 101.912 99.6922C98.4085 103.498 94.1157 105.407 90.3327 105.908" stroke="#FFEEE7" stroke-width="2.00318" stroke-miterlimit="1.5" stroke-linecap="round"/>
<path d="M129.052 80.1585C138.691 85.8611 145.103 95.5208 145.326 103.748" stroke="#FFEEE7" stroke-width="1.99868" stroke-miterlimit="1.5" stroke-linecap="round"/>
<path d="M116.726 82.3793C115.614 81.3548 114.307 80.4452 112.822 80.0873M121.347 102.306C122.017 100.768 122.579 99.2198 122.768 97.5466L121.347 102.306ZM123.071 90.5949C122.93 89.224 122.362 87.8169 121.563 86.685L123.071 90.5949Z" stroke="#FFEEE7" stroke-width="2.00318" stroke-miterlimit="1.5" stroke-linecap="round"/>
<path d="M202.368 20.2824L192.821 20.2704C169.444 20.241 147.597 31.6873 134.235 50.8912C127.483 60.6691 121.715 69.0132 121.715 69.0132" stroke="#FFEEE7" stroke-width="2.00101" stroke-miterlimit="1.5" stroke-linecap="round"/>
<path fill-rule="evenodd" clip-rule="evenodd" d="M43.0822 59.4267L48.5396 75.8679L37.5834 75.8541L43.0822 59.4267Z" fill="#FFEEE7"/>
<path fill-rule="evenodd" clip-rule="evenodd" d="M192.137 62.1386L196.756 76.0524L187.484 76.0407L192.137 62.1386Z" fill="#FFEEE7"/>
<path fill-rule="evenodd" clip-rule="evenodd" d="M204.337 61.4221L208.955 75.3359L199.684 75.3242L204.337 61.4221Z" fill="#FFEEE7"/>
<path fill-rule="evenodd" clip-rule="evenodd" d="M29.4459 46.1925L41.135 46.2072C47.9733 46.2131 54.7186 47.7921 60.8489 50.8221C66.9793 53.8521 72.3304 58.2517 76.4883 63.6807C78.1122 65.7665 79.1785 67.1705 79.1785 67.1705" fill="white"/>
<path d="M29.4459 46.1925L41.135 46.2072C47.9733 46.2131 54.7186 47.7921 60.8489 50.8221C66.9793 53.8521 72.3304 58.2517 76.4883 63.6807C78.1122 65.7665 79.1785 67.1705 79.1785 67.1705" stroke="#FFEEE7" stroke-width="1.99756" stroke-miterlimit="1.5" stroke-linecap="round"/>
<path d="M202.483 33.5703C192.015 33.5571 182.345 39.0992 176.991 48.1281C173.69 53.7513 170.682 58.85 170.682 58.85L167.095 58.8454C161.532 58.8384 156.185 61.3032 152.52 65.5839" stroke="#FFEEE7" stroke-width="1.99447" stroke-miterlimit="1.5" stroke-linecap="round"/>
<path fill-rule="evenodd" clip-rule="evenodd" d="M49.1673 150.425C49.1673 150.425 42.0072 124.929 38.2623 111.505C37.7116 109.576 38.1572 107.507 39.2656 105.902C40.4847 104.297 42.3663 103.345 44.3579 103.31C59.8481 103.074 93.4832 102.606 118.046 102.665C141.17 102.723 170.489 103.223 184.54 103.486C186.531 103.517 188.41 104.483 189.625 106.091C190.841 107.699 191.17 109.769 190.615 111.697C186.836 125.111 179.612 150.589 179.612 150.589" fill="#FFEEE7"/>
<path fill-rule="evenodd" clip-rule="evenodd" d="M35.6801 155.382L71.0462 154.893L56.9962 150.576L59.8177 143.77L105.188 94.9404L17.9472 99.8597L35.6801 155.382Z" fill="white"/>
<path fill-rule="evenodd" clip-rule="evenodd" d="M156.094 154.442L199.139 156.49L211.263 100.106L145.855 100.024L156.094 154.442Z" fill="white"/>
<path d="M49.1673 150.425C49.1673 150.425 42.0072 124.929 38.2623 111.505C37.7116 109.576 38.1572 107.507 39.2656 105.902C40.4847 104.297 42.3663 103.345 44.3579 103.31C59.8481 103.074 93.4832 102.606 118.046 102.665C141.17 102.723 170.489 103.223 184.54 103.486C186.531 103.517 188.41 104.483 189.625 106.091C190.841 107.699 191.17 109.769 190.615 111.697C186.836 125.111 179.612 150.589 179.612 150.589" stroke="#FFEEE7" stroke-width="1.98372" stroke-miterlimit="1.5" stroke-linecap="round"/>
<path fill-rule="evenodd" clip-rule="evenodd" d="M29.2412 139.379L46.6743 127.189L55.3676 139.622L37.9345 151.812L29.2412 139.379Z" fill="white"/>
<path fill-rule="evenodd" clip-rule="evenodd" d="M58.9278 142.838L66.432 135.932L66.5242 122.984C66.5242 122.984 60.2063 120.118 54.5188 123.269C45.6576 128.186 43.588 141.497 30.1704 141.199C12.2922 140.802 5.60696 149.854 5.24039 161.2C5.00251 168.554 11.1451 173.762 19.535 175.581L45.7693 175.614" fill="#FFEEE7"/>
<path fill-rule="evenodd" clip-rule="evenodd" d="M177.188 132.967L194.986 134.542L192.568 161.848L174.771 160.273L177.188 132.967Z" fill="white"/>
<path fill-rule="evenodd" clip-rule="evenodd" d="M173.065 138.119C173.065 138.119 177.746 145.217 185.41 149.556C198.19 156.796 211.139 155.762 213.521 147.717C215.76 140.149 212.817 134.946 205.576 132.716C201.646 131.502 197.596 132.406 193.862 134.107C188.916 136.368 182.33 138.796 174.715 135.853" fill="#FFEEE7"/>
<path d="M56.5575 151.544L178.918 151.698" stroke="white" stroke-width="2.00318" stroke-miterlimit="1.5" stroke-linecap="round" stroke-linejoin="round"/>
<path d="M95.4725 165.507L128.131 165.548" stroke="white" stroke-width="1.41969" stroke-miterlimit="1.5" stroke-linecap="round" stroke-linejoin="round"/>
<path d="M92.6292 170.986L130.045 171.034" stroke="white" stroke-width="1.48659" stroke-miterlimit="1.5" stroke-linecap="round" stroke-linejoin="round"/>
<path d="M94.5364 175.673L128.118 175.716" stroke="white" stroke-width="1.41969" stroke-miterlimit="1.5" stroke-linecap="round" stroke-linejoin="round"/>
<path d="M118.547 110.329C114.711 121.755 99.7829 123.542 103.347 131.294C106.889 139.057 123.165 138.709 124.52 151.365" stroke="white" stroke-width="1.81409" stroke-miterlimit="1.5" stroke-linecap="round"/>
<path d="M145.756 151.658C145.378 151.684 144.998 151.727 144.618 151.77C142.504 152.048 140.418 152.668 138.633 154.015C135.823 156.124 134.183 160.426 132.927 163.957C131.223 168.766 128.977 174.47 127.415 179.332" stroke="white" stroke-width="1.90217" stroke-miterlimit="1.5" stroke-linecap="round" stroke-linejoin="round"/>
<path d="M68.8474 151.573L74.571 151.58C77.9744 151.745 82.9851 152.637 85.5579 154.392C88.7259 156.551 89.9631 160.943 90.8626 164.547C92.0791 169.457 93.8945 174.341 94.9192 179.304" stroke="white" stroke-width="2.09174" stroke-miterlimit="1.5" stroke-linecap="round" stroke-linejoin="round"/>
<path d="M59.2101 142.915L53.4594 160.02" stroke="#FF8D57" stroke-width="1.99618" stroke-miterlimit="1.5" stroke-linecap="round" stroke-linejoin="round"/>
<path fill-rule="evenodd" clip-rule="evenodd" d="M32.4867 179.996C32.4867 179.996 31.3685 175.169 30.0254 169.545C29.0179 165.433 30.0347 161.09 32.6267 157.766C35.2188 154.442 39.2735 152.509 43.4366 152.514L65.6012 152.542C73.8148 152.553 80.8953 158.212 82.6855 166.188C84.3645 173.105 85.9314 180.063 85.9314 180.063" fill="#FFAA81"/>
<path d="M32.4865 179.486C32.4865 179.486 31.479 175.446 30.2475 170.556C29.24 166.424 30.147 162.033 32.7391 158.677C35.3312 155.321 39.3833 153.353 43.6589 153.358L52.6601 153.37" stroke="#FF5403" stroke-width="1.98884" stroke-miterlimit="1.5" stroke-linecap="round" stroke-linejoin="round"/>
<path fill-rule="evenodd" clip-rule="evenodd" d="M132.095 106.698C132.096 105.532 131.145 104.584 130.003 104.583L109.354 104.557C108.212 104.555 107.26 105.501 107.259 106.667L107.253 110.893C107.252 112.059 108.202 113.007 109.344 113.009L129.992 113.035C131.134 113.036 132.088 112.091 132.089 110.924L132.095 106.698Z" fill="#FFEEE7" stroke="white" stroke-width="1.99094" stroke-miterlimit="1.5" stroke-linecap="round" stroke-linejoin="round"/>
<path d="M142.963 125.904C143.823 123.223 145.515 120.885 147.792 119.229C150.07 117.573 152.815 116.684 155.631 116.692C158.589 116.705 161.889 116.71 164.985 116.713C171.625 116.732 176.999 122.129 176.991 128.769L176.991 128.779C176.986 132.734 174.979 136.423 171.657 138.577C169.389 140.058 167.25 141.442 167.25 141.442" stroke="#FFAA81" stroke-width="2.00224" stroke-miterlimit="1.5" stroke-linecap="round" stroke-linejoin="round"/>
<path fill-rule="evenodd" clip-rule="evenodd" d="M189.182 180.193C189.182 180.193 190.312 175.369 191.669 169.748C192.687 165.639 191.681 161.293 189.098 157.963C186.514 154.633 182.464 152.69 178.301 152.684L156.136 152.656C147.923 152.646 140.828 158.287 139.018 166.259C137.321 173.172 135.737 180.126 135.737 180.126" fill="#FFAA81"/>
<path d="M188.715 179.682C188.715 179.682 189.733 175.645 190.977 170.758C191.994 166.629 191.099 162.236 188.515 158.874C185.931 155.511 181.884 153.532 177.609 153.527L168.607 153.516" stroke="#FF5403" stroke-width="1.98884" stroke-miterlimit="1.5" stroke-linecap="round" stroke-linejoin="round"/>
<path d="M177.789 172.398L176.217 179.526" stroke="#FF8D57" stroke-width="2.03385" stroke-miterlimit="1.5" stroke-linecap="round" stroke-linejoin="round"/>
<path d="M165.927 172.383L164.356 179.511" stroke="#FF8D57" stroke-width="2.03385" stroke-miterlimit="1.5" stroke-linecap="round" stroke-linejoin="round"/>
<path d="M154.056 172.368L152.484 179.496" stroke="#FF8D57" stroke-width="2.03385" stroke-miterlimit="1.5" stroke-linecap="round" stroke-linejoin="round"/>
<path d="M181.515 166.443L151.853 166.406" stroke="#FF8D57" stroke-width="1.99969" stroke-miterlimit="1.5" stroke-linecap="round" stroke-linejoin="round"/>
<path d="M43.8993 172.229L45.4531 179.361" stroke="#FF8D57" stroke-width="2.03385" stroke-miterlimit="1.5" stroke-linecap="round" stroke-linejoin="round"/>
<path d="M55.7701 172.244L57.3239 179.376" stroke="#FF8D57" stroke-width="2.03385" stroke-miterlimit="1.5" stroke-linecap="round" stroke-linejoin="round"/>
<path d="M67.6317 172.259L69.1855 179.391" stroke="#FF8D57" stroke-width="2.03385" stroke-miterlimit="1.5" stroke-linecap="round" stroke-linejoin="round"/>
<path fill-rule="evenodd" clip-rule="evenodd" d="M70.2844 127.126C69.5826 125.382 68.2772 123.985 66.4799 123.232L66.4825 123.203C66.4825 123.203 65.7687 134.134 57.7293 135.71C57.7293 135.71 57.0644 135.132 56.4112 134.426C55.7541 133.763 54.7825 133.387 53.9179 133.423C52.9123 133.432 52.0163 133.824 51.3792 134.512C50.5827 135.372 50.3247 136.611 50.6528 137.732C52.6671 143.96 63.9686 149.099 69.7341 147.273C72.8435 146.236 73.8025 143.611 73.1441 138.254C73.1441 138.254 75.095 137.327 76.8918 136.515C77.3371 136.355 77.5156 135.955 77.411 135.529C77.4475 135.13 77.049 134.778 76.7682 134.709C75.5 134.45 74.2344 134.162 73.2483 133.957C72.4046 133.765 71.7512 133.073 71.687 132.206C71.5155 130.942 71.1156 129.025 70.2844 127.126Z" fill="#FFAA81"/>
<path fill-rule="evenodd" clip-rule="evenodd" d="M146.104 125.623C146.918 122.926 151.24 121.039 153.587 120.47C158.298 119.324 165.252 119.014 169.574 121.315C172.998 123.137 175.545 130.814 171.791 134.875C170.495 136.279 161.924 141.618 161.924 141.618" fill="#FFEEE7"/>
<path d="M73.7894 130.939C75.5434 122.002 65.0107 115.871 56.2504 118.745C50.2027 120.734 46.6557 125.629 43.1739 130.207C41.2575 132.715 39.2349 135.58 35.3805 136.999C28.6473 139.483 22.9121 137.274 15.5298 139.644C2.93688 143.695 1.93843 154.534 1.93843 154.534" stroke="#FF8D57" stroke-width="1.99568" stroke-miterlimit="1.5" stroke-linecap="round" stroke-linejoin="round"/>
<path d="M176.056 133.622C177.673 134.23 179.458 134.62 181.518 134.479C188.614 134.004 192.085 129.721 198.95 129.035C210.994 127.836 215.286 134.701 217.028 139.008" stroke="#FFAA81" stroke-width="1.99568" stroke-miterlimit="1.5" stroke-linecap="round" stroke-linejoin="round"/>
<path d="M201.349 133.116C204.444 133.242 207.885 134.245 210.368 136.413C213.059 138.751 214.693 142.81 214.918 146.613" stroke="#FFAA81" stroke-width="1.99506" stroke-miterlimit="1.5" stroke-linecap="round" stroke-linejoin="round"/>
<path d="M16.5256 143.802C16.5256 143.802 5.77538 146.445 5.28086 158.994" stroke="#FF8D57" stroke-width="2.00254" stroke-miterlimit="1.5" stroke-linecap="round" stroke-linejoin="round"/>
<path d="M19.5366 179.459L213.98 179.704" stroke="#FF5403" stroke-width="2.00131" stroke-miterlimit="1.5" stroke-linecap="round"/>
<path d="M43.0062 166.268L72.6688 166.306" stroke="#FF8D57" stroke-width="1.99969" stroke-miterlimit="1.5" stroke-linecap="round" stroke-linejoin="round"/>
<path d="M68.5032 131.869C68.6767 132.481 68.7471 133.099 68.7932 133.726" stroke="#FF5403" stroke-width="1.99568" stroke-miterlimit="1.5" stroke-linecap="round"/>
<path d="M70.0603 139.995C69.6695 140.094 68.5901 140.194 67.7045 139.64" stroke="#FF5403" stroke-width="2.00224" stroke-miterlimit="1.5" stroke-linecap="round"/>
<path d="M91.0752 145.031C104.584 149.335 112.055 163.805 107.753 177.308C107.565 177.896 107.361 178.468 107.137 179.032" stroke="#FF5403" stroke-width="2.99727" stroke-miterlimit="1.5" stroke-linecap="round" stroke-linejoin="round"/>
<path d="M77.4029 144.505C78.9508 144.137 80.5299 143.917 82.1194 143.847C85.1513 143.705 88.1842 144.106 91.0751 145.031" stroke="#FFAA81" stroke-width="2.99727" stroke-miterlimit="1.5" stroke-linecap="round" stroke-linejoin="round"/>
<path fill-rule="evenodd" clip-rule="evenodd" d="M145.559 126.308C146.35 123.899 148.502 122.286 151.087 122.3L151.085 122.286C153.097 122.308 155.184 123.17 156.611 124.694C157.319 125.449 157.868 126.339 158.226 127.311C158.584 128.282 158.742 129.316 158.692 130.35C158.479 132.794 158.374 134.842 158.374 134.842C158.374 134.842 159.041 134.266 159.696 133.562C160.354 132.9 161.327 132.527 162.191 132.565C163.197 132.576 164.092 132.97 164.727 133.66C165.522 134.522 165.777 135.762 165.446 136.882C163.416 143.105 152.101 148.215 146.34 146.374C143.234 145.33 142.281 142.702 142.953 137.347C142.953 137.347 141.005 136.415 139.21 135.599C138.765 135.437 138.587 135.037 138.693 134.611C138.658 134.212 139.057 133.861 139.338 133.793C140.607 133.537 141.873 133.252 142.86 133.05C143.705 132.874 144.358 132.156 144.423 131.274C144.599 130.025 144.865 128.178 145.559 126.308Z" fill="#FFAA81"/>
<path d="M146.536 139.481C146.937 139.533 148.02 139.506 148.834 138.851" stroke="#FF5403" stroke-width="2.00224" stroke-miterlimit="1.5" stroke-linecap="round"/>
<path d="M147.76 131.219C147.585 131.831 147.513 132.449 147.465 133.076" stroke="white" stroke-width="1.99568" stroke-miterlimit="1.5" stroke-linecap="round"/>
<path d="M145.769 136.97C147.198 137.39 148.885 135.375 149.537 132.469C150.188 129.564 149.558 126.868 148.13 126.448C146.701 126.028 145.014 128.043 144.362 130.949C143.711 133.854 144.341 136.55 145.769 136.97Z" fill="#FF5403"/>
<path d="M146.129 131.533L158.622 133.817" stroke="#FF5403" stroke-width="1.87736" stroke-miterlimit="1.5" stroke-linecap="round" stroke-linejoin="round"/>
</g>
<defs>
<clipPath id="clip0_9_33085">
<rect width="220" height="200" fill="white"/>
</clipPath>
</defs>
</svg>
