<svg width="20" height="20" viewBox="0 0 20 20" fill="none" xmlns="http://www.w3.org/2000/svg">
<mask id="mask0_729_13970" style="mask-type:alpha" maskUnits="userSpaceOnUse" x="0" y="0" width="20" height="20">
<rect width="20" height="20" fill="#C4C4C4"/>
</mask>
<g mask="url(#mask0_729_13970)">
<path d="M7.91667 14.6875C7.52778 14.6875 7.205 14.5592 6.94833 14.3025C6.69111 14.0453 6.5625 13.7222 6.5625 13.3333V4.35418C6.5625 3.97918 6.69111 3.66307 6.94833 3.40584C7.205 3.14918 7.52778 3.02084 7.91667 3.02084H14.3958C14.7708 3.02084 15.0869 3.14918 15.3442 3.40584C15.6008 3.66307 15.7292 3.97918 15.7292 4.35418V13.3333C15.7292 13.7222 15.6008 14.0453 15.3442 14.3025C15.0869 14.5592 14.7708 14.6875 14.3958 14.6875H7.91667ZM7.91667 13.8542H14.3958C14.5208 13.8542 14.6356 13.7986 14.74 13.6875C14.8439 13.5764 14.8958 13.4583 14.8958 13.3333V4.35418C14.8958 4.22918 14.8439 4.11445 14.74 4.01001C14.6356 3.90612 14.5208 3.85418 14.3958 3.85418H7.91667C7.79167 3.85418 7.67361 3.90612 7.5625 4.01001C7.45139 4.11445 7.39583 4.22918 7.39583 4.35418V13.3333C7.39583 13.4583 7.45139 13.5764 7.5625 13.6875C7.67361 13.7986 7.79167 13.8542 7.91667 13.8542ZM5.41667 17.1875C5.02778 17.1875 4.705 17.0592 4.44833 16.8025C4.19111 16.5453 4.0625 16.2222 4.0625 15.8333V6.35418H4.89583V15.8333C4.89583 15.9583 4.95139 16.0764 5.0625 16.1875C5.17361 16.2986 5.29167 16.3542 5.41667 16.3542H12.3958V17.1875H5.41667Z" fill="#131316"/>
</g>
</svg>
