<svg width="20" height="20" viewBox="0 0 20 20" fill="none" xmlns="http://www.w3.org/2000/svg">
<mask id="mask0_729_13990" style="mask-type:alpha" maskUnits="userSpaceOnUse" x="0" y="0" width="20" height="20">
<rect width="20" height="20" fill="#C4C4C4"/>
</mask>
<g mask="url(#mask0_729_13990)">
<path d="M3.85417 15.8333C3.46528 15.8333 3.1425 15.705 2.88583 15.4483C2.62861 15.1911 2.5 14.8681 2.5 14.4792V5.52084C2.5 5.13195 2.62861 4.80917 2.88583 4.5525C3.1425 4.29528 3.46528 4.16667 3.85417 4.16667H16.1458C16.5347 4.16667 16.8578 4.29528 17.115 4.5525C17.3717 4.80917 17.5 5.13195 17.5 5.52084V14.4792C17.5 14.8681 17.3717 15.1911 17.115 15.4483C16.8578 15.705 16.5347 15.8333 16.1458 15.8333H3.85417ZM10 10.1042L3.33333 5.72917V14.4792C3.33333 14.6319 3.38194 14.757 3.47917 14.8542C3.57639 14.9514 3.70139 15 3.85417 15H16.1458C16.2986 15 16.4236 14.9514 16.5208 14.8542C16.6181 14.757 16.6667 14.6319 16.6667 14.4792V5.72917L10 10.1042ZM10 9.16667L16.4167 5.00001H3.58333L10 9.16667ZM3.33333 14.4792C3.33333 14.6319 3.38194 14.757 3.47917 14.8542C3.57639 14.9514 3.70139 15 3.85417 15H3.33333C3.33333 15 3.33333 14.9514 3.33333 14.8542C3.33333 14.757 3.33333 14.6319 3.33333 14.4792Z" fill="#131316"/>
</g>
</svg>
