<svg width="20" height="20" viewBox="0 0 20 20" fill="none" xmlns="http://www.w3.org/2000/svg">
<g clip-path="url(#clip0_729_14000)">
<path d="M6.45048 18.3333C14.1907 18.3333 18.4243 11.9206 18.4243 6.3595C18.4243 6.17738 18.4243 5.99606 18.412 5.81554C19.2356 5.21979 19.9465 4.48221 20.5115 3.63724C19.7435 3.97756 18.9287 4.2007 18.0945 4.29933C18.9728 3.77356 19.6305 2.94597 19.9446 1.97167C19.1186 2.46183 18.2147 2.80732 17.2724 2.99316C16.4767 2.14702 15.3653 1.66665 14.2039 1.66665C11.8931 1.66665 9.99164 3.56813 9.99164 5.87888C9.99164 6.19945 10.0283 6.51903 10.1007 6.83127C6.71877 6.66177 3.56344 5.06211 1.42759 2.43443C0.316927 4.34641 0.891611 6.82422 2.73048 8.0521C2.06085 8.03227 1.4056 7.85159 0.820462 7.52537V7.5787C0.821022 9.57432 2.24052 11.3089 4.19665 11.704C3.57714 11.8729 2.92698 11.8976 2.29649 11.7762C2.84642 13.4862 4.43222 14.665 6.22814 14.6987C4.73825 15.8696 2.89673 16.5056 1.00178 16.5037C0.666946 16.5031 0.332431 16.4828 0 16.443C1.92432 17.6779 4.164 18.3331 6.45048 18.33" fill="#1DA1F2"/>
</g>
<defs>
<clipPath id="clip0_729_14000">
<rect width="20" height="20" fill="white"/>
</clipPath>
</defs>
</svg>
