<svg width="20" height="20" viewBox="0 0 20 20" fill="none" xmlns="http://www.w3.org/2000/svg">
<path d="M5.44983 1.66666C5.08316 1.68332 4.59983 1.71666 4.38317 1.76666C4.04983 1.83332 3.73317 1.93332 3.48317 2.06666C3.1665 2.21666 2.89983 2.41666 2.6665 2.64999C2.4165 2.89999 2.2165 3.16665 2.0665 3.48332C1.93317 3.73332 1.83317 4.04999 1.7665 4.38332C1.7165 4.59998 1.68317 5.08332 1.68317 5.44998C1.6665 5.59998 1.6665 5.79998 1.6665 5.89998V14.1V14.55C1.68317 14.9167 1.7165 15.4 1.7665 15.6167C1.83317 15.95 1.93317 16.2667 2.0665 16.5167C2.2165 16.8333 2.4165 17.1 2.64984 17.3333C2.89983 17.5833 3.1665 17.7833 3.48317 17.9333C3.73317 18.0667 4.04983 18.1667 4.38317 18.2333C4.59983 18.2833 5.08316 18.3167 5.44983 18.3167C5.59983 18.3333 5.79983 18.3333 5.89983 18.3333H14.0998H14.5498C14.9165 18.3167 15.3998 18.2833 15.6165 18.2333C15.9498 18.1667 16.2665 18.0667 16.5165 17.9333C16.8331 17.7833 17.0998 17.5833 17.3331 17.35C17.5831 17.1 17.7831 16.8333 17.9331 16.5167C18.0665 16.2667 18.1665 15.95 18.2331 15.6167C18.2831 15.4 18.3165 14.9167 18.3165 14.55C18.3331 14.4 18.3331 14.2 18.3331 14.1V5.44998C18.3165 5.08332 18.2831 4.59998 18.2331 4.38332C18.1665 4.04999 18.0665 3.73332 17.9331 3.48332C17.7831 3.16665 17.5831 2.89999 17.3498 2.66665C17.0998 2.41666 16.8331 2.21666 16.5165 2.06666C16.2665 1.93332 15.9498 1.83332 15.6165 1.76666C15.3998 1.71666 14.9165 1.68332 14.5498 1.68332C14.3998 1.66666 14.1998 1.66666 14.0998 1.66666H5.44983Z" fill="url(#paint0_linear_729_13975)"/>
<path fill-rule="evenodd" clip-rule="evenodd" d="M12.8723 11.1155C12.7238 11.0412 11.994 10.6822 11.8579 10.6327C11.7219 10.5832 11.6229 10.5584 11.524 10.707C11.425 10.8555 11.1405 11.1898 11.0539 11.2888C10.9673 11.3878 10.8807 11.4002 10.7323 11.3259C10.5838 11.2517 10.1056 11.095 9.53856 10.5894C9.09729 10.1959 8.79934 9.70992 8.71275 9.56135C8.62616 9.41278 8.70354 9.33248 8.77786 9.25849C8.84462 9.19205 8.92629 9.08518 9.00051 8.99853C9.07473 8.91187 9.09947 8.84996 9.14895 8.75094C9.19843 8.65191 9.17369 8.56523 9.13658 8.49094C9.09947 8.41666 8.8026 7.68626 8.6789 7.38912C8.55842 7.09977 8.43603 7.13893 8.34491 7.13437C8.25842 7.13007 8.15937 7.12916 8.06041 7.12916C7.96142 7.12916 7.80064 7.1663 7.66454 7.31484C7.52848 7.4634 7.14501 7.82245 7.14501 8.55286C7.14501 9.28326 7.67691 9.98892 7.75113 10.088C7.82538 10.187 8.79791 11.6859 10.287 12.3287C10.6412 12.4816 10.9177 12.5729 11.1333 12.6413C11.4889 12.7542 11.8125 12.7383 12.0682 12.7001C12.3534 12.6575 12.9465 12.3411 13.0702 11.9945C13.1939 11.6478 13.1939 11.3507 13.1568 11.2888C13.1197 11.2269 13.0208 11.1898 12.8723 11.1155ZM10.1637 14.8125H10.1617C9.27567 14.8122 8.40663 14.5742 7.6485 14.1245L7.46819 14.0175L5.59928 14.5076L6.09814 12.686L5.98069 12.4993C5.48642 11.7133 5.22539 10.8049 5.22575 9.87219C5.22682 7.15048 7.44199 4.93616 10.1657 4.93616C11.4846 4.93668 12.7244 5.45084 13.6567 6.38388C14.589 7.31692 15.1021 8.55719 15.1016 9.87616C15.1005 12.5981 12.8854 14.8125 10.1637 14.8125ZM14.3663 5.67487C13.2446 4.55228 11.7529 3.93376 10.1637 3.93311C6.88912 3.93311 4.22399 6.5972 4.22269 9.8718C4.22227 10.9185 4.4958 11.9404 5.01569 12.8409L4.17285 15.9186L7.32226 15.0927C8.19 15.5659 9.16698 15.8152 10.1613 15.8156H10.1638C13.438 15.8156 16.1034 13.1512 16.1047 9.87655C16.1053 8.28961 15.488 6.79746 14.3663 5.67487Z" fill="white"/>
<defs>
<linearGradient id="paint0_linear_729_13975" x1="9.99982" y1="18.3333" x2="9.99982" y2="1.66669" gradientUnits="userSpaceOnUse">
<stop stop-color="#25CF43"/>
<stop offset="1" stop-color="#61FD7D"/>
</linearGradient>
</defs>
</svg>
