<svg width="48" height="48" viewBox="0 0 48 48" fill="none" xmlns="http://www.w3.org/2000/svg">
<rect width="48" height="48" rx="6" fill="#FFEEE7"/>
<mask id="mask0_585_39181" style="mask-type:alpha" maskUnits="userSpaceOnUse" x="8" y="8" width="32" height="32">
<rect x="8" y="8" width="32" height="32" fill="#C4C4C4"/>
</mask>
<g mask="url(#mask0_585_39181)">
<path d="M12.6665 34.8669V17.5335H17.9998V12.2002H29.9998V22.8669H35.3332V34.8669H25.9998V29.5335H21.9998V34.8669H12.6665ZM13.9998 33.5335H17.9998V29.5335H13.9998V33.5335ZM13.9998 28.2002H17.9998V24.2002H13.9998V28.2002ZM13.9998 22.8669H17.9998V18.8669H13.9998V22.8669ZM19.3332 28.2002H23.3332V24.2002H19.3332V28.2002ZM19.3332 22.8669H23.3332V18.8669H19.3332V22.8669ZM19.3332 17.5335H23.3332V13.5335H19.3332V17.5335ZM24.6665 28.2002H28.6665V24.2002H24.6665V28.2002ZM24.6665 22.8669H28.6665V18.8669H24.6665V22.8669ZM24.6665 17.5335H28.6665V13.5335H24.6665V17.5335ZM29.9998 33.5335H33.9998V29.5335H29.9998V33.5335ZM29.9998 28.2002H33.9998V24.2002H29.9998V28.2002Z" fill="#FF5403"/>
</g>
</svg>
