<svg width="48" height="48" viewBox="0 0 48 48" fill="none" xmlns="http://www.w3.org/2000/svg">
<rect width="48" height="48" rx="6" fill="#FFEEE7"/>
<mask id="mask0_585_39165" style="mask-type:alpha" maskUnits="userSpaceOnUse" x="8" y="8" width="32" height="32">
<rect x="8" y="8" width="32" height="32" fill="#C4C4C4"/>
</mask>
<g mask="url(#mask0_585_39165)">
<path d="M15.5002 34.667C14.9002 34.667 14.3891 34.4559 13.9668 34.0337C13.5446 33.6114 13.3335 33.1003 13.3335 32.5003V15.5003C13.3335 14.9003 13.5446 14.3892 13.9668 13.967C14.3891 13.5448 14.9002 13.3337 15.5002 13.3337H21.4335C21.4113 12.6225 21.6504 12.0003 22.1508 11.467C22.6504 10.9337 23.2668 10.667 24.0002 10.667C24.7335 10.667 25.3557 10.9337 25.8668 11.467C26.3779 12.0003 26.6113 12.6225 26.5668 13.3337H32.5002C33.1002 13.3337 33.6113 13.5448 34.0335 13.967C34.4557 14.3892 34.6668 14.9003 34.6668 15.5003V32.5003C34.6668 33.1003 34.4557 33.6114 34.0335 34.0337C33.6113 34.4559 33.1002 34.667 32.5002 34.667H15.5002ZM15.5002 33.3337H32.5002C32.7224 33.3337 32.9166 33.2501 33.0828 33.083C33.2499 32.9168 33.3335 32.7225 33.3335 32.5003V15.5003C33.3335 15.2781 33.2499 15.0839 33.0828 14.9177C32.9166 14.7505 32.7224 14.667 32.5002 14.667H29.3335V17.6337H18.6668V14.667H15.5002C15.2779 14.667 15.0837 14.7505 14.9175 14.9177C14.7504 15.0839 14.6668 15.2781 14.6668 15.5003V32.5003C14.6668 32.7225 14.7504 32.9168 14.9175 33.083C15.0837 33.2501 15.2779 33.3337 15.5002 33.3337ZM24.0002 14.667C24.3779 14.667 24.6948 14.539 24.9508 14.283C25.2059 14.0279 25.3335 13.7114 25.3335 13.3337C25.3335 12.9559 25.2059 12.639 24.9508 12.383C24.6948 12.1279 24.3779 12.0003 24.0002 12.0003C23.6224 12.0003 23.3059 12.1279 23.0508 12.383C22.7948 12.639 22.6668 12.9559 22.6668 13.3337C22.6668 13.7114 22.7948 14.0279 23.0508 14.283C23.3059 14.539 23.6224 14.667 24.0002 14.667Z" fill="#FF5403"/>
</g>
</svg>
