<svg width="48" height="48" viewBox="0 0 48 48" fill="none" xmlns="http://www.w3.org/2000/svg">
<rect width="48" height="48" rx="6" fill="#FFEEE7"/>
<mask id="mask0_585_39173" style="mask-type:alpha" maskUnits="userSpaceOnUse" x="8" y="8" width="32" height="32">
<rect x="8" y="8" width="32" height="32" fill="#C4C4C4"/>
</mask>
<g mask="url(#mask0_585_39173)">
<path d="M16.8332 36C16.2109 36 15.6945 35.7947 15.2838 35.384C14.8723 34.9724 14.6665 34.4556 14.6665 33.8333V14.1667C14.6665 13.5444 14.8723 13.0276 15.2838 12.616C15.6945 12.2053 16.2109 12 16.8332 12H27.3332L33.3332 18V33.8333C33.3332 34.4556 33.1278 34.9724 32.7172 35.384C32.3056 35.7947 31.7887 36 31.1665 36H16.8332ZM16.8332 34.6667H31.1665C31.3887 34.6667 31.5829 34.5831 31.7492 34.416C31.9163 34.2498 31.9998 34.0556 31.9998 33.8333V18.6667H26.6665V13.3333H16.8332C16.6109 13.3333 16.4167 13.4169 16.2505 13.584C16.0834 13.7502 15.9998 13.9444 15.9998 14.1667V33.8333C15.9998 34.0556 16.0834 34.2498 16.2505 34.416C16.4167 34.5831 16.6109 34.6667 16.8332 34.6667ZM15.9998 33.8333V13.3333C15.9998 13.3333 15.9998 13.4169 15.9998 13.584C15.9998 13.7502 15.9998 13.9444 15.9998 14.1667V33.8333Z" fill="#FF5403"/>
</g>
</svg>
