<svg width="20" height="20" viewBox="0 0 20 20" fill="none" xmlns="http://www.w3.org/2000/svg">
<mask id="mask0_585_37143" style="mask-type:alpha" maskUnits="userSpaceOnUse" x="0" y="0" width="20" height="20">
<rect width="20" height="20" fill="#C4C4C4"/>
</mask>
<g mask="url(#mask0_585_37143)">
<path d="M9.99935 12.6875L7.04102 9.75L7.64518 9.14583L9.58268 11.0833V3.875H10.416V11.0833L12.3535 9.14583L12.9577 9.75L9.99935 12.6875ZM5.52018 15.8333C5.13129 15.8333 4.80852 15.705 4.55185 15.4483C4.29463 15.1911 4.16602 14.8681 4.16602 14.4792V12.5H4.99935V14.4792C4.99935 14.6181 5.05157 14.7394 5.15602 14.8433C5.2599 14.9478 5.38129 15 5.52018 15H14.4785C14.6174 15 14.7388 14.9478 14.8427 14.8433C14.9471 14.7394 14.9993 14.6181 14.9993 14.4792V12.5H15.8327V14.4792C15.8327 14.8681 15.7043 15.1911 15.4477 15.4483C15.1905 15.705 14.8674 15.8333 14.4785 15.8333H5.52018Z" fill="#1C1B1F"/>
</g>
</svg>
