<svg width="20" height="20" viewBox="0 0 20 20" fill="none" xmlns="http://www.w3.org/2000/svg">
<mask id="mask0_585_37237" style="mask-type:alpha" maskUnits="userSpaceOnUse" x="0" y="0" width="20" height="20">
<rect width="20" height="20" fill="#C4C4C4"/>
</mask>
<g mask="url(#mask0_585_37237)">
<path d="M3.0625 7.08333V6.25H14.2083V7.08333H3.0625ZM3.0625 10.4167V9.58333H14.2083V10.4167H3.0625ZM3.0625 13.75V12.9167H14.2083V13.75H3.0625ZM16.3958 13.875C16.2431 13.875 16.1147 13.8228 16.0108 13.7183C15.9064 13.6144 15.8542 13.4861 15.8542 13.3333C15.8542 13.1806 15.9064 13.0519 16.0108 12.9475C16.1147 12.8436 16.2431 12.7917 16.3958 12.7917C16.5486 12.7917 16.6772 12.8436 16.7817 12.9475C16.8856 13.0519 16.9375 13.1806 16.9375 13.3333C16.9375 13.4861 16.8856 13.6144 16.7817 13.7183C16.6772 13.8228 16.5486 13.875 16.3958 13.875ZM16.3958 7.20833C16.2431 7.20833 16.1147 7.15611 16.0108 7.05167C15.9064 6.94778 15.8542 6.81944 15.8542 6.66667C15.8542 6.51389 15.9064 6.38528 16.0108 6.28083C16.1147 6.17694 16.2431 6.125 16.3958 6.125C16.5486 6.125 16.6772 6.17694 16.7817 6.28083C16.8856 6.38528 16.9375 6.51389 16.9375 6.66667C16.9375 6.81944 16.8856 6.94778 16.7817 7.05167C16.6772 7.15611 16.5486 7.20833 16.3958 7.20833ZM16.3958 10.5417C16.2431 10.5417 16.1147 10.4894 16.0108 10.385C15.9064 10.2811 15.8542 10.1528 15.8542 10C15.8542 9.84722 15.9064 9.71861 16.0108 9.61417C16.1147 9.51028 16.2431 9.45833 16.3958 9.45833C16.5486 9.45833 16.6772 9.51028 16.7817 9.61417C16.8856 9.71861 16.9375 9.84722 16.9375 10C16.9375 10.1528 16.8856 10.2811 16.7817 10.385C16.6772 10.4894 16.5486 10.5417 16.3958 10.5417Z" fill="#06051B"/>
</g>
</svg>
