<svg width="14" height="15" viewBox="0 0 14 15" fill="none" xmlns="http://www.w3.org/2000/svg">
<path d="M13.4 1.68026H10V0.940264C10 0.420264 9.52 0.0202637 8.92 0.0202637H5.08C4.48 0.0202637 4 0.420264 4 0.940264V1.68026H0.6C0.26 1.68026 0 1.94026 0 2.28026C0 2.62026 0.26 2.88026 0.6 2.88026H1.34L2.08 12.2003C2.1 13.3003 2.98 14.1803 4.08 14.1803H9.9C11 14.1803 11.88 13.3003 11.9 12.2003L12.66 2.90026H13.4C13.74 2.90026 14 2.64026 14 2.30026C14 1.96026 13.74 1.68026 13.4 1.68026ZM5.2 1.22026H8.8V1.68026H5.2V1.22026ZM5.44 10.9603H5.42C5.1 10.9603 4.84 10.7003 4.82 10.3803L4.6 5.50026C4.58 5.16026 4.84 4.88026 5.18 4.88026H5.2C5.52 4.88026 5.78 5.14026 5.8 5.46026L6.02 10.3403C6.02 10.6603 5.78 10.9403 5.44 10.9603ZM9.18 10.3803C9.16 10.7003 8.9 10.9603 8.58 10.9603H8.56C8.22 10.9403 7.98 10.6603 7.98 10.3403L8.2 5.46026C8.22 5.14026 8.48 4.88026 8.8 4.88026H8.82C9.16 4.90026 9.4 5.18026 9.4 5.50026L9.18 10.3803Z" fill="#505A73"/>
</svg>
