<svg width="20" height="20" viewBox="0 0 20 20" fill="none" xmlns="http://www.w3.org/2000/svg">
<path d="M15.4167 13.3334H5.83333C3.99167 13.3334 2.5 11.8417 2.5 10C2.5 8.15835 3.99167 6.66669 5.83333 6.66669H16.25C17.4 6.66669 18.3333 7.60002 18.3333 8.75002C18.3333 9.90002 17.4 10.8334 16.25 10.8334H7.5C7.04167 10.8334 6.66667 10.4584 6.66667 10C6.66667 9.54169 7.04167 9.16669 7.5 9.16669H15.4167V7.91669H7.5C6.35 7.91669 5.41667 8.85002 5.41667 10C5.41667 11.15 6.35 12.0834 7.5 12.0834H16.25C18.0917 12.0834 19.5833 10.5917 19.5833 8.75002C19.5833 6.90835 18.0917 5.41669 16.25 5.41669H5.83333C3.3 5.41669 1.25 7.46669 1.25 10C1.25 12.5334 3.3 14.5834 5.83333 14.5834H15.4167V13.3334Z" fill="#91989E"/>
</svg>
