<svg width="30" height="30" viewBox="0 0 30 30" fill="none" xmlns="http://www.w3.org/2000/svg">
<path d="M15.0002 29.8625C12.9502 29.8625 11.0215 29.4707 9.21407 28.6872C7.40551 27.9047 5.83214 26.8444 4.49395 25.5062C3.15575 24.1681 2.09488 22.5947 1.31132 20.7861C0.528904 18.9787 0.137695 17.05 0.137695 15C0.137695 12.95 0.528904 11.0207 1.31132 9.21216C2.09488 7.40475 3.15575 5.83194 4.49395 4.49375C5.83214 3.15555 7.40551 2.09468 9.21407 1.31112C11.0215 0.528705 12.9502 0.137497 15.0002 0.137497C17.0502 0.137497 18.9795 0.528705 20.788 1.31112C22.5954 2.09468 24.1683 3.15555 25.5064 4.49375C26.8446 5.83194 27.9055 7.40475 28.6891 9.21216C29.4715 11.0207 29.8627 12.95 29.8627 15C29.8627 17.05 29.4715 18.9787 28.6891 20.7861C27.9055 22.5947 26.8446 24.1681 25.5064 25.5062C24.1683 26.8444 22.5954 27.9047 20.788 28.6872C18.9795 29.4707 17.0502 29.8625 15.0002 29.8625ZM12.5231 21.3208L23.1148 10.7292L22.2606 9.875L12.5231 19.6125L7.65436 14.7437L6.8002 15.5979L12.5231 21.3208Z" fill="#059964"/>
</svg>
