<svg width="14" height="14" viewBox="0 0 14 14" fill="none" xmlns="http://www.w3.org/2000/svg">
<path d="M1.83398 13.4167C1.47287 13.4167 1.17426 13.2986 0.938151 13.0625C0.70204 12.8264 0.583984 12.5278 0.583984 12.1667V1.83334C0.583984 1.47223 0.70204 1.17362 0.938151 0.93751C1.17426 0.701399 1.47287 0.583344 1.83398 0.583344H12.1673C12.5284 0.583344 12.827 0.701399 13.0632 0.93751C13.2993 1.17362 13.4173 1.47223 13.4173 1.83334V12.1667C13.4173 12.5278 13.2993 12.8264 13.0632 13.0625C12.827 13.2986 12.5284 13.4167 12.1673 13.4167H1.83398ZM5.83398 9.75001L11.0007 4.58334L10.584 4.16668L5.83398 8.91668L3.45898 6.54168L3.04232 6.95834L5.83398 9.75001Z" fill="#FF5403"/>
</svg>
