<svg width="12" height="15" viewBox="0 0 12 15" fill="none" xmlns="http://www.w3.org/2000/svg">
<path d="M3.91667 11.6875C3.52778 11.6875 3.205 11.5592 2.94833 11.3025C2.69111 11.0453 2.5625 10.7222 2.5625 10.3333V1.35418C2.5625 0.979177 2.69111 0.663066 2.94833 0.405843C3.205 0.149177 3.52778 0.0208435 3.91667 0.0208435H10.3958C10.7708 0.0208435 11.0869 0.149177 11.3442 0.405843C11.6008 0.663066 11.7292 0.979177 11.7292 1.35418V10.3333C11.7292 10.7222 11.6008 11.0453 11.3442 11.3025C11.0869 11.5592 10.7708 11.6875 10.3958 11.6875H3.91667ZM3.91667 10.8542H10.3958C10.5208 10.8542 10.6356 10.7986 10.74 10.6875C10.8439 10.5764 10.8958 10.4583 10.8958 10.3333V1.35418C10.8958 1.22918 10.8439 1.11445 10.74 1.01001C10.6356 0.906121 10.5208 0.854177 10.3958 0.854177H3.91667C3.79167 0.854177 3.67361 0.906121 3.5625 1.01001C3.45139 1.11445 3.39583 1.22918 3.39583 1.35418V10.3333C3.39583 10.4583 3.45139 10.5764 3.5625 10.6875C3.67361 10.7986 3.79167 10.8542 3.91667 10.8542ZM1.41667 14.1875C1.02778 14.1875 0.705 14.0592 0.448333 13.8025C0.191111 13.5453 0.0625 13.2222 0.0625 12.8333V3.35418H0.895833V12.8333C0.895833 12.9583 0.951389 13.0764 1.0625 13.1875C1.17361 13.2986 1.29167 13.3542 1.41667 13.3542H8.39583V14.1875H1.41667Z" fill="#131316"/>
</svg>
