<svg width="16" height="16" viewBox="0 0 16 16" fill="none" xmlns="http://www.w3.org/2000/svg">
<mask id="mask0_9_39876" style="mask-type:alpha" maskUnits="userSpaceOnUse" x="0" y="0" width="16" height="16">
<rect width="16" height="16" fill="#C4C4C4"/>
</mask>
<g mask="url(#mask0_9_39876)">
<path d="M5.75039 12.6667H10.2504C10.3615 12.6667 10.4586 12.6249 10.5417 12.5413C10.6253 12.4582 10.6671 12.3611 10.6671 12.25V6.00001H5.33372V12.25C5.33372 12.3611 5.3755 12.4582 5.45906 12.5413C5.54217 12.6249 5.63928 12.6667 5.75039 12.6667ZM4.15039 4.41668V3.75001H5.80039L6.46706 3.08334H9.53372L10.2004 3.75001H11.8504V4.41668H4.15039ZM5.75039 13.3333C5.43928 13.3333 5.18106 13.2307 4.97572 13.0253C4.76995 12.8196 4.66706 12.5611 4.66706 12.25V5.33334H11.3337V12.25C11.3337 12.5611 11.2311 12.8196 11.0257 13.0253C10.8199 13.2307 10.5615 13.3333 10.2504 13.3333H5.75039ZM5.33372 12.6667H10.6671C10.6671 12.6667 10.6253 12.6667 10.5417 12.6667C10.4586 12.6667 10.3615 12.6667 10.2504 12.6667H5.75039C5.63928 12.6667 5.54217 12.6667 5.45906 12.6667C5.3755 12.6667 5.33372 12.6667 5.33372 12.6667Z" fill="#E11900"/>
</g>
</svg>
