<svg width="8" height="14" viewBox="0 0 8 14" fill="none" xmlns="http://www.w3.org/2000/svg">
<path d="M0.084 9.942C0.714 11.146 2.058 11.944 3.654 12.084V13.428H4.676V12.07C6.44 11.874 7.798 10.768 7.798 9.088C7.798 7.114 6.216 6.652 4.676 6.33V2.998C5.642 3.166 6.328 3.754 6.762 4.608L7.728 3.796C7.21 2.76 6.118 2.046 4.676 1.878V0.533999H3.654V1.864C1.918 2.004 0.56 3.096 0.56 4.706C0.56 6.582 2.128 7.016 3.654 7.338V10.936C2.52 10.81 1.652 10.194 1.092 9.102L0.084 9.942ZM1.792 4.622C1.792 3.698 2.576 3.082 3.654 2.97V6.106C2.618 5.882 1.792 5.546 1.792 4.622ZM6.566 9.172C6.566 10.222 5.754 10.796 4.676 10.936V7.562C5.726 7.814 6.566 8.178 6.566 9.172Z" fill="#91989E"/>
</svg>
