<svg width="10" height="12" viewBox="0 0 10 12" fill="none" xmlns="http://www.w3.org/2000/svg">
<path d="M4.9998 8.86667C4.01092 8.86667 3.17492 8.5249 2.4918 7.84134C1.80825 7.15823 1.46647 6.32223 1.46647 5.33334V0.466675H2.19981V5.33334C2.19981 6.12223 2.46936 6.78601 3.00847 7.32467C3.54714 7.86379 4.21092 8.13334 4.9998 8.13334C5.78869 8.13334 6.45269 7.86379 6.99181 7.32467C7.53047 6.78601 7.79981 6.12223 7.79981 5.33334V0.466675H8.53314V5.33334C8.53314 6.32223 8.19158 7.15823 7.50847 7.84134C6.82492 8.5249 5.98869 8.86667 4.9998 8.86667ZM0.799805 11.6667V11H9.1998V11.6667H0.799805Z" fill="#131316"/>
</svg>
