<svg width="12" height="10" viewBox="0 0 12 10" fill="none" xmlns="http://www.w3.org/2000/svg">
<path d="M0.999674 5.66665C0.810786 5.66665 0.652563 5.60265 0.525008 5.47465C0.397008 5.34709 0.333008 5.18887 0.333008 4.99998C0.333008 4.81109 0.397008 4.65265 0.525008 4.52465C0.652563 4.39709 0.810786 4.33331 0.999674 4.33331C1.18856 4.33331 1.34701 4.39709 1.47501 4.52465C1.60256 4.65265 1.66634 4.81109 1.66634 4.99998C1.66634 5.18887 1.60256 5.34709 1.47501 5.47465C1.34701 5.60265 1.18856 5.66665 0.999674 5.66665ZM0.999674 1.66665C0.810786 1.66665 0.652563 1.60287 0.525008 1.47531C0.397008 1.34731 0.333008 1.18887 0.333008 0.99998C0.333008 0.811091 0.397008 0.652646 0.525008 0.524646C0.652563 0.397091 0.810786 0.333313 0.999674 0.333313C1.18856 0.333313 1.34701 0.397091 1.47501 0.524646C1.60256 0.652646 1.66634 0.811091 1.66634 0.99998C1.66634 1.18887 1.60256 1.34731 1.47501 1.47531C1.34701 1.60287 1.18856 1.66665 0.999674 1.66665ZM0.999674 9.66665C0.810786 9.66665 0.652563 9.60265 0.525008 9.47465C0.397008 9.34709 0.333008 9.18887 0.333008 8.99998C0.333008 8.81109 0.397008 8.65287 0.525008 8.52531C0.652563 8.39731 0.810786 8.33331 0.999674 8.33331C1.18856 8.33331 1.34701 8.39731 1.47501 8.52531C1.60256 8.65287 1.66634 8.81109 1.66634 8.99998C1.66634 9.18887 1.60256 9.34709 1.47501 9.47465C1.34701 9.60265 1.18856 9.66665 0.999674 9.66665ZM3.66634 9.33331V8.66665H11.6663V9.33331H3.66634ZM3.66634 5.33331V4.66665H11.6663V5.33331H3.66634ZM3.66634 1.33331V0.666646H11.6663V1.33331H3.66634Z" fill="#131316"/>
</svg>
