<svg width="16" height="12" viewBox="0 0 16 12" fill="none" xmlns="http://www.w3.org/2000/svg">
<path d="M0.166992 11.5209V10.1459C0.166992 9.75696 0.267826 9.42363 0.469492 9.14585C0.670603 8.86808 0.937826 8.64585 1.27116 8.47919C1.99338 8.13197 2.71227 7.8578 3.42783 7.65669C4.14283 7.45502 5.00033 7.35419 6.00033 7.35419C7.00033 7.35419 7.8581 7.45502 8.57366 7.65669C9.28866 7.8578 10.0073 8.13197 10.7295 8.47919C11.0628 8.64585 11.3303 8.86808 11.532 9.14585C11.7331 9.42363 11.8337 9.75696 11.8337 10.1459V11.5209H0.166992ZM12.3753 7.62502C12.7781 7.70835 13.1706 7.82641 13.5528 7.97919C13.9345 8.13196 14.3128 8.29863 14.6878 8.47919C15.0489 8.65974 15.3303 8.89224 15.532 9.17669C15.7331 9.46169 15.8337 9.77085 15.8337 10.1042V11.5209H13.5003V10.1042C13.5003 9.61808 13.4031 9.15974 13.2087 8.72919C13.0142 8.29863 12.7364 7.93058 12.3753 7.62502ZM6.00033 5.47919C5.30588 5.47919 4.7156 5.23613 4.22949 4.75002C3.74338 4.26391 3.50033 3.67363 3.50033 2.97919C3.50033 2.29863 3.74338 1.71169 4.22949 1.21835C4.7156 0.725576 5.30588 0.479187 6.00033 0.479187C6.68088 0.479187 7.26783 0.725576 7.76116 1.21835C8.25394 1.71169 8.50033 2.29863 8.50033 2.97919C8.50033 3.67363 8.25394 4.26391 7.76116 4.75002C7.26783 5.23613 6.68088 5.47919 6.00033 5.47919ZM12.0628 2.97919C12.0628 3.67363 11.8164 4.26391 11.3237 4.75002C10.8303 5.23613 10.2434 5.47919 9.56283 5.47919C9.52116 5.47919 9.47255 5.47585 9.41699 5.46919C9.36144 5.46196 9.31977 5.45835 9.29199 5.45835C9.56977 5.11113 9.78505 4.72558 9.93783 4.30169C10.0906 3.87835 10.167 3.43752 10.167 2.97919C10.167 2.53474 10.087 2.10419 9.92699 1.68752C9.76755 1.27085 9.55588 0.881965 9.29199 0.520854C9.33366 0.506965 9.37533 0.496409 9.41699 0.489187C9.45866 0.48252 9.50727 0.479187 9.56283 0.479187C10.2434 0.479187 10.8303 0.725576 11.3237 1.21835C11.8164 1.71169 12.0628 2.29863 12.0628 2.97919ZM1.00033 10.6875H11.0003V10.1459C11.0003 9.95141 10.9517 9.78141 10.8545 9.63585C10.7573 9.48974 10.5837 9.34724 10.3337 9.20835C9.70866 8.87502 9.05255 8.62169 8.36532 8.44835C7.67755 8.27446 6.88921 8.18752 6.00033 8.18752C5.11144 8.18752 4.32338 8.27446 3.63616 8.44835C2.94838 8.62169 2.29199 8.87502 1.66699 9.20835C1.41699 9.34724 1.24338 9.48974 1.14616 9.63585C1.04894 9.78141 1.00033 9.95141 1.00033 10.1459V10.6875ZM6.00033 4.64585C6.45866 4.64585 6.85116 4.48252 7.17783 4.15585C7.50394 3.82974 7.66699 3.43752 7.66699 2.97919C7.66699 2.52085 7.50394 2.12863 7.17783 1.80252C6.85116 1.47585 6.45866 1.31252 6.00033 1.31252C5.54199 1.31252 5.14977 1.47585 4.82366 1.80252C4.49699 2.12863 4.33366 2.52085 4.33366 2.97919C4.33366 3.43752 4.49699 3.82974 4.82366 4.15585C5.14977 4.48252 5.54199 4.64585 6.00033 4.64585Z" fill="#131316"/>
</svg>
