<svg width="16" height="16" viewBox="0 0 16 16" fill="none" xmlns="http://www.w3.org/2000/svg">
<path d="M14.2735 7.71998L8.2735 1.71998C8.0335 1.47998 7.70016 1.33331 7.3335 1.33331H2.66683C1.9335 1.33331 1.3335 1.93331 1.3335 2.66665V7.33331C1.3335 7.69998 1.48016 8.03331 1.72683 8.27998L7.72683 14.28C7.96683 14.52 8.30016 14.6666 8.66683 14.6666C9.0335 14.6666 9.36683 14.52 9.60683 14.2733L14.2735 9.60665C14.5202 9.36665 14.6668 9.03331 14.6668 8.66665C14.6668 8.29998 14.5135 7.95998 14.2735 7.71998ZM8.66683 13.34L2.66683 7.33331V2.66665H7.3335V2.65998L13.3335 8.65998L8.66683 13.34Z" fill="#91989E"/>
<path d="M4.3335 5.33331C4.88578 5.33331 5.3335 4.8856 5.3335 4.33331C5.3335 3.78103 4.88578 3.33331 4.3335 3.33331C3.78121 3.33331 3.3335 3.78103 3.3335 4.33331C3.3335 4.8856 3.78121 5.33331 4.3335 5.33331Z" fill="#91989E"/>
</svg>
