<svg width="12" height="12" viewBox="0 0 12 12" fill="none" xmlns="http://www.w3.org/2000/svg">
<path d="M5.48412 8.69999L5.01745 8.21666L6.56745 6.66666H0.800781V5.99999H6.56745L5.01745 4.44999L5.48412 3.96666L7.85078 6.33332L5.48412 8.69999ZM5.85078 12V11.3333H10.1341C10.2341 11.3333 10.3259 11.2915 10.4094 11.208C10.4926 11.1249 10.5341 11.0278 10.5341 10.9167V1.74999C10.5341 1.63888 10.4926 1.54177 10.4094 1.45866C10.3259 1.3751 10.2341 1.33332 10.1341 1.33332H5.85078V0.666656H10.1341C10.4341 0.666656 10.6868 0.769545 10.8921 0.975323C11.0979 1.18066 11.2008 1.43888 11.2008 1.74999V10.9167C11.2008 11.2278 11.0979 11.4862 10.8921 11.692C10.6868 11.8973 10.4341 12 10.1341 12H5.85078Z" fill="#E11900"/>
</svg>
