<svg width="20" height="20" viewBox="0 0 20 20" fill="none" xmlns="http://www.w3.org/2000/svg">
<path d="M9.99984 18.3333C14.6022 18.3333 18.3332 14.6024 18.3332 10C18.3332 5.39763 14.6022 1.66667 9.99984 1.66667C5.39746 1.66667 1.6665 5.39763 1.6665 10C1.6665 14.6024 5.39746 18.3333 9.99984 18.3333Z" fill="#0088CC"/>
<path d="M9.62527 12.9727C9.1448 13.4375 8.67214 13.8984 8.19948 14.3594C8.03542 14.5195 7.85183 14.6094 7.61355 14.5977C7.45339 14.5898 7.36355 14.5195 7.31277 14.3672C6.95339 13.25 6.5862 12.1328 6.22683 11.0117C6.19167 10.9023 6.14089 10.8516 6.03152 10.8164C5.18386 10.5586 4.3323 10.293 3.48855 10.0234C3.35964 9.98047 3.22683 9.92969 3.11355 9.85156C2.93777 9.73438 2.91433 9.54297 3.07058 9.40234C3.21511 9.27344 3.38698 9.16406 3.56667 9.09375C4.60573 8.68359 5.6487 8.28516 6.69167 7.88281C9.3362 6.86328 11.9807 5.83984 14.6253 4.82031C15.1292 4.625 15.5159 4.89844 15.4612 5.44531C15.426 5.79297 15.3362 6.13672 15.2659 6.48047C14.6917 9.19141 14.1175 11.9063 13.5393 14.6172C13.4026 15.2617 12.9495 15.4297 12.4221 15.0391C11.5354 14.3867 10.6487 13.7305 9.76198 13.0742C9.71902 13.0391 9.67605 13.0078 9.62527 12.9727ZM7.63308 13.7969C7.6448 13.793 7.65261 13.793 7.66433 13.7891C7.66823 13.7617 7.67605 13.7383 7.67995 13.7148C7.73855 13.1016 7.79714 12.4844 7.84792 11.8711C7.85964 11.7344 7.90652 11.6367 8.00808 11.543C8.82448 10.8125 9.64089 10.0742 10.4534 9.33984C11.3557 8.52734 12.2581 7.71484 13.1565 6.89844C13.2112 6.84766 13.2346 6.76172 13.2737 6.69141C13.1878 6.68359 13.0979 6.64844 13.0198 6.66797C12.9143 6.69531 12.8167 6.75781 12.7229 6.81641C10.7346 8.07031 8.74245 9.32422 6.75417 10.5781C6.64089 10.6484 6.62136 10.707 6.66433 10.832C6.81277 11.2539 6.94558 11.6797 7.0823 12.1055C7.26589 12.668 7.44948 13.2344 7.63308 13.7969Z" fill="white"/>
</svg>
