<svg width="16" height="12" viewBox="0 0 16 12" fill="none" xmlns="http://www.w3.org/2000/svg">
<path d="M1.85417 11.8334C1.46528 11.8334 1.1425 11.705 0.885833 11.4484C0.628611 11.1911 0.5 10.8681 0.5 10.4792V1.52085C0.5 1.13196 0.628611 0.809187 0.885833 0.55252C1.1425 0.295298 1.46528 0.166687 1.85417 0.166687H14.1458C14.5347 0.166687 14.8578 0.295298 15.115 0.55252C15.3717 0.809187 15.5 1.13196 15.5 1.52085V10.4792C15.5 10.8681 15.3717 11.1911 15.115 11.4484C14.8578 11.705 14.5347 11.8334 14.1458 11.8334H1.85417ZM8 6.10419L1.33333 1.72919V10.4792C1.33333 10.632 1.38194 10.757 1.47917 10.8542C1.57639 10.9514 1.70139 11 1.85417 11H14.1458C14.2986 11 14.4236 10.9514 14.5208 10.8542C14.6181 10.757 14.6667 10.632 14.6667 10.4792V1.72919L8 6.10419ZM8 5.16669L14.4167 1.00002H1.58333L8 5.16669ZM1.33333 10.4792C1.33333 10.632 1.38194 10.757 1.47917 10.8542C1.57639 10.9514 1.70139 11 1.85417 11H1.33333C1.33333 11 1.33333 10.9514 1.33333 10.8542C1.33333 10.757 1.33333 10.632 1.33333 10.4792Z" fill="#131316"/>
</svg>
