<svg width="16" height="14" viewBox="0 0 16 14" fill="none" xmlns="http://www.w3.org/2000/svg">
<path d="M8 10.9375C8.875 10.9375 9.61111 10.6389 10.2083 10.0416C10.8056 9.44442 11.1042 8.70831 11.1042 7.83331C11.1042 6.95831 10.8056 6.2222 10.2083 5.62498C9.61111 5.02776 8.875 4.72915 8 4.72915C7.125 4.72915 6.38889 5.02776 5.79167 5.62498C5.19444 6.2222 4.89583 6.95831 4.89583 7.83331C4.89583 8.70831 5.19444 9.44442 5.79167 10.0416C6.38889 10.6389 7.125 10.9375 8 10.9375ZM8 10.1041C7.34722 10.1041 6.80556 9.88887 6.375 9.45831C5.94444 9.02776 5.72917 8.48609 5.72917 7.83331C5.72917 7.18053 5.94444 6.63887 6.375 6.20831C6.80556 5.77776 7.34722 5.56248 8 5.56248C8.65278 5.56248 9.19444 5.77776 9.625 6.20831C10.0556 6.63887 10.2708 7.18053 10.2708 7.83331C10.2708 8.48609 10.0556 9.02776 9.625 9.45831C9.19444 9.88887 8.65278 10.1041 8 10.1041ZM1.85417 13.6666C1.46528 13.6666 1.1425 13.5383 0.885833 13.2816C0.628611 13.0244 0.5 12.7014 0.5 12.3125V3.35415C0.5 2.96526 0.628611 2.64248 0.885833 2.38581C1.1425 2.12859 1.46528 1.99998 1.85417 1.99998H4.3125L5.85417 0.333313H10.1458L11.6875 1.99998H14.1458C14.5347 1.99998 14.8578 2.12859 15.115 2.38581C15.3717 2.64248 15.5 2.96526 15.5 3.35415V12.3125C15.5 12.7014 15.3717 13.0244 15.115 13.2816C14.8578 13.5383 14.5347 13.6666 14.1458 13.6666H1.85417ZM14.1458 12.8333C14.2986 12.8333 14.4236 12.7847 14.5208 12.6875C14.6181 12.5903 14.6667 12.4653 14.6667 12.3125V3.35415C14.6667 3.20137 14.6181 3.07637 14.5208 2.97915C14.4236 2.88192 14.2986 2.83331 14.1458 2.83331H11.3333L9.79167 1.16665H6.20833L4.66667 2.83331H1.85417C1.70139 2.83331 1.57639 2.88192 1.47917 2.97915C1.38194 3.07637 1.33333 3.20137 1.33333 3.35415V12.3125C1.33333 12.4653 1.38194 12.5903 1.47917 12.6875C1.57639 12.7847 1.70139 12.8333 1.85417 12.8333H14.1458Z" fill="white"/>
</svg>
