<svg width="16" height="16" viewBox="0 0 16 16" fill="none" xmlns="http://www.w3.org/2000/svg">
<path d="M13 15.9167C12.4166 15.9167 11.9236 15.7153 11.5208 15.3125C11.118 14.9097 10.9166 14.4167 10.9166 13.8333C10.9166 13.7222 10.9272 13.6075 10.9483 13.4892C10.9688 13.3714 11 13.257 11.0416 13.1458L4.58329 9.35418C4.37496 9.5764 4.13552 9.75334 3.86496 9.88501C3.59385 10.0172 3.30551 10.0833 2.99996 10.0833C2.41663 10.0833 1.92357 9.88195 1.52079 9.47918C1.11801 9.0764 0.916626 8.58334 0.916626 8.00001C0.916626 7.41668 1.11801 6.92362 1.52079 6.52084C1.92357 6.11807 2.41663 5.91668 2.99996 5.91668C3.30551 5.91668 3.59385 5.98279 3.86496 6.11501C4.13552 6.24668 4.37496 6.42362 4.58329 6.64584L11.0416 2.85418C11 2.74307 10.9688 2.62834 10.9483 2.51001C10.9272 2.39223 10.9166 2.27779 10.9166 2.16668C10.9166 1.58334 11.118 1.09029 11.5208 0.68751C11.9236 0.284732 12.4166 0.0833435 13 0.0833435C13.5833 0.0833435 14.0763 0.284732 14.4791 0.68751C14.8819 1.09029 15.0833 1.58334 15.0833 2.16668C15.0833 2.75001 14.8819 3.24307 14.4791 3.64584C14.0763 4.04862 13.5833 4.25001 13 4.25001C12.6944 4.25001 12.4061 4.1839 12.135 4.05168C11.8644 3.92001 11.625 3.74307 11.4166 3.52084L4.95829 7.31251C4.99996 7.42362 5.03135 7.53807 5.05246 7.65584C5.07302 7.77418 5.08329 7.8889 5.08329 8.00001C5.08329 8.11112 5.07302 8.22557 5.05246 8.34334C5.03135 8.46168 4.99996 8.5764 4.95829 8.68751L11.4166 12.4792C11.625 12.257 11.8644 12.08 12.135 11.9483C12.4061 11.8161 12.6944 11.75 13 11.75C13.5833 11.75 14.0763 11.9514 14.4791 12.3542C14.8819 12.757 15.0833 13.25 15.0833 13.8333C15.0833 14.4167 14.8819 14.9097 14.4791 15.3125C14.0763 15.7153 13.5833 15.9167 13 15.9167ZM13 3.41668C13.3472 3.41668 13.6422 3.29501 13.885 3.05168C14.1283 2.8089 14.25 2.5139 14.25 2.16668C14.25 1.81945 14.1283 1.52445 13.885 1.28168C13.6422 1.03834 13.3472 0.916677 13 0.916677C12.6527 0.916677 12.3577 1.03834 12.115 1.28168C11.8716 1.52445 11.75 1.81945 11.75 2.16668C11.75 2.5139 11.8716 2.8089 12.115 3.05168C12.3577 3.29501 12.6527 3.41668 13 3.41668ZM2.99996 9.25001C3.34718 9.25001 3.64218 9.12834 3.88496 8.88501C4.12829 8.64223 4.24996 8.34723 4.24996 8.00001C4.24996 7.65279 4.12829 7.35779 3.88496 7.11501C3.64218 6.87168 3.34718 6.75001 2.99996 6.75001C2.65274 6.75001 2.35774 6.87168 2.11496 7.11501C1.87163 7.35779 1.74996 7.65279 1.74996 8.00001C1.74996 8.34723 1.87163 8.64223 2.11496 8.88501C2.35774 9.12834 2.65274 9.25001 2.99996 9.25001ZM13 15.0833C13.3472 15.0833 13.6422 14.9617 13.885 14.7183C14.1283 14.4756 14.25 14.1806 14.25 13.8333C14.25 13.4861 14.1283 13.1911 13.885 12.9483C13.6422 12.705 13.3472 12.5833 13 12.5833C12.6527 12.5833 12.3577 12.705 12.115 12.9483C11.8716 13.1911 11.75 13.4861 11.75 13.8333C11.75 14.1806 11.8716 14.4756 12.115 14.7183C12.3577 14.9617 12.6527 15.0833 13 15.0833Z" fill="#131316"/>
</svg>
