<svg width="14" height="10" viewBox="0 0 14 10" fill="none" xmlns="http://www.w3.org/2000/svg">
<path d="M7.10033 9.91666C6.3781 9.91666 5.73921 9.72221 5.18366 9.33333C4.6281 8.94444 4.21699 8.4111 3.95033 7.73333L4.61699 7.44999C4.8281 7.9611 5.1421 8.38044 5.55899 8.70799C5.97544 9.03599 6.48921 9.19999 7.10033 9.19999C7.6781 9.19999 8.2141 9.04999 8.70833 8.74999C9.20299 8.44999 9.45033 7.97777 9.45033 7.33333C9.45033 7.03333 9.40877 6.78333 9.32566 6.58333C9.2421 6.38333 9.12255 6.18888 8.96699 5.99999H9.83366C9.94477 6.13333 10.031 6.31377 10.0923 6.54133C10.1532 6.76933 10.1837 7.03333 10.1837 7.33333C10.1837 8.15555 9.87544 8.79177 9.25899 9.24199C8.6421 9.69177 7.92255 9.91666 7.10033 9.91666ZM0.666992 4.66666V3.99999H13.3337V4.66666H0.666992ZM7.03366 0.0333252C7.63366 0.0333252 8.14477 0.158214 8.56699 0.407992C8.98921 0.658214 9.35033 1.04999 9.65032 1.58333L9.00033 1.88332C8.83366 1.58333 8.58633 1.31933 8.25833 1.09133C7.93077 0.86377 7.52255 0.749992 7.03366 0.749992C6.35588 0.749992 5.82255 0.941547 5.43366 1.32466C5.04477 1.70821 4.88366 2.15555 4.95033 2.66666H4.21699C4.15033 1.98888 4.3781 1.38044 4.90033 0.841325C5.42255 0.302658 6.13366 0.0333252 7.03366 0.0333252Z" fill="#131316"/>
</svg>
