<svg width="17" height="12" viewBox="0 0 17 12" fill="none" xmlns="http://www.w3.org/2000/svg">
<path d="M12.5625 7.35419C12.1181 7.35419 11.7292 7.18752 11.3958 6.85419C11.0625 6.52085 10.8958 6.13196 10.8958 5.68752C10.8958 5.22919 11.0625 4.83669 11.3958 4.51002C11.7292 4.18391 12.1181 4.02085 12.5625 4.02085C13.0208 4.02085 13.4133 4.18391 13.74 4.51002C14.0661 4.83669 14.2292 5.22919 14.2292 5.68752C14.2292 6.13196 14.0661 6.52085 13.74 6.85419C13.4133 7.18752 13.0208 7.35419 12.5625 7.35419ZM8.8125 11.5209V10.7709C8.8125 10.507 8.87861 10.2709 9.01083 10.0625C9.1425 9.85419 9.32639 9.70141 9.5625 9.60419C10.0347 9.40974 10.5208 9.26391 11.0208 9.16669C11.5208 9.06946 12.0347 9.02085 12.5625 9.02085C13.0764 9.02085 13.5833 9.06946 14.0833 9.16669C14.5833 9.26391 15.0833 9.40974 15.5833 9.60419C15.8194 9.70141 16 9.85419 16.125 10.0625C16.25 10.2709 16.3125 10.507 16.3125 10.7709V11.5209H8.8125ZM6.52083 5.47919C5.82639 5.47919 5.23611 5.23613 4.75 4.75002C4.26389 4.26391 4.02083 3.67363 4.02083 2.97919C4.02083 2.29863 4.26389 1.71169 4.75 1.21835C5.23611 0.725576 5.82639 0.479187 6.52083 0.479187C7.20139 0.479187 7.78833 0.725576 8.28167 1.21835C8.77444 1.71169 9.02083 2.29863 9.02083 2.97919C9.02083 3.67363 8.77444 4.26391 8.28167 4.75002C7.78833 5.23613 7.20139 5.47919 6.52083 5.47919ZM0.6875 11.5209V10.1459C0.6875 9.78474 0.784722 9.45141 0.979167 9.14585C1.17361 8.8403 1.44444 8.61808 1.79167 8.47919C2.52778 8.10419 3.29167 7.8228 4.08333 7.63502C4.875 7.4478 5.6875 7.35419 6.52083 7.35419C6.85417 7.35419 7.1875 7.37169 7.52083 7.40669C7.85417 7.44113 8.19444 7.48613 8.54167 7.54169L7.8125 8.29169C7.60417 8.23613 7.38889 8.20474 7.16667 8.19752C6.94444 8.19085 6.72917 8.18752 6.52083 8.18752C5.75694 8.18752 5.01056 8.26724 4.28167 8.42669C3.55222 8.58669 2.85417 8.84724 2.1875 9.20835C2.00694 9.30558 1.85083 9.43058 1.71917 9.58335C1.58694 9.73613 1.52083 9.92363 1.52083 10.1459V10.6875H6.52083V11.5209H0.6875ZM6.52083 4.64585C6.97917 4.64585 7.37167 4.48252 7.69833 4.15585C8.02444 3.82974 8.1875 3.43752 8.1875 2.97919C8.1875 2.52085 8.02444 2.12863 7.69833 1.80252C7.37167 1.47585 6.97917 1.31252 6.52083 1.31252C6.0625 1.31252 5.67028 1.47585 5.34417 1.80252C5.0175 2.12863 4.85417 2.52085 4.85417 2.97919C4.85417 3.43752 5.0175 3.82974 5.34417 4.15585C5.67028 4.48252 6.0625 4.64585 6.52083 4.64585Z" fill="#4D5760"/>
</svg>
