<svg width="14" height="8" viewBox="0 0 14 8" fill="none" xmlns="http://www.w3.org/2000/svg">
<path d="M0.0625 1.08333V0.25H11.2083V1.08333H0.0625ZM0.0625 4.41667V3.58333H11.2083V4.41667H0.0625ZM0.0625 7.75V6.91667H11.2083V7.75H0.0625ZM13.3958 7.875C13.2431 7.875 13.1147 7.82278 13.0108 7.71833C12.9064 7.61444 12.8542 7.48611 12.8542 7.33333C12.8542 7.18055 12.9064 7.05194 13.0108 6.9475C13.1147 6.84361 13.2431 6.79167 13.3958 6.79167C13.5486 6.79167 13.6772 6.84361 13.7817 6.9475C13.8856 7.05194 13.9375 7.18055 13.9375 7.33333C13.9375 7.48611 13.8856 7.61444 13.7817 7.71833C13.6772 7.82278 13.5486 7.875 13.3958 7.875ZM13.3958 1.20833C13.2431 1.20833 13.1147 1.15611 13.0108 1.05167C12.9064 0.947778 12.8542 0.819445 12.8542 0.666667C12.8542 0.513889 12.9064 0.385278 13.0108 0.280834C13.1147 0.176945 13.2431 0.125 13.3958 0.125C13.5486 0.125 13.6772 0.176945 13.7817 0.280834C13.8856 0.385278 13.9375 0.513889 13.9375 0.666667C13.9375 0.819445 13.8856 0.947778 13.7817 1.05167C13.6772 1.15611 13.5486 1.20833 13.3958 1.20833ZM13.3958 4.54167C13.2431 4.54167 13.1147 4.48944 13.0108 4.385C12.9064 4.28111 12.8542 4.15278 12.8542 4C12.8542 3.84722 12.9064 3.71861 13.0108 3.61417C13.1147 3.51028 13.2431 3.45833 13.3958 3.45833C13.5486 3.45833 13.6772 3.51028 13.7817 3.61417C13.8856 3.71861 13.9375 3.84722 13.9375 4C13.9375 4.15278 13.8856 4.28111 13.7817 4.385C13.6772 4.48944 13.5486 4.54167 13.3958 4.54167Z" fill="#131316"/>
</svg>
