<svg width="13" height="13" viewBox="0 0 13 13" fill="none" xmlns="http://www.w3.org/2000/svg">
<path d="M6.08268 9.6875V2.47917L4.14518 4.41667L3.54102 3.83333L6.49935 0.875L9.45768 3.83333L8.85352 4.41667L6.91602 2.47917V9.6875H6.08268ZM2.02018 12.8333C1.63129 12.8333 1.30852 12.705 1.05185 12.4483C0.794627 12.1911 0.666016 11.8681 0.666016 11.4792V9.5H1.49935V11.4792C1.49935 11.6181 1.55157 11.7394 1.65602 11.8433C1.7599 11.9478 1.88129 12 2.02018 12H10.9785C11.1174 12 11.2388 11.9478 11.3427 11.8433C11.4471 11.7394 11.4993 11.6181 11.4993 11.4792V9.5H12.3327V11.4792C12.3327 11.8681 12.2043 12.1911 11.9477 12.4483C11.6905 12.705 11.3674 12.8333 10.9785 12.8333H2.02018Z" fill="#131316"/>
</svg>
