<svg width="20" height="18" viewBox="0 0 20 18" fill="none" xmlns="http://www.w3.org/2000/svg">
<path d="M6.45048 17.3333C14.1907 17.3333 18.4243 10.9206 18.4243 5.35948C18.4243 5.17736 18.4243 4.99604 18.412 4.81553C19.2356 4.21977 19.9465 3.4822 20.5115 2.63722C19.7435 2.97754 18.9287 3.20068 18.0945 3.29931C18.9728 2.77355 19.6305 1.94595 19.9446 0.971655C19.1186 1.46181 18.2147 1.8073 17.2724 1.99315C16.4767 1.147 15.3653 0.666626 14.2039 0.666626C11.8931 0.666626 9.99164 2.56811 9.99164 4.87886C9.99164 5.19944 10.0283 5.51901 10.1007 5.83125C6.71877 5.66175 3.56344 4.06209 1.42759 1.43441C0.316927 3.34639 0.891611 5.8242 2.73048 7.05208C2.06085 7.03225 1.4056 6.85158 0.820462 6.52535V6.57868C0.821022 8.57431 2.24052 10.3089 4.19665 10.704C3.57714 10.8729 2.92698 10.8976 2.29649 10.7762C2.84642 12.4862 4.43222 13.6649 6.22814 13.6987C4.73825 14.8695 2.89673 15.5056 1.00178 15.5037C0.666946 15.503 0.332431 15.4828 0 15.4429C1.92432 16.6778 4.164 17.3331 6.45048 17.33" fill="#1DA1F2"/>
</svg>
