<svg width="18" height="18" viewBox="0 0 18 18" fill="none" xmlns="http://www.w3.org/2000/svg">
<path d="M4.44983 0.666656C4.08316 0.683323 3.59983 0.716656 3.38317 0.766656C3.04983 0.833323 2.73317 0.933323 2.48317 1.06666C2.1665 1.21666 1.89983 1.41666 1.6665 1.64999C1.4165 1.89999 1.2165 2.16665 1.0665 2.48332C0.93317 2.73332 0.83317 3.04999 0.766504 3.38332C0.716504 3.59998 0.683171 4.08332 0.683171 4.44998C0.666504 4.59998 0.666504 4.79998 0.666504 4.89998V13.1V13.55C0.683171 13.9167 0.716504 14.4 0.766504 14.6167C0.83317 14.95 0.93317 15.2667 1.0665 15.5167C1.2165 15.8333 1.4165 16.1 1.64984 16.3333C1.89983 16.5833 2.1665 16.7833 2.48317 16.9333C2.73317 17.0667 3.04983 17.1667 3.38317 17.2333C3.59983 17.2833 4.08316 17.3167 4.44983 17.3167C4.59983 17.3333 4.79983 17.3333 4.89983 17.3333H13.0998H13.5498C13.9165 17.3167 14.3998 17.2833 14.6165 17.2333C14.9498 17.1667 15.2665 17.0667 15.5165 16.9333C15.8331 16.7833 16.0998 16.5833 16.3331 16.35C16.5831 16.1 16.7831 15.8333 16.9331 15.5167C17.0665 15.2667 17.1665 14.95 17.2331 14.6167C17.2831 14.4 17.3165 13.9167 17.3165 13.55C17.3331 13.4 17.3331 13.2 17.3331 13.1V4.44998C17.3165 4.08332 17.2831 3.59998 17.2331 3.38332C17.1665 3.04999 17.0665 2.73332 16.9331 2.48332C16.7831 2.16665 16.5831 1.89999 16.3498 1.66665C16.0998 1.41666 15.8331 1.21666 15.5165 1.06666C15.2665 0.933323 14.9498 0.833323 14.6165 0.766656C14.3998 0.716656 13.9165 0.683323 13.5498 0.683323C13.3998 0.666656 13.1998 0.666656 13.0998 0.666656H4.44983Z" fill="url(#paint0_linear_1262_2847)"/>
<path fill-rule="evenodd" clip-rule="evenodd" d="M11.8723 10.1155C11.7238 10.0412 10.994 9.68218 10.8579 9.63267C10.7219 9.58316 10.6229 9.55839 10.524 9.70695C10.425 9.85552 10.1405 10.1898 10.0539 10.2888C9.96734 10.3878 9.88075 10.4002 9.73231 10.3259C9.58384 10.2517 9.10556 10.095 8.53856 9.58938C8.09729 9.19592 7.79934 8.70992 7.71275 8.56135C7.62616 8.41278 7.70354 8.33248 7.77786 8.25849C7.84462 8.19205 7.92629 8.08518 8.00051 7.99853C8.07473 7.91187 8.09947 7.84996 8.14895 7.75094C8.19843 7.65191 8.17369 7.56523 8.13658 7.49094C8.09947 7.41666 7.8026 6.68626 7.6789 6.38912C7.55842 6.09977 7.43603 6.13893 7.34491 6.13437C7.25842 6.13007 7.15937 6.12916 7.06041 6.12916C6.96142 6.12916 6.80064 6.1663 6.66454 6.31484C6.52848 6.4634 6.14501 6.82245 6.14501 7.55286C6.14501 8.28326 6.67691 8.98892 6.75113 9.08798C6.82538 9.18703 7.79791 10.6859 9.287 11.3287C9.64117 11.4816 9.91766 11.5729 10.1333 11.6413C10.4889 11.7542 10.8125 11.7383 11.0682 11.7001C11.3534 11.6575 11.9465 11.3411 12.0702 10.9945C12.1939 10.6478 12.1939 10.3507 12.1568 10.2888C12.1197 10.2269 12.0208 10.1898 11.8723 10.1155ZM9.16373 13.8125H9.16174C8.27567 13.8122 7.40663 13.5742 6.6485 13.1245L6.46819 13.0175L4.59928 13.5076L5.09814 11.686L4.98069 11.4993C4.48642 10.7133 4.22539 9.8049 4.22575 8.87219C4.22682 6.15048 6.44199 3.93616 9.16571 3.93616C10.4846 3.93668 11.7244 4.45084 12.6567 5.38388C13.589 6.31692 14.1021 7.55719 14.1016 8.87616C14.1005 11.5981 11.8854 13.8125 9.16373 13.8125ZM13.3663 4.67487C12.2446 3.55228 10.7529 2.93376 9.16369 2.93311C5.88912 2.93311 3.22399 5.5972 3.22269 8.8718C3.22227 9.91854 3.4958 10.9404 4.01569 11.8409L3.17285 14.9186L6.32226 14.0927C7.19 14.5659 8.16698 14.8152 9.16132 14.8156H9.16376C12.438 14.8156 15.1034 12.1512 15.1047 8.87655C15.1053 7.28961 14.488 5.79746 13.3663 4.67487Z" fill="white"/>
<defs>
<linearGradient id="paint0_linear_1262_2847" x1="8.99982" y1="17.3333" x2="8.99982" y2="0.666688" gradientUnits="userSpaceOnUse">
<stop stop-color="#25CF43"/>
<stop offset="1" stop-color="#61FD7D"/>
</linearGradient>
</defs>
</svg>
