<svg width="24" height="24" viewBox="0 0 24 24" fill="none" xmlns="http://www.w3.org/2000/svg">
<mask id="mask0_184_826" style="mask-type:alpha" maskUnits="userSpaceOnUse" x="0" y="0" width="24" height="24">
<rect width="24" height="24" fill="#C4C4C4"/>
</mask>
<g mask="url(#mask0_184_826)">
<path d="M11.5 16.5H12.5V12.5H16.5V11.5H12.5V7.5H11.5V11.5H7.5V12.5H11.5V16.5ZM12 21C10.75 21 9.575 20.7667 8.475 20.3C7.375 19.8333 6.421 19.196 5.613 18.388C4.80433 17.5793 4.16667 16.625 3.7 15.525C3.23333 14.425 3 13.25 3 12C3 10.75 3.23333 9.575 3.7 8.475C4.16667 7.375 4.80433 6.42067 5.613 5.612C6.421 4.804 7.375 4.16667 8.475 3.7C9.575 3.23333 10.75 3 12 3C13.25 3 14.425 3.23333 15.525 3.7C16.625 4.16667 17.5793 4.804 18.388 5.612C19.196 6.42067 19.8333 7.375 20.3 8.475C20.7667 9.575 21 10.75 21 12C21 13.25 20.7667 14.425 20.3 15.525C19.8333 16.625 19.196 17.5793 18.388 18.388C17.5793 19.196 16.625 19.8333 15.525 20.3C14.425 20.7667 13.25 21 12 21ZM12 20C14.2167 20 16.1043 19.221 17.663 17.663C19.221 16.1043 20 14.2167 20 12C20 9.78333 19.221 7.89567 17.663 6.337C16.1043 4.779 14.2167 4 12 4C9.78333 4 7.896 4.779 6.338 6.337C4.77933 7.89567 4 9.78333 4 12C4 14.2167 4.77933 16.1043 6.338 17.663C7.896 19.221 9.78333 20 12 20Z" fill="white"/>
</g>
</svg>
