<svg width="20" height="20" viewBox="0 0 20 20" fill="none" xmlns="http://www.w3.org/2000/svg">
<mask id="mask0_184_5350" style="mask-type:alpha" maskUnits="userSpaceOnUse" x="0" y="0" width="20" height="20">
<rect width="20" height="20" fill="#C4C4C4"/>
</mask>
<g mask="url(#mask0_184_5350)">
<path d="M6.72921 16.6667H4.68754C4.29865 16.6667 3.97587 16.5383 3.71921 16.2817C3.46198 16.0245 3.33337 15.7014 3.33337 15.3125V10C3.33337 9.06945 3.50699 8.2014 3.85421 7.39584C4.20143 6.59029 4.67726 5.88557 5.28171 5.28168C5.8856 4.67723 6.59032 4.2014 7.39587 3.85418C8.20143 3.50695 9.06949 3.33334 10 3.33334C10.9306 3.33334 11.7987 3.50695 12.6042 3.85418C13.4098 4.2014 14.1148 4.67723 14.7192 5.28168C15.3231 5.88557 15.7987 6.59029 16.1459 7.39584C16.4931 8.2014 16.6667 9.06945 16.6667 10V15.3125C16.6667 15.7014 16.5384 16.0245 16.2817 16.2817C16.0245 16.5383 15.7014 16.6667 15.3125 16.6667H13.2709V11.5417H15.8334V10C15.8334 8.37501 15.2673 6.9964 14.135 5.86418C13.0034 4.73251 11.625 4.16668 10 4.16668C8.37504 4.16668 6.99671 4.73251 5.86504 5.86418C4.73282 6.9964 4.16671 8.37501 4.16671 10V11.5417H6.72921V16.6667ZM5.89587 12.375H4.16671V15.3125C4.16671 15.4514 4.21893 15.5728 4.32337 15.6767C4.42726 15.7811 4.54865 15.8333 4.68754 15.8333H5.89587V12.375ZM14.1042 12.375V15.8333H15.3125C15.4514 15.8333 15.5728 15.7811 15.6767 15.6767C15.7812 15.5728 15.8334 15.4514 15.8334 15.3125V12.375H14.1042ZM14.1042 12.375H15.8334C15.8334 12.375 15.7812 12.375 15.6767 12.375C15.5728 12.375 15.4514 12.375 15.3125 12.375H14.1042ZM5.89587 12.375H4.68754C4.54865 12.375 4.42726 12.375 4.32337 12.375C4.21893 12.375 4.16671 12.375 4.16671 12.375H5.89587Z" fill="#4D5760"/>
</g>
</svg>
