<svg width="24" height="24" viewBox="0 0 24 24" fill="none" xmlns="http://www.w3.org/2000/svg">
<mask id="mask0_184_831" style="mask-type:alpha" maskUnits="userSpaceOnUse" x="0" y="0" width="24" height="24">
<rect width="24" height="24" fill="#C4C4C4"/>
</mask>
<g mask="url(#mask0_184_831)">
<path d="M11.95 21C10.7333 21 9.57933 20.7627 8.488 20.288C7.396 19.8127 6.446 19.1707 5.638 18.362C4.82933 17.554 4.18733 16.6 3.712 15.5C3.23733 14.4 3 13.2333 3 12C3 10.75 3.24167 9.575 3.725 8.475C4.20833 7.375 4.86667 6.42067 5.7 5.612C6.53333 4.804 7.51267 4.16667 8.638 3.7C9.76267 3.23333 10.9667 3 12.25 3C13.4167 3 14.525 3.19567 15.575 3.587C16.625 3.979 17.55 4.525 18.35 5.225C19.15 5.925 19.7917 6.75833 20.275 7.725C20.7583 8.69167 21 9.75 21 10.9C21 12.45 20.5543 13.6877 19.663 14.613C18.771 15.5377 17.55 16 16 16H14.225C13.8083 16 13.4583 16.146 13.175 16.438C12.8917 16.7293 12.75 17.075 12.75 17.475C12.75 17.8917 12.875 18.246 13.125 18.538C13.375 18.8293 13.5 19.1667 13.5 19.55C13.5 20.0333 13.3627 20.3957 13.088 20.637C12.8127 20.879 12.4333 21 11.95 21ZM6.5 12.5C6.78333 12.5 7.021 12.404 7.213 12.212C7.40433 12.0207 7.5 11.7833 7.5 11.5C7.5 11.2167 7.40433 10.979 7.213 10.787C7.021 10.5957 6.78333 10.5 6.5 10.5C6.21667 10.5 5.979 10.5957 5.787 10.787C5.59567 10.979 5.5 11.2167 5.5 11.5C5.5 11.7833 5.59567 12.0207 5.787 12.212C5.979 12.404 6.21667 12.5 6.5 12.5ZM9.5 8.5C9.78333 8.5 10.021 8.40433 10.213 8.213C10.4043 8.021 10.5 7.78333 10.5 7.5C10.5 7.21667 10.4043 6.979 10.213 6.787C10.021 6.59567 9.78333 6.5 9.5 6.5C9.21667 6.5 8.97933 6.59567 8.788 6.787C8.596 6.979 8.5 7.21667 8.5 7.5C8.5 7.78333 8.596 8.021 8.788 8.213C8.97933 8.40433 9.21667 8.5 9.5 8.5ZM14.5 8.5C14.7833 8.5 15.021 8.40433 15.213 8.213C15.4043 8.021 15.5 7.78333 15.5 7.5C15.5 7.21667 15.4043 6.979 15.213 6.787C15.021 6.59567 14.7833 6.5 14.5 6.5C14.2167 6.5 13.9793 6.59567 13.788 6.787C13.596 6.979 13.5 7.21667 13.5 7.5C13.5 7.78333 13.596 8.021 13.788 8.213C13.9793 8.40433 14.2167 8.5 14.5 8.5ZM17.5 12.5C17.7833 12.5 18.0207 12.404 18.212 12.212C18.404 12.0207 18.5 11.7833 18.5 11.5C18.5 11.2167 18.404 10.979 18.212 10.787C18.0207 10.5957 17.7833 10.5 17.5 10.5C17.2167 10.5 16.9793 10.5957 16.788 10.787C16.596 10.979 16.5 11.2167 16.5 11.5C16.5 11.7833 16.596 12.0207 16.788 12.212C16.9793 12.404 17.2167 12.5 17.5 12.5ZM11.95 20C12.1333 20 12.271 19.9623 12.363 19.887C12.4543 19.8123 12.5 19.7 12.5 19.55C12.5 19.3167 12.375 19.0667 12.125 18.8C11.875 18.5333 11.75 18.1 11.75 17.5C11.75 16.7667 11.9917 16.1667 12.475 15.7C12.9583 15.2333 13.55 15 14.25 15H16C17.25 15 18.2293 14.629 18.938 13.887C19.646 13.1457 20 12.15 20 10.9C20 8.86667 19.221 7.20833 17.663 5.925C16.1043 4.64167 14.3 4 12.25 4C9.93333 4 7.97933 4.775 6.388 6.325C4.796 7.875 4 9.76667 4 12C4 14.2167 4.77933 16.1043 6.338 17.663C7.896 19.221 9.76667 20 11.95 20Z" fill="white"/>
</g>
</svg>
