<svg width="24" height="24" viewBox="0 0 24 24" fill="none" xmlns="http://www.w3.org/2000/svg">
<mask id="mask0_184_5730" style="mask-type:alpha" maskUnits="userSpaceOnUse" x="0" y="0" width="24" height="24">
<rect width="24" height="24" fill="#C4C4C4"/>
</mask>
<g mask="url(#mask0_184_5730)">
<path d="M9.00002 19.225C8.66669 19.225 8.37902 19.1043 8.13702 18.863C7.89569 18.621 7.77502 18.3333 7.77502 18C7.77502 17.6667 7.89569 17.379 8.13702 17.137C8.37902 16.8957 8.66669 16.775 9.00002 16.775C9.33336 16.775 9.62102 16.8957 9.86302 17.137C10.1044 17.379 10.225 17.6667 10.225 18C10.225 18.3333 10.1044 18.621 9.86302 18.863C9.62102 19.1043 9.33336 19.225 9.00002 19.225ZM9.00002 13.225C8.66669 13.225 8.37902 13.1043 8.13702 12.863C7.89569 12.621 7.77502 12.3333 7.77502 12C7.77502 11.6667 7.89569 11.379 8.13702 11.137C8.37902 10.8957 8.66669 10.775 9.00002 10.775C9.33336 10.775 9.62102 10.8957 9.86302 11.137C10.1044 11.379 10.225 11.6667 10.225 12C10.225 12.3333 10.1044 12.621 9.86302 12.863C9.62102 13.1043 9.33336 13.225 9.00002 13.225ZM9.00002 7.22499C8.66669 7.22499 8.37902 7.10399 8.13702 6.86199C7.89569 6.62066 7.77502 6.33333 7.77502 5.99999C7.77502 5.66666 7.89569 5.37899 8.13702 5.13699C8.37902 4.89566 8.66669 4.77499 9.00002 4.77499C9.33336 4.77499 9.62102 4.89566 9.86302 5.13699C10.1044 5.37899 10.225 5.66666 10.225 5.99999C10.225 6.33333 10.1044 6.62066 9.86302 6.86199C9.62102 7.10399 9.33336 7.22499 9.00002 7.22499ZM15 7.22499C14.6667 7.22499 14.379 7.10399 14.137 6.86199C13.8957 6.62066 13.775 6.33333 13.775 5.99999C13.775 5.66666 13.8957 5.37899 14.137 5.13699C14.379 4.89566 14.6667 4.77499 15 4.77499C15.3334 4.77499 15.621 4.89566 15.863 5.13699C16.1044 5.37899 16.225 5.66666 16.225 5.99999C16.225 6.33333 16.1044 6.62066 15.863 6.86199C15.621 7.10399 15.3334 7.22499 15 7.22499ZM15 13.225C14.6667 13.225 14.379 13.1043 14.137 12.863C13.8957 12.621 13.775 12.3333 13.775 12C13.775 11.6667 13.8957 11.379 14.137 11.137C14.379 10.8957 14.6667 10.775 15 10.775C15.3334 10.775 15.621 10.8957 15.863 11.137C16.1044 11.379 16.225 11.6667 16.225 12C16.225 12.3333 16.1044 12.621 15.863 12.863C15.621 13.1043 15.3334 13.225 15 13.225ZM15 19.225C14.6667 19.225 14.379 19.1043 14.137 18.863C13.8957 18.621 13.775 18.3333 13.775 18C13.775 17.6667 13.8957 17.379 14.137 17.137C14.379 16.8957 14.6667 16.775 15 16.775C15.3334 16.775 15.621 16.8957 15.863 17.137C16.1044 17.379 16.225 17.6667 16.225 18C16.225 18.3333 16.1044 18.621 15.863 18.863C15.621 19.1043 15.3334 19.225 15 19.225Z" fill="#131316"/>
</g>
</svg>
