<svg width="20" height="20" viewBox="0 0 20 20" fill="none" xmlns="http://www.w3.org/2000/svg">
<mask id="mask0_184_4873" style="mask-type:alpha" maskUnits="userSpaceOnUse" x="0" y="0" width="20" height="20">
<rect width="20" height="20" fill="#C4C4C4"/>
</mask>
<g mask="url(#mask0_184_4873)">
<path d="M6.24992 13.75H13.8749L11.5208 10.6042L9.33325 13.375L7.87492 11.6042L6.24992 13.75ZM4.68742 16.6667C4.29853 16.6667 3.97575 16.5383 3.71909 16.2817C3.46186 16.0244 3.33325 15.7014 3.33325 15.3125V4.68749C3.33325 4.29861 3.46186 3.97583 3.71909 3.71916C3.97575 3.46194 4.29853 3.33333 4.68742 3.33333H15.3124C15.7013 3.33333 16.0244 3.46194 16.2816 3.71916C16.5383 3.97583 16.6666 4.29861 16.6666 4.68749V15.3125C16.6666 15.7014 16.5383 16.0244 16.2816 16.2817C16.0244 16.5383 15.7013 16.6667 15.3124 16.6667H4.68742ZM4.68742 15.8333H15.3124C15.4513 15.8333 15.5727 15.7811 15.6766 15.6767C15.781 15.5728 15.8333 15.4514 15.8333 15.3125V4.68749C15.8333 4.54861 15.781 4.42722 15.6766 4.32333C15.5727 4.21888 15.4513 4.16666 15.3124 4.16666H4.68742C4.54853 4.16666 4.42714 4.21888 4.32325 4.32333C4.21881 4.42722 4.16659 4.54861 4.16659 4.68749V15.3125C4.16659 15.4514 4.21881 15.5728 4.32325 15.6767C4.42714 15.7811 4.54853 15.8333 4.68742 15.8333Z" fill="#4D5760"/>
</g>
</svg>
