<svg width="36" height="36" viewBox="0 0 36 36" fill="none" xmlns="http://www.w3.org/2000/svg">
<rect width="36" height="36" rx="18" fill="#1D1C2F"/>
<g clip-path="url(#clip0_184_1140)">
<path d="M21 10H15C13.6739 10 12.4021 10.5268 11.4645 11.4645C10.5268 12.4021 10 13.6739 10 15L10 21C10 22.3261 10.5268 23.5979 11.4645 24.5355C12.4021 25.4732 13.6739 26 15 26H21C22.3261 26 23.5979 25.4732 24.5355 24.5355C25.4732 23.5979 26 22.3261 26 21V15C26 13.6739 25.4732 12.4021 24.5355 11.4645C23.5979 10.5268 22.3261 10 21 10V10ZM24.5 21C24.5 22.93 22.93 24.5 21 24.5H15C13.07 24.5 11.5 22.93 11.5 21V15C11.5 13.07 13.07 11.5 15 11.5H21C22.93 11.5 24.5 13.07 24.5 15V21Z" fill="white"/>
<path d="M18 14C16.9391 14 15.9217 14.4214 15.1716 15.1716C14.4214 15.9217 14 16.9391 14 18C14 19.0609 14.4214 20.0783 15.1716 20.8284C15.9217 21.5786 16.9391 22 18 22C19.0609 22 20.0783 21.5786 20.8284 20.8284C21.5786 20.0783 22 19.0609 22 18C22 16.9391 21.5786 15.9217 20.8284 15.1716C20.0783 14.4214 19.0609 14 18 14ZM18 20.5C17.3372 20.4992 16.7018 20.2356 16.2331 19.7669C15.7644 19.2982 15.5008 18.6628 15.5 18C15.5 16.621 16.622 15.5 18 15.5C19.378 15.5 20.5 16.621 20.5 18C20.5 19.378 19.378 20.5 18 20.5Z" fill="white"/>
<path d="M22.3001 14.233C22.5945 14.233 22.8331 13.9944 22.8331 13.7C22.8331 13.4056 22.5945 13.167 22.3001 13.167C22.0057 13.167 21.7671 13.4056 21.7671 13.7C21.7671 13.9944 22.0057 14.233 22.3001 14.233Z" fill="white"/>
</g>
<defs>
<clipPath id="clip0_184_1140">
<rect width="16" height="16" fill="white" transform="translate(10 10)"/>
</clipPath>
</defs>
</svg>
