<svg width="20" height="20" viewBox="0 0 20 20" fill="none" xmlns="http://www.w3.org/2000/svg">
<mask id="mask0_184_4369" style="mask-type:alpha" maskUnits="userSpaceOnUse" x="0" y="0" width="20" height="20">
<rect width="20" height="20" fill="#C4C4C4"/>
</mask>
<g mask="url(#mask0_184_4369)">
<path d="M8.85417 13.3958H5.83333C4.88889 13.3958 4.08694 13.0658 3.4275 12.4058C2.7675 11.7464 2.4375 10.9444 2.4375 10C2.4375 9.05556 2.7675 8.25362 3.4275 7.59417C4.08694 6.93417 4.88889 6.60417 5.83333 6.60417H8.85417V7.43751H5.83333C5.125 7.43751 4.52083 7.6875 4.02083 8.1875C3.52083 8.6875 3.27083 9.29167 3.27083 10C3.27083 10.7083 3.52083 11.3125 4.02083 11.8125C4.52083 12.3125 5.125 12.5625 5.83333 12.5625H8.85417V13.3958ZM7.08333 10.4167V9.58334H12.9167V10.4167H7.08333ZM11.1458 13.3958V12.5625H14.1667C14.875 12.5625 15.4792 12.3125 15.9792 11.8125C16.4792 11.3125 16.7292 10.7083 16.7292 10C16.7292 9.29167 16.4792 8.6875 15.9792 8.1875C15.4792 7.6875 14.875 7.43751 14.1667 7.43751H11.1458V6.60417H14.1667C15.1111 6.60417 15.9133 6.93417 16.5733 7.59417C17.2328 8.25362 17.5625 9.05556 17.5625 10C17.5625 10.9444 17.2328 11.7464 16.5733 12.4058C15.9133 13.0658 15.1111 13.3958 14.1667 13.3958H11.1458Z" fill="#4D5760"/>
</g>
</svg>
