<svg width="36" height="36" viewBox="0 0 36 36" fill="none" xmlns="http://www.w3.org/2000/svg">
<rect width="36" height="36" rx="18" fill="#1D1C2F"/>
<path d="M10 15H13.578V26H10V15Z" fill="white"/>
<path d="M23.324 15.129C23.286 15.117 23.25 15.104 23.21 15.093C23.162 15.0821 23.1136 15.0728 23.065 15.065C22.8537 15.0218 22.6386 15 22.423 15C20.337 15 19.014 16.517 18.578 17.103V15H15V26H18.578V20C18.578 20 21.282 16.234 22.423 19V26H26V18.577C25.9985 17.7871 25.735 17.0201 25.2507 16.3961C24.7664 15.7721 24.0888 15.3265 23.324 15.129Z" fill="white"/>
<path d="M11.75 13.5C12.7165 13.5 13.5 12.7165 13.5 11.75C13.5 10.7835 12.7165 10 11.75 10C10.7835 10 10 10.7835 10 11.75C10 12.7165 10.7835 13.5 11.75 13.5Z" fill="white"/>
</svg>
