<svg width="20" height="20" viewBox="0 0 20 20" fill="none" xmlns="http://www.w3.org/2000/svg">
<mask id="mask0_184_4849" style="mask-type:alpha" maskUnits="userSpaceOnUse" x="0" y="0" width="20" height="20">
<rect width="20" height="20" fill="#C4C4C4"/>
</mask>
<g mask="url(#mask0_184_4849)">
<path d="M2.18742 16.3542C1.79853 16.3542 1.47547 16.2258 1.21825 15.9692C0.961585 15.7119 0.833252 15.3889 0.833252 15V5C0.833252 4.61111 0.961585 4.28833 1.21825 4.03167C1.47547 3.77444 1.79853 3.64583 2.18742 3.64583H17.8124C18.2013 3.64583 18.5244 3.77444 18.7816 4.03167C19.0382 4.28833 19.1666 4.61111 19.1666 5V15C19.1666 15.3889 19.0382 15.7119 18.7816 15.9692C18.5244 16.2258 18.2013 16.3542 17.8124 16.3542H2.18742ZM12.3124 15.5208H17.8124C17.9513 15.5208 18.0727 15.4653 18.1766 15.3542C18.281 15.2431 18.3333 15.125 18.3333 15V5C18.3333 4.875 18.281 4.75694 18.1766 4.64583C18.0727 4.53472 17.9513 4.47917 17.8124 4.47917H2.18742C2.04853 4.47917 1.92714 4.53472 1.82325 4.64583C1.71881 4.75694 1.66659 4.875 1.66659 5V15C1.66659 15.125 1.71881 15.2431 1.82325 15.3542C1.92714 15.4653 2.04853 15.5208 2.18742 15.5208H2.68742C3.27075 14.7569 3.97908 14.1494 4.81242 13.6983C5.64575 13.2467 6.54158 13.0208 7.49992 13.0208C8.45825 13.0208 9.35408 13.2467 10.1874 13.6983C11.0208 14.1494 11.7291 14.7569 12.3124 15.5208ZM7.49992 11.8542C8.08325 11.8542 8.57631 11.6528 8.97908 11.25C9.38186 10.8472 9.58325 10.3542 9.58325 9.77083C9.58325 9.20139 9.38186 8.71167 8.97908 8.30167C8.57631 7.89222 8.08325 7.6875 7.49992 7.6875C6.91658 7.6875 6.42353 7.89222 6.02075 8.30167C5.61797 8.71167 5.41658 9.20139 5.41658 9.77083C5.41658 10.3542 5.61797 10.8472 6.02075 11.25C6.42353 11.6528 6.91658 11.8542 7.49992 11.8542ZM11.8333 9.33333H17.3333V5.47917H11.8333V9.33333ZM14.5833 8.41667L12.5416 6.95833V6.20833L14.5833 7.64583L16.6249 6.20833V6.95833L14.5833 8.41667ZM3.79159 15.5208H11.2083C10.7221 14.9931 10.1596 14.5833 9.52075 14.2917C8.88186 14 8.20825 13.8542 7.49992 13.8542C6.79158 13.8542 6.11797 14 5.47908 14.2917C4.8402 14.5833 4.2777 14.9931 3.79159 15.5208ZM7.49992 11.0208C7.1527 11.0208 6.8577 10.8992 6.61492 10.6558C6.37158 10.4131 6.24992 10.1181 6.24992 9.77083C6.24992 9.4375 6.37158 9.14583 6.61492 8.89583C6.8577 8.64583 7.1527 8.52083 7.49992 8.52083C7.84714 8.52083 8.14214 8.64583 8.38492 8.89583C8.62825 9.14583 8.74992 9.4375 8.74992 9.77083C8.74992 10.1181 8.62825 10.4131 8.38492 10.6558C8.14214 10.8992 7.84714 11.0208 7.49992 11.0208Z" fill="#4D5760"/>
</g>
</svg>
