<svg width="36" height="36" viewBox="0 0 36 36" fill="none" xmlns="http://www.w3.org/2000/svg">
<rect width="36" height="36" rx="18" fill="#1D1C2F"/>
<path d="M26 13.539C25.3981 13.8015 24.7616 13.976 24.11 14.057C24.7967 13.6496 25.3101 13.0046 25.553 12.244C24.91 12.6253 24.2065 12.8939 23.473 13.038C23.0232 12.5578 22.4395 12.2239 21.7975 12.0798C21.1555 11.9357 20.485 11.9879 19.8732 12.2298C19.2613 12.4717 18.7363 12.892 18.3664 13.4361C17.9965 13.9803 17.7988 14.6231 17.799 15.281C17.799 15.541 17.821 15.791 17.875 16.029C16.5701 15.965 15.2934 15.6263 14.1283 15.0351C12.9632 14.4439 11.9361 13.6134 11.114 12.598C10.6928 13.3199 10.5626 14.1751 10.7499 14.9896C10.9372 15.8041 11.4278 16.5166 12.122 16.982C11.6028 16.9681 11.0945 16.8295 10.64 16.578V16.614C10.6409 17.3714 10.9027 18.1054 11.3813 18.6925C11.86 19.2795 12.5262 19.6837 13.268 19.837C12.9874 19.911 12.6982 19.9473 12.408 19.945C12.1996 19.9487 11.9914 19.9299 11.787 19.889C11.9989 20.54 12.4075 21.1093 12.9564 21.5186C13.5053 21.9278 14.1676 22.1568 14.852 22.174C13.6909 23.082 12.259 23.5746 10.785 23.573C10.516 23.573 10.258 23.561 10 23.528C11.4999 24.4945 13.2477 25.0058 15.032 25C21.068 25 24.368 20 24.368 15.666C24.368 15.521 24.363 15.381 24.356 15.242C25.003 14.779 25.5601 14.2019 26 13.539Z" fill="white"/>
</svg>
