<svg width="20" height="20" viewBox="0 0 20 20" fill="none" xmlns="http://www.w3.org/2000/svg">
<mask id="mask0_2009_30295" style="mask-type:alpha" maskUnits="userSpaceOnUse" x="0" y="0" width="20" height="20">
<rect width="20" height="20" fill="#C4C4C4"/>
</mask>
<g mask="url(#mask0_2009_30295)">
<path d="M10 13.9377C10.875 13.9377 11.6111 13.6391 12.2083 13.0418C12.8056 12.4446 13.1042 11.7085 13.1042 10.8335C13.1042 9.9585 12.8056 9.22238 12.2083 8.62516C11.6111 8.02794 10.875 7.72933 10 7.72933C9.125 7.72933 8.38889 8.02794 7.79167 8.62516C7.19444 9.22238 6.89583 9.9585 6.89583 10.8335C6.89583 11.7085 7.19444 12.4446 7.79167 13.0418C8.38889 13.6391 9.125 13.9377 10 13.9377ZM10 13.1043C9.34722 13.1043 8.80556 12.8891 8.375 12.4585C7.94444 12.0279 7.72917 11.4863 7.72917 10.8335C7.72917 10.1807 7.94444 9.63905 8.375 9.2085C8.80556 8.77794 9.34722 8.56266 10 8.56266C10.6528 8.56266 11.1944 8.77794 11.625 9.2085C12.0556 9.63905 12.2708 10.1807 12.2708 10.8335C12.2708 11.4863 12.0556 12.0279 11.625 12.4585C11.1944 12.8891 10.6528 13.1043 10 13.1043ZM3.85417 16.6668C3.46528 16.6668 3.1425 16.5385 2.88583 16.2818C2.62861 16.0246 2.5 15.7016 2.5 15.3127V6.35433C2.5 5.96544 2.62861 5.64266 2.88583 5.386C3.1425 5.12877 3.46528 5.00016 3.85417 5.00016H6.3125L7.85417 3.3335H12.1458L13.6875 5.00016H16.1458C16.5347 5.00016 16.8578 5.12877 17.115 5.386C17.3717 5.64266 17.5 5.96544 17.5 6.35433V15.3127C17.5 15.7016 17.3717 16.0246 17.115 16.2818C16.8578 16.5385 16.5347 16.6668 16.1458 16.6668H3.85417ZM16.1458 15.8335C16.2986 15.8335 16.4236 15.7849 16.5208 15.6877C16.6181 15.5904 16.6667 15.4654 16.6667 15.3127V6.35433C16.6667 6.20155 16.6181 6.07655 16.5208 5.97933C16.4236 5.88211 16.2986 5.8335 16.1458 5.8335H13.3333L11.7917 4.16683H8.20833L6.66667 5.8335H3.85417C3.70139 5.8335 3.57639 5.88211 3.47917 5.97933C3.38194 6.07655 3.33333 6.20155 3.33333 6.35433V15.3127C3.33333 15.4654 3.38194 15.5904 3.47917 15.6877C3.57639 15.7849 3.70139 15.8335 3.85417 15.8335H16.1458Z" fill="white"/>
</g>
</svg>
