<svg width="20" height="20" viewBox="0 0 20 20" fill="none" xmlns="http://www.w3.org/2000/svg">
<mask id="mask0_2009_30306" style="mask-type:alpha" maskUnits="userSpaceOnUse" x="0" y="0" width="20" height="20">
<rect width="20" height="20" fill="#C4C4C4"/>
</mask>
<g mask="url(#mask0_2009_30306)">
<path d="M7.1875 15.8332H12.8125C12.9514 15.8332 13.0728 15.7809 13.1767 15.6765C13.2811 15.5726 13.3333 15.4512 13.3333 15.3123V7.49984H6.66667V15.3123C6.66667 15.4512 6.71889 15.5726 6.82333 15.6765C6.92722 15.7809 7.04861 15.8332 7.1875 15.8332ZM5.1875 5.52067V4.68734H7.25L8.08333 3.854H11.9167L12.75 4.68734H14.8125V5.52067H5.1875ZM7.1875 16.6665C6.79861 16.6665 6.47583 16.5382 6.21917 16.2815C5.96194 16.0243 5.83333 15.7012 5.83333 15.3123V6.6665H14.1667V15.3123C14.1667 15.7012 14.0383 16.0243 13.7817 16.2815C13.5244 16.5382 13.2014 16.6665 12.8125 16.6665H7.1875ZM6.66667 15.8332H13.3333C13.3333 15.8332 13.2811 15.8332 13.1767 15.8332C13.0728 15.8332 12.9514 15.8332 12.8125 15.8332H7.1875C7.04861 15.8332 6.92722 15.8332 6.82333 15.8332C6.71889 15.8332 6.66667 15.8332 6.66667 15.8332Z" fill="white"/>
</g>
</svg>
