<svg width="220" height="200" viewBox="0 0 220 200" fill="none" xmlns="http://www.w3.org/2000/svg">
<g clip-path="url(#clip0_116_12530)">
<path fill-rule="evenodd" clip-rule="evenodd" d="M36.3951 179.339C36.3951 179.339 45.8086 166.66 51.9241 158.429C55.1442 154.091 60.2285 151.537 65.629 151.544L131.998 151.628L131.963 179.459L36.3951 179.339Z" fill="#FFEEE7"/>
<path fill-rule="evenodd" clip-rule="evenodd" d="M188.183 179.53L169.026 151.674L94.0708 151.58L94.0357 179.411L188.183 179.53Z" fill="#FFEEE7"/>
<path d="M55.9114 74.1441C57.8098 74.249 56.8975 76.0998 55.9089 76.1497L29.2845 76.1162C28.2398 76.0563 27.7928 74.1892 29.2871 74.1106L55.9114 74.1441Z" fill="#FFEEE7"/>
<path d="M215.255 74.3278C217.253 74.4548 216.232 76.2761 215.253 76.3335L178.067 76.2866C177.021 76.2194 176.586 74.3743 178.07 74.281L215.255 74.3278Z" fill="#FFEEE7"/>
<path d="M165.005 74.2896C166.02 74.394 166.308 76.148 165.003 76.2839L71.2915 76.1659C70.2036 76.0614 69.9883 74.273 71.294 74.1715L165.005 74.2896Z" fill="#FFEEE7"/>
<path d="M81.2734 75.3921C84.2929 80.7992 93.5237 80.66 96.5946 80.9928C110.541 82.5235 107.937 93.1582 101.912 99.6924C98.4085 103.499 94.1157 105.407 90.3327 105.908" stroke="#FFEEE7" stroke-width="2.00318" stroke-miterlimit="1.5" stroke-linecap="round"/>
<path d="M129.052 80.1587C138.691 85.8614 145.103 95.521 145.326 103.748" stroke="#FFEEE7" stroke-width="1.99868" stroke-miterlimit="1.5" stroke-linecap="round"/>
<path d="M116.726 82.3794C115.614 81.3549 114.307 80.4453 112.822 80.0874M121.347 102.306C122.017 100.768 122.579 99.2199 122.768 97.5467L121.347 102.306ZM123.071 90.595C122.93 89.2241 122.362 87.817 121.563 86.6851L123.071 90.595Z" stroke="#FFEEE7" stroke-width="2.00318" stroke-miterlimit="1.5" stroke-linecap="round"/>
<path d="M202.369 20.2827L192.822 20.2707C169.445 20.2412 147.597 31.6876 134.235 50.8915C127.483 60.6694 121.716 69.0135 121.716 69.0135" stroke="#FFEEE7" stroke-width="2.00101" stroke-miterlimit="1.5" stroke-linecap="round"/>
<path fill-rule="evenodd" clip-rule="evenodd" d="M43.0821 59.4268L48.5395 75.868L37.5833 75.8542L43.0821 59.4268Z" fill="#FFEEE7"/>
<path fill-rule="evenodd" clip-rule="evenodd" d="M192.137 62.1387L196.756 76.0524L187.484 76.0407L192.137 62.1387Z" fill="#FFEEE7"/>
<path fill-rule="evenodd" clip-rule="evenodd" d="M204.337 61.4223L208.956 75.3361L199.684 75.3244L204.337 61.4223Z" fill="#FFEEE7"/>
<path fill-rule="evenodd" clip-rule="evenodd" d="M29.4463 46.1924L41.1354 46.2071C47.9737 46.213 54.7189 47.792 60.8493 50.822C66.9796 53.852 72.3308 58.2516 76.4886 63.6806C78.1125 65.7664 79.1789 67.1704 79.1789 67.1704" fill="white"/>
<path d="M29.4463 46.1924L41.1354 46.2071C47.9737 46.213 54.7189 47.792 60.8493 50.822C66.9796 53.852 72.3308 58.2516 76.4886 63.6806C78.1126 65.7664 79.1789 67.1704 79.1789 67.1704" stroke="#FFEEE7" stroke-width="1.99756" stroke-miterlimit="1.5" stroke-linecap="round"/>
<path d="M202.482 33.5703C192.015 33.5571 182.345 39.0992 176.99 48.1281C173.689 53.7513 170.682 58.85 170.682 58.85L167.095 58.8455C161.532 58.8384 156.185 61.3033 152.52 65.5839" stroke="#FFEEE7" stroke-width="1.99447" stroke-miterlimit="1.5" stroke-linecap="round"/>
<path fill-rule="evenodd" clip-rule="evenodd" d="M49.1674 150.425C49.1674 150.425 42.0074 124.929 38.2625 111.505C37.7117 109.576 38.1573 107.507 39.2657 105.902C40.4848 104.297 42.3665 103.345 44.3581 103.31C59.8482 103.074 93.4834 102.606 118.046 102.665C141.17 102.723 170.489 103.223 184.54 103.486C186.531 103.517 188.411 104.483 189.626 106.091C190.841 107.699 191.17 109.769 190.615 111.697C186.836 125.111 179.612 150.589 179.612 150.589" fill="#FFEEE7"/>
<path fill-rule="evenodd" clip-rule="evenodd" d="M35.6802 155.382L71.0463 154.893L56.9963 150.576L59.8179 143.77L105.188 94.9404L17.9473 99.8598L35.6802 155.382Z" fill="white"/>
<path fill-rule="evenodd" clip-rule="evenodd" d="M156.095 154.442L199.14 156.49L211.263 100.106L145.855 100.024L156.095 154.442Z" fill="white"/>
<path d="M49.1674 150.425C49.1674 150.425 42.0074 124.929 38.2625 111.505C37.7117 109.576 38.1573 107.507 39.2657 105.902C40.4848 104.297 42.3665 103.345 44.3581 103.31C59.8482 103.074 93.4834 102.606 118.046 102.665C141.17 102.723 170.489 103.223 184.54 103.486C186.531 103.517 188.411 104.483 189.626 106.091C190.841 107.699 191.17 109.769 190.615 111.697C186.836 125.111 179.612 150.589 179.612 150.589" stroke="#FFEEE7" stroke-width="1.98372" stroke-miterlimit="1.5" stroke-linecap="round"/>
<path fill-rule="evenodd" clip-rule="evenodd" d="M29.2412 139.379L46.6743 127.189L55.3676 139.622L37.9345 151.812L29.2412 139.379Z" fill="white"/>
<path fill-rule="evenodd" clip-rule="evenodd" d="M58.928 142.838L66.4322 135.932L66.5244 122.984C66.5244 122.984 60.2065 120.118 54.5191 123.269C45.6578 128.186 43.5882 141.497 30.1707 141.199C12.2924 140.802 5.60721 149.854 5.24063 161.2C5.00275 168.554 11.1453 173.762 19.5352 175.581L45.7696 175.614" fill="#FFEEE7"/>
<path fill-rule="evenodd" clip-rule="evenodd" d="M177.188 132.967L194.986 134.543L192.569 161.849L174.771 160.273L177.188 132.967Z" fill="white"/>
<path fill-rule="evenodd" clip-rule="evenodd" d="M173.065 138.119C173.065 138.119 177.746 145.217 185.41 149.556C198.19 156.796 211.139 155.763 213.521 147.717C215.76 140.15 212.817 134.946 205.576 132.716C201.646 131.503 197.596 132.406 193.862 134.107C188.916 136.368 182.33 138.796 174.715 135.854" fill="#FFEEE7"/>
<path d="M56.5576 151.543L178.918 151.698" stroke="white" stroke-width="2.00318" stroke-miterlimit="1.5" stroke-linecap="round" stroke-linejoin="round"/>
<path d="M95.4727 165.507L128.131 165.548" stroke="white" stroke-width="1.41969" stroke-miterlimit="1.5" stroke-linecap="round" stroke-linejoin="round"/>
<path d="M92.6294 170.986L130.045 171.033" stroke="white" stroke-width="1.48659" stroke-miterlimit="1.5" stroke-linecap="round" stroke-linejoin="round"/>
<path d="M94.5366 175.673L128.118 175.716" stroke="white" stroke-width="1.41969" stroke-miterlimit="1.5" stroke-linecap="round" stroke-linejoin="round"/>
<path d="M118.547 110.329C114.711 121.755 99.7831 123.542 103.348 131.294C106.889 139.057 123.165 138.709 124.52 151.365" stroke="white" stroke-width="1.81409" stroke-miterlimit="1.5" stroke-linecap="round"/>
<path d="M145.756 151.658C145.378 151.684 144.998 151.727 144.618 151.77C142.504 152.048 140.418 152.668 138.634 154.015C135.824 156.124 134.183 160.426 132.927 163.957C131.223 168.766 128.977 174.47 127.415 179.332" stroke="white" stroke-width="1.90217" stroke-miterlimit="1.5" stroke-linecap="round" stroke-linejoin="round"/>
<path d="M68.8477 151.573L74.5712 151.58C77.9746 151.745 82.9853 152.637 85.5581 154.392C88.7262 156.551 89.9633 160.943 90.8628 164.547C92.0793 169.457 93.8948 174.341 94.9195 179.304" stroke="white" stroke-width="2.09174" stroke-miterlimit="1.5" stroke-linecap="round" stroke-linejoin="round"/>
<path d="M59.2101 142.914L53.4594 160.02" stroke="#FF8D57" stroke-width="1.99618" stroke-miterlimit="1.5" stroke-linecap="round" stroke-linejoin="round"/>
<path fill-rule="evenodd" clip-rule="evenodd" d="M32.4868 179.996C32.4868 179.996 31.3686 175.169 30.0255 169.545C29.018 165.433 30.0348 161.09 32.6269 157.766C35.2189 154.442 39.2737 152.509 43.4367 152.514L65.6013 152.542C73.815 152.553 80.8954 158.212 82.6856 166.188C84.3647 173.105 85.9315 180.063 85.9315 180.063" fill="#FFAA81"/>
<path d="M32.4868 179.486C32.4868 179.486 31.4792 175.445 30.2477 170.555C29.2403 166.424 30.1473 162.033 32.7393 158.677C35.3314 155.321 39.3836 153.353 43.6592 153.358L52.6604 153.37" stroke="#FF5403" stroke-width="1.98884" stroke-miterlimit="1.5" stroke-linecap="round" stroke-linejoin="round"/>
<path fill-rule="evenodd" clip-rule="evenodd" d="M132.095 106.698C132.096 105.532 131.145 104.584 130.003 104.582L109.354 104.556C108.213 104.555 107.261 105.5 107.259 106.667L107.254 110.893C107.252 112.059 108.202 113.007 109.344 113.008L129.992 113.034C131.134 113.036 132.088 112.09 132.089 110.924L132.095 106.698Z" fill="#FFEEE7" stroke="white" stroke-width="1.99094" stroke-miterlimit="1.5" stroke-linecap="round" stroke-linejoin="round"/>
<path d="M142.963 125.904C143.823 123.223 145.515 120.885 147.792 119.229C150.07 117.573 152.815 116.684 155.631 116.692C158.589 116.705 161.889 116.709 164.985 116.713C171.625 116.732 176.999 122.129 176.991 128.769L176.991 128.778C176.986 132.734 174.979 136.423 171.657 138.577C169.389 140.058 167.25 141.442 167.25 141.442" stroke="#FFAA81" stroke-width="2.00224" stroke-miterlimit="1.5" stroke-linecap="round" stroke-linejoin="round"/>
<path fill-rule="evenodd" clip-rule="evenodd" d="M189.182 180.193C189.182 180.193 190.312 175.369 191.669 169.748C192.687 165.639 191.681 161.293 189.098 157.963C186.514 154.633 182.464 152.69 178.301 152.684L156.136 152.656C147.923 152.646 140.828 158.287 139.018 166.259C137.321 173.172 135.737 180.126 135.737 180.126" fill="#FFAA81"/>
<path d="M188.715 179.682C188.715 179.682 189.733 175.645 190.977 170.758C191.994 166.629 191.098 162.236 188.515 158.874C185.931 155.511 181.884 153.532 177.608 153.527L168.607 153.516" stroke="#FF5403" stroke-width="1.98884" stroke-miterlimit="1.5" stroke-linecap="round" stroke-linejoin="round"/>
<path d="M177.789 172.398L176.217 179.526" stroke="#FF8D57" stroke-width="2.03385" stroke-miterlimit="1.5" stroke-linecap="round" stroke-linejoin="round"/>
<path d="M165.927 172.383L164.356 179.511" stroke="#FF8D57" stroke-width="2.03385" stroke-miterlimit="1.5" stroke-linecap="round" stroke-linejoin="round"/>
<path d="M154.056 172.368L152.484 179.496" stroke="#FF8D57" stroke-width="2.03385" stroke-miterlimit="1.5" stroke-linecap="round" stroke-linejoin="round"/>
<path d="M181.516 166.443L151.853 166.406" stroke="#FF8D57" stroke-width="1.99969" stroke-miterlimit="1.5" stroke-linecap="round" stroke-linejoin="round"/>
<path d="M43.8994 172.229L45.4532 179.362" stroke="#FF8D57" stroke-width="2.03385" stroke-miterlimit="1.5" stroke-linecap="round" stroke-linejoin="round"/>
<path d="M55.77 172.244L57.3238 179.376" stroke="#FF8D57" stroke-width="2.03385" stroke-miterlimit="1.5" stroke-linecap="round" stroke-linejoin="round"/>
<path d="M67.6318 172.259L69.1856 179.391" stroke="#FF8D57" stroke-width="2.03385" stroke-miterlimit="1.5" stroke-linecap="round" stroke-linejoin="round"/>
<path fill-rule="evenodd" clip-rule="evenodd" d="M70.2846 127.126C69.5827 125.382 68.2773 123.985 66.48 123.232L66.4826 123.203C66.4826 123.203 65.7688 134.134 57.7294 135.71C57.7294 135.71 57.0645 135.132 56.4113 134.427C55.7542 133.764 54.7826 133.388 53.9181 133.423C52.9124 133.432 52.0164 133.824 51.3793 134.512C50.5829 135.372 50.3248 136.612 50.6529 137.733C52.6672 143.96 63.9687 149.1 69.7343 147.273C72.8436 146.237 73.8026 143.611 73.1442 138.254C73.1442 138.254 75.0951 137.327 76.892 136.515C77.3373 136.355 77.5157 135.955 77.4111 135.529C77.4476 135.131 77.0492 134.778 76.7683 134.71C75.5001 134.45 74.2345 134.162 73.2485 133.957C72.4047 133.765 71.7513 133.074 71.6871 132.206C71.5157 130.942 71.1157 129.025 70.2846 127.126Z" fill="#FFAA81"/>
<path fill-rule="evenodd" clip-rule="evenodd" d="M146.104 125.624C146.918 122.926 151.24 121.039 153.587 120.47C158.297 119.324 165.252 119.014 169.574 121.315C172.998 123.137 175.545 130.814 171.79 134.875C170.495 136.279 161.924 141.618 161.924 141.618" fill="#FFEEE7"/>
<path d="M73.7893 130.938C75.5433 122.002 65.0105 115.871 56.2503 118.745C50.2026 120.733 46.6556 125.629 43.1738 130.206C41.2574 132.715 39.2348 135.58 35.3803 136.999C28.6472 139.483 22.912 137.274 15.5297 139.644C2.93676 143.695 1.93831 154.534 1.93831 154.534" stroke="#FF8D57" stroke-width="1.99568" stroke-miterlimit="1.5" stroke-linecap="round" stroke-linejoin="round"/>
<path d="M176.057 133.622C177.673 134.23 179.458 134.62 181.519 134.479C188.614 134.005 192.085 129.721 198.95 129.035C210.995 127.836 215.287 134.702 217.028 139.008" stroke="#FFAA81" stroke-width="1.99568" stroke-miterlimit="1.5" stroke-linecap="round" stroke-linejoin="round"/>
<path d="M201.349 133.116C204.444 133.242 207.885 134.245 210.368 136.413C213.059 138.751 214.693 142.81 214.918 146.614" stroke="#FFAA81" stroke-width="1.99506" stroke-miterlimit="1.5" stroke-linecap="round" stroke-linejoin="round"/>
<path d="M16.5259 143.802C16.5259 143.802 5.77562 146.445 5.28111 158.994" stroke="#FF8D57" stroke-width="2.00254" stroke-miterlimit="1.5" stroke-linecap="round" stroke-linejoin="round"/>
<path d="M19.5366 179.459L213.98 179.704" stroke="#FF5403" stroke-width="2.00131" stroke-miterlimit="1.5" stroke-linecap="round"/>
<path d="M43.0063 166.269L72.6689 166.306" stroke="#FF8D57" stroke-width="1.99969" stroke-miterlimit="1.5" stroke-linecap="round" stroke-linejoin="round"/>
<path d="M68.5034 131.869C68.6769 132.481 68.7474 133.099 68.7934 133.726" stroke="#FF5403" stroke-width="1.99568" stroke-miterlimit="1.5" stroke-linecap="round"/>
<path d="M70.0604 139.995C69.6696 140.094 68.5902 140.194 67.7046 139.64" stroke="#FF5403" stroke-width="2.00224" stroke-miterlimit="1.5" stroke-linecap="round"/>
<path d="M91.0752 145.031C104.584 149.335 112.055 163.805 107.753 177.308C107.565 177.897 107.361 178.468 107.137 179.032" stroke="#FF5403" stroke-width="2.99727" stroke-miterlimit="1.5" stroke-linecap="round" stroke-linejoin="round"/>
<path d="M77.4029 144.505C78.9508 144.137 80.5299 143.917 82.1194 143.847C85.1513 143.705 88.1842 144.106 91.0751 145.031" stroke="#FFAA81" stroke-width="2.99727" stroke-miterlimit="1.5" stroke-linecap="round" stroke-linejoin="round"/>
<path fill-rule="evenodd" clip-rule="evenodd" d="M145.56 126.308C146.35 123.898 148.502 122.286 151.087 122.3L151.086 122.286C153.097 122.308 155.184 123.17 156.611 124.694C157.319 125.449 157.869 126.339 158.226 127.311C158.584 128.282 158.742 129.316 158.693 130.35C158.479 132.794 158.374 134.841 158.374 134.841C158.374 134.841 159.041 134.266 159.696 133.561C160.355 132.9 161.327 132.527 162.192 132.564C163.197 132.576 164.092 132.97 164.728 133.659C165.522 134.522 165.777 135.762 165.446 136.882C163.416 143.105 152.101 148.215 146.341 146.374C143.234 145.33 142.281 142.702 142.953 137.347C142.953 137.347 141.005 136.415 139.21 135.599C138.765 135.437 138.588 135.037 138.693 134.611C138.658 134.212 139.057 133.861 139.338 133.793C140.607 133.537 141.873 133.252 142.86 133.049C143.705 132.874 144.358 132.155 144.423 131.274C144.599 130.024 144.865 128.178 145.56 126.308Z" fill="#FFAA81"/>
<path d="M146.536 139.481C146.937 139.534 148.02 139.506 148.834 138.851" stroke="#FF5403" stroke-width="2.00224" stroke-miterlimit="1.5" stroke-linecap="round"/>
<path d="M147.76 131.219C147.585 131.831 147.513 132.449 147.465 133.076" stroke="white" stroke-width="1.99568" stroke-miterlimit="1.5" stroke-linecap="round"/>
<path d="M145.769 136.97C147.198 137.39 148.885 135.375 149.537 132.47C150.188 129.564 149.558 126.868 148.13 126.448C146.701 126.028 145.014 128.043 144.362 130.949C143.711 133.854 144.341 136.55 145.769 136.97Z" fill="#FF5403"/>
<path d="M146.129 131.533L158.622 133.817" stroke="#FF5403" stroke-width="1.87736" stroke-miterlimit="1.5" stroke-linecap="round" stroke-linejoin="round"/>
</g>
<defs>
<clipPath id="clip0_116_12530">
<rect width="220" height="200" fill="white"/>
</clipPath>
</defs>
</svg>
