<svg width="152" height="33" viewBox="0 0 152 33" fill="none" xmlns="http://www.w3.org/2000/svg">
<rect width="151.308" height="32.8462" rx="7.38462" fill="#06051B"/>
<mask id="mask0_772_46172" style="mask-type:alpha" maskUnits="userSpaceOnUse" x="9" y="6" width="21" height="21">
<rect x="9.8457" y="6.57715" width="19.6923" height="19.6923" fill="#C4C4C4"/>
</mask>
<g mask="url(#mask0_772_46172)">
<path d="M19.6918 9.03857C20.6081 9.03857 21.3843 9.35639 22.0204 9.99201C22.6561 10.6282 22.9739 11.4044 22.9739 12.3206V13.9617H24.1021C24.4713 13.9617 24.7858 14.0916 25.0457 14.3514C25.3055 14.6112 25.4354 14.9258 25.4354 15.295V22.4745C25.4354 22.8437 25.3055 23.1582 25.0457 23.4181C24.7858 23.6779 24.4713 23.8078 24.1021 23.8078H15.2816C14.9123 23.8078 14.5978 23.6779 14.338 23.4181C14.0782 23.1582 13.9482 22.8437 13.9482 22.4745V15.295C13.9482 14.9258 14.0782 14.6112 14.338 14.3514C14.5978 14.0916 14.9123 13.9617 15.2816 13.9617H16.4098V12.3206C16.4098 11.4044 16.7279 10.6282 17.364 9.99201C17.9997 9.35639 18.7756 9.03857 19.6918 9.03857ZM19.6918 9.85909C19.0081 9.85909 18.4269 10.0984 17.9482 10.577C17.4696 11.0557 17.2303 11.6369 17.2303 12.3206V13.9617H22.1534V12.3206C22.1534 11.6369 21.9141 11.0557 21.4354 10.577C20.9568 10.0984 20.3756 9.85909 19.6918 9.85909ZM15.2816 22.9873H24.1021C24.2525 22.9873 24.3756 22.9394 24.4713 22.8437C24.567 22.748 24.6149 22.6249 24.6149 22.4745V15.295C24.6149 15.1446 24.567 15.0215 24.4713 14.9258C24.3756 14.83 24.2525 14.7822 24.1021 14.7822H15.2816C15.1311 14.7822 15.0081 14.83 14.9123 14.9258C14.8166 15.0215 14.7688 15.1446 14.7688 15.295V22.4745C14.7688 22.6249 14.8166 22.748 14.9123 22.8437C15.0081 22.9394 15.1311 22.9873 15.2816 22.9873ZM19.6918 17.654C19.35 17.654 19.0595 17.7738 18.8204 18.0133C18.5809 18.2524 18.4611 18.5428 18.4611 18.8847C18.4611 19.2266 18.5809 19.5171 18.8204 19.7561C19.0595 19.9957 19.35 20.1155 19.6918 20.1155C20.0337 20.1155 20.3242 19.9957 20.5632 19.7561C20.8028 19.5171 20.9226 19.2266 20.9226 18.8847C20.9226 18.5428 20.8028 18.2524 20.5632 18.0133C20.3242 17.7738 20.0337 17.654 19.6918 17.654Z" fill="white"/>
</g>
<path d="M39.6016 22.0705C42.009 22.0705 43.7813 20.6527 43.7813 17.7284V11.3185H42.3635V17.6841C42.3635 19.8552 41.2115 20.8004 39.6016 20.8004C38.0065 20.8004 36.8545 19.8552 36.8545 17.6841V11.3185H35.4367V17.7284C35.4367 20.6527 37.209 22.0705 39.6016 22.0705ZM49.5895 22.0853C51.7311 22.0853 52.9569 20.2539 52.9569 18.0681C52.9569 15.8675 51.7311 14.0509 49.5895 14.0509C48.5114 14.0509 47.6548 14.5678 47.1969 15.321V14.1985H45.8677V24.5813H47.1969V20.8004C47.6548 21.5684 48.5114 22.0853 49.5895 22.0853ZM47.1674 17.8022C47.1674 16.0004 48.2603 15.2176 49.3532 15.2176C50.8006 15.2176 51.6129 16.3992 51.6129 18.0681C51.6129 19.7222 50.8006 20.9185 49.3532 20.9185C48.2603 20.9185 47.1674 20.121 47.1674 18.3487V17.8022ZM61.1797 21.2287V14.1985H59.8505V15.3358C59.4369 14.5825 58.5508 14.0509 57.4874 14.0509C55.3754 14.0509 54.1348 15.7936 54.1348 17.8909C54.1348 20.0029 55.3754 21.7456 57.4874 21.7456C58.5655 21.7456 59.4369 21.2139 59.8505 20.4607V21.3321C59.8505 22.9419 58.9495 23.6361 57.5908 23.6361C56.5126 23.6361 55.7151 23.0601 55.464 22.0705L54.2234 22.5432C54.6517 23.961 55.8923 24.7438 57.5908 24.7438C59.688 24.7438 61.1797 23.4884 61.1797 21.2287ZM59.8652 17.7727V18.0533C59.8652 19.7518 58.8314 20.5789 57.7237 20.5789C56.3206 20.5789 55.464 19.5155 55.464 17.8909C55.464 16.2662 56.3206 15.2176 57.7237 15.2176C58.8314 15.2176 59.8652 16.0447 59.8652 17.7727ZM67.3942 14.169C67.2613 14.1542 67.0693 14.1395 66.8625 14.1395C65.8139 14.1395 65.0606 14.7302 64.721 15.513V14.1985H63.3917V21.9229H64.721V17.6989C64.721 16.3401 65.6219 15.4539 66.7443 15.4539C66.9954 15.4539 67.1726 15.4687 67.3942 15.513V14.169ZM70.6342 22.0558C71.6828 22.0558 72.5394 21.657 73.012 21.0515C73.1745 21.7899 73.8539 22.0705 75.0354 21.9229V20.8595C74.5185 20.9776 74.2083 20.8152 74.2083 20.313V16.5469C74.2083 14.8927 73.145 14.0509 71.417 14.0509C69.8366 14.0509 68.6994 14.9518 68.3302 16.2072L69.5856 16.5321C69.8219 15.6755 70.3979 15.2176 71.3726 15.2176C72.4065 15.2176 72.8939 15.7198 72.8939 16.6059V16.9309L71.0182 17.3149C69.2902 17.6693 68.0939 18.3044 68.0939 19.8404C68.0939 21.2287 69.2311 22.0558 70.6342 22.0558ZM72.8939 19.2939C72.8939 20.2835 71.9339 20.9776 70.7966 20.9776C69.9548 20.9776 69.4083 20.5345 69.4083 19.7813C69.4083 18.8509 70.2059 18.5259 71.3874 18.2896L72.8939 17.9647V19.2939ZM79.3091 22.0853C80.3873 22.0853 81.2439 21.5684 81.7018 20.8004V21.9229H83.031V11.3185H81.7018V15.321C81.2439 14.5678 80.3873 14.0509 79.3091 14.0509C77.1676 14.0509 75.9418 15.8675 75.9418 18.0681C75.9418 20.2539 77.1676 22.0853 79.3091 22.0853ZM81.7313 17.8022V18.3487C81.7313 20.121 80.6384 20.9185 79.5455 20.9185C78.0981 20.9185 77.2858 19.7222 77.2858 18.0681C77.2858 16.3992 78.0981 15.2176 79.5455 15.2176C80.6384 15.2176 81.7313 16.0004 81.7313 17.8022ZM88.315 22.0853C89.851 22.0853 91.0178 21.2435 91.4904 19.8699L90.3236 19.4564C90.0873 20.3721 89.3489 20.9333 88.315 20.9333C86.971 20.9333 86.0406 19.8995 85.9667 18.2749H91.5495V17.8318C91.5495 15.6902 90.4123 14.0509 88.256 14.0509C86.1587 14.0509 84.6966 15.7641 84.6966 18.0681C84.6966 20.4459 86.1735 22.0853 88.315 22.0853ZM88.2412 15.1881C89.5852 15.1881 90.176 16.1629 90.2055 17.2558H86.0406C86.2769 15.9413 87.1187 15.1881 88.2412 15.1881ZM96.5264 20.0767C96.5264 21.5536 97.2796 21.9967 98.5941 21.9967C99.0371 21.9967 99.4211 21.9524 99.7608 21.8785V20.7413C99.4507 20.8152 99.2291 20.8299 98.919 20.8299C98.2396 20.8299 97.8408 20.6822 97.8408 19.8699V15.3358H99.5984V14.1985H97.8408V11.9389H96.5264V14.1985H95.3301V15.3358H96.5264V20.0767ZM107.942 18.0681C107.942 15.6755 106.465 14.0509 104.353 14.0509C102.241 14.0509 100.764 15.6755 100.764 18.0681C100.764 20.4607 102.241 22.0853 104.353 22.0853C106.465 22.0853 107.942 20.4607 107.942 18.0681ZM102.108 18.0681C102.108 16.2958 102.994 15.1733 104.353 15.1733C105.712 15.1733 106.598 16.2958 106.598 18.0681C106.598 19.8256 105.712 20.9481 104.353 20.9481C102.994 20.9481 102.108 19.8256 102.108 18.0681ZM114.224 17.4773H116.853C119.098 17.4773 120.531 16.3844 120.531 14.3905C120.531 12.3672 119.098 11.3185 116.853 11.3185H112.807V21.9229H114.224V17.4773ZM114.224 16.2515V12.5444H116.779C118.286 12.5444 119.128 13.1942 119.128 14.3905C119.128 15.5869 118.286 16.2515 116.779 16.2515H114.224ZM123.412 17.4773H125.465L128.315 21.9229H129.94L127.001 17.4035C128.685 17.1229 129.718 16.089 129.718 14.3905C129.718 12.3672 128.286 11.3185 126.041 11.3185H121.994V21.9229H123.412V17.4773ZM123.412 16.2515V12.5444H125.967C127.473 12.5444 128.315 13.1942 128.315 14.3905C128.315 15.5869 127.473 16.2515 125.967 16.2515H123.412ZM130.922 16.6207C130.922 19.8552 132.96 22.0853 135.737 22.0853C138.513 22.0853 140.537 19.8552 140.537 16.6207C140.537 13.3862 138.513 11.1561 135.737 11.1561C132.96 11.1561 130.922 13.3862 130.922 16.6207ZM139.134 16.6207C139.134 19.1315 137.73 20.8299 135.737 20.8299C133.743 20.8299 132.34 19.1315 132.34 16.6207C132.34 14.1099 133.743 12.4115 135.737 12.4115C137.73 12.4115 139.134 14.1099 139.134 16.6207Z" fill="white"/>
</svg>
